<svg xmlns="http://www.w3.org/2000/svg" viewBox="0 0 1399.43 1028.25"><defs><style>.cls-1{fill:#fff;}.cls-2{fill:none;stroke:#231f20;stroke-miterlimit:10;stroke-width:3px;}</style></defs><g id="Layer_2" data-name="Layer 2"><g id="Layer_1-2" data-name="Layer 1"><rect class="cls-1" width="1399.43" height="1028.25"/><path d="M357.35,264.9a20.54,20.54,0,0,0-4.54-.57,21.33,21.33,0,0,0-4.32,1.16c-2.31.63-3.8,1.57-3.74,2.52s1.41,1.55,3.45,1.89c1.41.24,3.05-1.07,4.91-1.2s3.5,1,4.83.57c2.09-.62,3.42-1.51,3.36-2.41S359.67,265.21,357.35,264.9Z"/><path d="M353.74,273a2.32,2.32,0,1,0,2.14,2.32A2.24,2.24,0,0,0,353.74,273Z"/><path d="M387.9,265.32a19.73,19.73,0,0,0-4.31-1.26,19.92,19.92,0,0,0-4.55.66c-2.31.36-3.89,1.16-4,2.19s1.26,1.95,3.35,2.62c1.33.43,3.06-.78,4.83-.66s3.5,1.55,4.91,1.28c2-.39,3.4-1.14,3.46-2.09S390.21,266,387.9,265.32Z"/><ellipse cx="382.64" cy="275.35" rx="2.14" ry="2.31"/><path d="M382,294.74a14.78,14.78,0,0,1-12.4,3.75c-2.45-.41-3.5,3.33-1,3.74a18.89,18.89,0,0,0,16.18-4.75C386.58,295.79,383.83,293.05,382,294.74Z"/><path d="M371.52,288.46c2.17-1.24.22-4.59-2-3.36a3.51,3.51,0,0,1-3.2.15,1.94,1.94,0,0,0-1,3.74A7.28,7.28,0,0,0,371.52,288.46Z"/><path d="M419.91,221.29a9.19,9.19,0,0,0-6.07-2.78,69.86,69.86,0,1,0,6.44,16.78c1.22-2.87,2-5.16,2-5.28l.2-.59,0-.63A10.59,10.59,0,0,0,419.91,221.29Zm-2,7.24s-4.45,13.21-8.73,15.36l-.59.25a5.75,5.75,0,0,1,.75.85c3.49,4.75,2.94,9.88,1.44,15.76a8.56,8.56,0,0,1-.73,1.9l-3.31,2.25c-1.47-.17-2.73-1.73-2.68-4.62.05-3.46-5-6-6.75-8.13a5.75,5.75,0,0,1-.63-6.41c-5.82.25-16.21,2.91-22.7,2.91-.32,0-.62,0-.92,0-3.66-.16-7.19-.23-10.57-.23a171.09,171.09,0,0,0-20.65,1.12,14.45,14.45,0,0,1-1.9.13c-.32,0-.62,0-.91,0a2.33,2.33,0,0,0-.68-.1,2.72,2.72,0,0,0-2.57,2.1l-3.29,12a3.7,3.7,0,0,1-3.28,2.1,3.6,3.6,0,0,1-2.68-1.23c-1.84-2.07-3.52-6.77-3.09-12.16.66-8.4,5.51-9.71,7.8-9.85-.23-4.31.83-12.51,11.3-16.59,4-1.55,9.9-2.06,16.57-2.06,12.31,0,27.27,1.72,37.84,1.72,4.61,0,8.4-.33,10.75-1.27a14.28,14.28,0,0,1,5.19-1.2C418.2,223.12,417.9,228.53,417.9,228.53ZM407,269.59a7.43,7.43,0,0,0,4.85-1.85,4.48,4.48,0,0,1,1,.19,65.15,65.15,0,0,1-3.63,9.55l-2.45-.63-.77,3.29a36.75,36.75,0,0,1-2.48,7.18,68,68,0,0,1-20,18.86,37.12,37.12,0,0,1-49.8-26.11l-.79-3.42-3.37,1a5,5,0,0,1-1.45.21,5.07,5.07,0,0,1-3.41-8.83,8.16,8.16,0,0,0,4.52,1.39,8.37,8.37,0,0,0,7.42-4.62l.22-.44.13-.47,2.89-10.58h.07a19.14,19.14,0,0,0,2.48-.17,165.56,165.56,0,0,1,20.07-1.09c3.4,0,6.88.08,10.36.24l1.13,0a88.29,88.29,0,0,0,13.63-1.64l4-.66a10.56,10.56,0,0,0,2.09,4.11,20.53,20.53,0,0,0,2.92,2.7,15.49,15.49,0,0,1,2.75,2.61,9.62,9.62,0,0,0,2.55,7A7,7,0,0,0,407,269.59Z"/><path d="M1108.54,239.1V203.24H942.17v96.84h166.37V264.69l54.37,39.68v-105Zm-8.34,52.64h-95.87V227.09H996v64.65H950.51V211.58H1100.2Zm54.37-3.78-49.41-36.06,49.41-36.06Z"/><circle cx="971.62" cy="245.39" r="5.04"/><path d="M1052.54,714.72a61.64,61.64,0,1,0,61.63,61.63A61.64,61.64,0,0,0,1052.54,714.72Zm30.27,42.42c-.76,1-4.42,2.4-6.25,2.15-.53-.08-2-.3-2.22-.27a1.69,1.69,0,0,0-1,.5,1.75,1.75,0,0,0-.33.41,1.37,1.37,0,0,0-.18.55v0l-.82,5.71a16.25,16.25,0,0,0,1.41,3.39c.51,1.28.63,4.93.37,7-.39,3.18-3.17,8.54-4.27,10.16a9.43,9.43,0,0,0-.93,2.39c-.29,2.74-.44,5.19-.46,7.33-.07,3.36-1,5.92.25,7.26a3.21,3.21,0,0,0,1.53,1,3.32,3.32,0,0,1,2.49,3.25c0,.61-.13,1.12-.54,1.31a14.43,14.43,0,0,1-3.86.28c-.52,0-2.61.27-2.84-.09-.42-.65-2-3.83-2.44-4.88-.06-.14-2.64-.75-3.14.27a3.26,3.26,0,0,1,3.53,2.66c.18.6-.16.9-.46,1.48-2.74,1.23-6.37,1.22-12.65.13a35.12,35.12,0,0,0-7.51-.73v0a29.1,29.1,0,0,1-15.27-4.92c-4.35-3-8.75-10.55-8.29-16.92l.35.35c.35-3.81.12-7.67,2.27-11.9a26.6,26.6,0,0,1,4.52-5.74l.41.93c.94-2,1.22-2.73,5.33-5.45q9.93,5.54,1.86,18.88-4.45,8.28-1.41,14.82c1.15,2.43,2.14,2.68,3.83,2.89.36-8.55,2.11-13.59,5.56-19.45q1.83-3.1,6.68-9.76,5.22-6.5,6.29-7.72c2.07-2.36,3.11-4.55,3.11-6.59,0-.55,0-1.26.07-2.11-.55-.18-1.12-.38-1.48-.54a1.6,1.6,0,0,1-.71-2.09c.28-.49,2-1.5,2.56-2.17.29-.38,3.75-6.29,4.21-6.81a1.38,1.38,0,0,1,.84-.44,1.26,1.26,0,0,1,1.21.53h0a8,8,0,0,1,1.09-.39,9.55,9.55,0,0,1,6.62-.72,6.48,6.48,0,0,1,4.36,4l5.92,1.46a1.59,1.59,0,0,1,1,.62,1.36,1.36,0,0,1,.35,1,9.45,9.45,0,0,1-.39,2.25C1083.38,754,1083.33,756.45,1082.81,757.14Z"/><path d="M335.8,778.11l85.12,49.14a2,2,0,0,0,3-1.75V727.21a2,2,0,0,0-3-1.76L335.8,774.6A2,2,0,0,0,335.8,778.11Z"/><path d="M309.49,773.87l57.44-33.16a2.89,2.89,0,0,0,1.43-2.49v-9.55a2.87,2.87,0,0,0-4.31-2.48l-82.58,47.68a2.86,2.86,0,0,0,0,5l82.58,47.68a2.87,2.87,0,0,0,4.31-2.49v-9.54a2.88,2.88,0,0,0-1.43-2.49l-57.44-33.16A2.87,2.87,0,0,1,309.49,773.87Z"/><line class="cls-2" x1="699.71" x2="699.71" y2="1028.25"/><line class="cls-2" y1="514.13" x2="1399.43" y2="514.13"/></g></g></svg>