<svg width="842" height="595" viewBox="0 0 842 595" fill="none" xmlns="http://www.w3.org/2000/svg">
<rect width="842" height="595" fill="#000321"/>
<circle cx="421.5" cy="297.5" r="110.75" stroke="#FFE48C" stroke-width="1.5"/>
<circle cx="421.5" cy="297.5" r="211.75" stroke="#FFC919" stroke-width="1.5" stroke-dasharray="7 7"/>
<path d="M364 397.5C364 391.149 369.149 386 375.5 386H467.5C473.851 386 479 391.149 479 397.5C479 403.851 473.851 409 467.5 409H375.5C369.149 409 364 403.851 364 397.5Z" fill="#000321"/>
<path d="M376.131 401.11C378.314 401.11 379.673 399.587 379.673 397.04C379.673 394.466 378.298 392.937 376.131 392.937C373.958 392.937 372.556 394.471 372.556 397.04C372.556 399.597 373.931 401.11 376.131 401.11ZM376.131 399.988C374.838 399.988 374.024 399.113 374.024 397.056C374.024 394.972 374.838 394.059 376.131 394.059C377.423 394.059 378.215 394.966 378.215 397.056C378.215 399.113 377.434 399.988 376.131 399.988ZM383.872 401.11C385.467 401.11 386.287 399.927 386.287 398.129C386.287 396.242 385.407 395.203 383.993 395.203C383.058 395.203 382.448 395.709 382.211 396.143V392.827H380.869V401H381.854L382.008 399.834C382.184 400.378 382.657 401.11 383.872 401.11ZM383.597 400.125C382.635 400.125 382.211 399.548 382.211 398.096C382.222 396.858 382.635 396.198 383.581 396.198C384.461 396.198 384.967 396.847 384.967 398.096C384.967 399.531 384.395 400.125 383.597 400.125ZM389.643 401.11C391.046 401.11 391.942 400.466 391.942 399.366C391.942 398.833 391.667 398.063 390.501 397.771L389.478 397.524C388.857 397.392 388.554 397.21 388.554 396.864C388.554 396.369 389 396.127 389.632 396.127C390.243 396.127 390.639 396.418 390.721 396.908H391.86C391.832 395.813 390.969 395.203 389.643 395.203C388.142 395.203 387.355 395.945 387.361 396.957C387.366 397.854 387.993 398.31 388.961 398.525L390.039 398.772C390.556 398.882 390.776 399.086 390.776 399.443C390.776 399.933 390.32 400.164 389.638 400.164C389.066 400.164 388.499 399.905 388.351 399.273H387.174C387.361 400.56 388.455 401.11 389.643 401.11ZM396.268 396.259V395.307H394.997V393.624H394.035L393.699 395.313H392.737V396.259H393.661V399.57C393.661 400.483 394.013 401.044 395.366 401.044C395.855 401.044 396.141 400.989 396.295 400.928V400.081H395.591C395.157 400.081 395.003 400.026 395.003 399.52L394.997 396.259H396.268ZM399.143 401.11C399.946 401.11 400.578 400.829 400.991 399.977L401.101 401H402.228V397.012C402.228 395.868 401.53 395.203 399.907 395.203C398.505 395.203 397.559 395.791 397.498 396.963H398.637C398.785 396.374 399.291 396.143 399.847 396.132C400.589 396.127 400.941 396.49 400.941 397.089V397.474L400.089 397.496C398.109 397.529 397.245 398.162 397.245 399.416C397.245 400.494 398.048 401.11 399.143 401.11ZM399.577 400.202C398.972 400.202 398.521 399.861 398.521 399.278C398.521 398.519 399.209 398.239 400.243 398.228L400.941 398.217V399.113C400.936 399.669 400.237 400.202 399.577 400.202ZM406.041 395.203C404.374 395.203 403.351 396.413 403.351 398.178C403.351 400.043 404.479 401.11 406.041 401.11C407.35 401.11 408.268 400.279 408.373 399.119H407.262C407.179 399.592 406.783 400.136 406.074 400.136C405.139 400.136 404.616 399.372 404.616 398.167C404.616 396.869 405.199 396.242 406.052 396.242C406.767 396.242 407.163 396.743 407.251 397.26H408.389C408.268 396.066 407.372 395.203 406.041 395.203ZM411.244 401.083C411.425 401.083 411.645 401.039 411.843 400.972V400.131L411.557 400.12C411.106 400.081 410.914 399.806 410.914 399.311V392.827H409.605V399.465C409.605 400.274 409.77 401.083 411.244 401.083ZM413.868 398.464H417.8V398.057C417.8 396.341 416.898 395.203 415.221 395.203C413.516 395.203 412.531 396.473 412.531 398.217C412.531 400.004 413.653 401.11 415.298 401.11C416.447 401.11 417.58 400.45 417.778 399.262H416.557C416.403 399.845 415.903 400.12 415.27 400.12C414.352 400.12 413.862 399.432 413.868 398.464ZM413.862 397.634C413.862 396.902 414.33 396.165 415.215 396.165C416.106 396.165 416.535 396.809 416.535 397.634H413.862ZM424.596 401.11C426.191 401.11 427.01 399.927 427.01 398.129C427.01 396.242 426.13 395.203 424.717 395.203C423.782 395.203 423.171 395.709 422.935 396.143V392.827H421.593V401H422.577L422.731 399.834C422.907 400.378 423.38 401.11 424.596 401.11ZM424.321 400.125C423.358 400.125 422.935 399.548 422.935 398.096C422.946 396.858 423.358 396.198 424.304 396.198C425.184 396.198 425.69 396.847 425.69 398.096C425.69 399.531 425.118 400.125 424.321 400.125ZM430.608 401.11C432.324 401.11 433.281 399.911 433.281 398.184C433.281 396.319 432.241 395.203 430.613 395.203C428.925 395.203 427.918 396.396 427.918 398.184C427.918 400.026 428.98 401.11 430.608 401.11ZM430.613 400.092C429.601 400.092 429.238 399.174 429.238 398.145C429.238 397.001 429.678 396.209 430.613 396.209C431.609 396.209 431.972 397.1 431.972 398.145C431.972 399.273 431.532 400.092 430.613 400.092ZM436.563 401.11C437.294 401.116 438.048 400.824 438.257 399.889L438.405 401H439.434V395.313H438.103V399.014C438.103 399.724 437.635 400.114 436.915 400.114C436.123 400.114 435.732 399.68 435.732 399.058V395.313H434.39V399.212C434.39 400.455 435.457 401.105 436.563 401.11ZM441.004 401H442.341V397.287C442.341 396.638 442.946 396.314 443.589 396.314C444.211 396.314 444.673 396.677 444.673 397.419V401H446.015V397.26C446.015 395.846 445.074 395.247 444.024 395.247C443.116 395.247 442.577 395.687 442.313 396.127V395.313H441.004V401ZM449.561 401.11C450.777 401.11 451.255 400.378 451.431 399.834L451.58 401H452.57V392.827H451.222V396.143C450.991 395.709 450.375 395.203 449.44 395.203C447.939 395.203 447.147 396.352 447.147 398.129C447.147 400.037 448.054 401.11 449.561 401.11ZM449.836 400.125C448.967 400.125 448.472 399.432 448.472 398.096C448.472 396.754 449.044 396.198 449.853 396.198C450.799 396.198 451.211 396.858 451.222 398.096C451.222 399.548 450.799 400.125 449.836 400.125ZM455.722 401.11C456.525 401.11 457.157 400.829 457.57 399.977L457.68 401H458.807V397.012C458.807 395.868 458.109 395.203 456.486 395.203C455.084 395.203 454.138 395.791 454.077 396.963H455.216C455.364 396.374 455.87 396.143 456.426 396.132C457.168 396.127 457.52 396.49 457.52 397.089V397.474L456.668 397.496C454.688 397.529 453.824 398.162 453.824 399.416C453.824 400.494 454.627 401.11 455.722 401.11ZM456.156 400.202C455.551 400.202 455.1 399.861 455.1 399.278C455.1 398.519 455.788 398.239 456.822 398.228L457.52 398.217V399.113C457.515 399.669 456.816 400.202 456.156 400.202ZM460.233 401H461.569V397.694C461.569 396.847 462.169 396.396 463.269 396.484C463.362 396.484 463.511 396.501 463.593 396.534V395.252C463.527 395.22 463.395 395.203 463.263 395.203C462.449 395.203 461.789 395.698 461.514 396.545V395.313H460.233V401ZM465.541 402.815C466.382 402.815 467.026 402.502 467.554 401.209L469.897 395.313H468.588L467.081 399.333L465.568 395.313H464.237L466.454 400.807L466.305 401.226C466.217 401.446 466.058 401.853 465.134 401.803L464.562 401.787V402.645C464.562 402.645 464.809 402.815 465.541 402.815Z" fill="#FFE48C"/>
<path d="M375.5 387.5H467.5V384.5H375.5V387.5ZM467.5 407.5H375.5V410.5H467.5V407.5ZM375.5 407.5C369.977 407.5 365.5 403.023 365.5 397.5H362.5C362.5 404.68 368.32 410.5 375.5 410.5V407.5ZM477.5 397.5C477.5 403.023 473.023 407.5 467.5 407.5V410.5C474.68 410.5 480.5 404.68 480.5 397.5H477.5ZM467.5 387.5C473.023 387.5 477.5 391.977 477.5 397.5H480.5C480.5 390.32 474.68 384.5 467.5 384.5V387.5ZM375.5 384.5C368.32 384.5 362.5 390.32 362.5 397.5H365.5C365.5 391.977 369.977 387.5 375.5 387.5V384.5Z" fill="#FFE48C"/>
<path d="M341 498.5C341 492.149 346.149 487 352.5 487H490.5C496.851 487 502 492.149 502 498.5C502 504.851 496.851 510 490.5 510H352.5C346.149 510 341 504.851 341 498.5Z" fill="#000321"/>
<path d="M359.351 494.047H358.026L356.409 499.789L354.78 494.047H353.78L352.163 499.789L350.551 494.047H349.231L351.552 502H352.652L354.28 496.362L355.886 502H357.014L359.351 494.047ZM361.666 494.052H360.34V495.317H361.666V494.052ZM361.644 496.313H360.362V502H361.644V496.313ZM365.288 502.11C366.503 502.11 366.982 501.378 367.158 500.834L367.306 502H368.296V493.827H366.949V497.143C366.718 496.709 366.102 496.203 365.167 496.203C363.665 496.203 362.873 497.352 362.873 499.129C362.873 501.037 363.781 502.11 365.288 502.11ZM365.563 501.125C364.694 501.125 364.199 500.432 364.199 499.096C364.199 497.754 364.771 497.198 365.579 497.198C366.525 497.198 366.938 497.858 366.949 499.096C366.949 500.548 366.525 501.125 365.563 501.125ZM370.887 499.464H374.82V499.057C374.82 497.341 373.918 496.203 372.24 496.203C370.535 496.203 369.551 497.473 369.551 499.217C369.551 501.004 370.673 502.11 372.317 502.11C373.467 502.11 374.6 501.45 374.798 500.262H373.577C373.423 500.845 372.922 501.12 372.29 501.12C371.371 501.12 370.882 500.432 370.887 499.464ZM370.882 498.634C370.882 497.902 371.349 497.165 372.235 497.165C373.126 497.165 373.555 497.809 373.555 498.634H370.882ZM376.099 502H377.435V498.287C377.435 497.638 378.04 497.314 378.684 497.314C379.305 497.314 379.767 497.677 379.767 498.419V502H381.109V498.26C381.109 496.846 380.169 496.247 379.118 496.247C378.211 496.247 377.672 496.687 377.408 497.127V496.313H376.099V502ZM383.628 499.464H387.56V499.057C387.56 497.341 386.658 496.203 384.981 496.203C383.276 496.203 382.291 497.473 382.291 499.217C382.291 501.004 383.413 502.11 385.058 502.11C386.207 502.11 387.34 501.45 387.538 500.262H386.317C386.163 500.845 385.663 501.12 385.03 501.12C384.112 501.12 383.622 500.432 383.628 499.464ZM383.622 498.634C383.622 497.902 384.09 497.165 384.975 497.165C385.866 497.165 386.295 497.809 386.295 498.634H383.622ZM390.951 502.11C392.167 502.11 392.645 501.378 392.821 500.834L392.97 502H393.96V493.827H392.612V497.143C392.381 496.709 391.765 496.203 390.83 496.203C389.329 496.203 388.537 497.352 388.537 499.129C388.537 501.037 389.444 502.11 390.951 502.11ZM391.226 501.125C390.357 501.125 389.862 500.432 389.862 499.096C389.862 497.754 390.434 497.198 391.243 497.198C392.189 497.198 392.601 497.858 392.612 499.096C392.612 500.548 392.189 501.125 391.226 501.125ZM400.314 502.11C402.03 502.11 402.987 500.911 402.987 499.184C402.987 497.319 401.947 496.203 400.319 496.203C398.631 496.203 397.624 497.396 397.624 499.184C397.624 501.026 398.686 502.11 400.314 502.11ZM400.319 501.092C399.307 501.092 398.944 500.174 398.944 499.145C398.944 498.001 399.384 497.209 400.319 497.209C401.315 497.209 401.678 498.1 401.678 499.145C401.678 500.273 401.238 501.092 400.319 501.092ZM407.214 502.11C408.809 502.11 409.629 500.927 409.629 499.129C409.629 497.242 408.749 496.203 407.335 496.203C406.4 496.203 405.79 496.709 405.553 497.143V493.827H404.211V502H405.196L405.35 500.834C405.526 501.378 405.999 502.11 407.214 502.11ZM406.939 501.125C405.977 501.125 405.553 500.548 405.553 499.096C405.564 497.858 405.977 497.198 406.923 497.198C407.803 497.198 408.309 497.847 408.309 499.096C408.309 500.531 407.737 501.125 406.939 501.125ZM412.985 502.11C414.387 502.11 415.284 501.466 415.284 500.366C415.284 499.833 415.009 499.063 413.843 498.771L412.82 498.524C412.198 498.392 411.896 498.21 411.896 497.864C411.896 497.369 412.341 497.127 412.974 497.127C413.584 497.127 413.98 497.418 414.063 497.908H415.201C415.174 496.813 414.31 496.203 412.985 496.203C411.483 496.203 410.697 496.945 410.702 497.957C410.708 498.854 411.335 499.31 412.303 499.525L413.381 499.772C413.898 499.882 414.118 500.086 414.118 500.443C414.118 500.933 413.661 501.164 412.979 501.164C412.407 501.164 411.841 500.905 411.692 500.273H410.515C410.702 501.56 411.797 502.11 412.985 502.11ZM419.61 497.259V496.307H418.339V494.624H417.377L417.041 496.313H416.079V497.259H417.003V500.57C417.003 501.483 417.355 502.044 418.708 502.044C419.197 502.044 419.483 501.989 419.637 501.928V501.081H418.933C418.499 501.081 418.345 501.026 418.345 500.52L418.339 497.259H419.61ZM422.485 502.11C423.288 502.11 423.92 501.829 424.333 500.977L424.443 502H425.57V498.012C425.57 496.868 424.872 496.203 423.249 496.203C421.847 496.203 420.901 496.791 420.84 497.963H421.979C422.127 497.374 422.633 497.143 423.189 497.132C423.931 497.127 424.283 497.49 424.283 498.089V498.474L423.431 498.496C421.451 498.529 420.587 499.162 420.587 500.416C420.587 501.494 421.39 502.11 422.485 502.11ZM422.919 501.202C422.314 501.202 421.863 500.861 421.863 500.278C421.863 499.519 422.551 499.239 423.585 499.228L424.283 499.217V500.113C424.278 500.669 423.579 501.202 422.919 501.202ZM429.382 496.203C427.716 496.203 426.693 497.413 426.693 499.178C426.693 501.043 427.82 502.11 429.382 502.11C430.691 502.11 431.61 501.279 431.714 500.119H430.603C430.521 500.592 430.125 501.136 429.415 501.136C428.48 501.136 427.958 500.372 427.958 499.167C427.958 497.869 428.541 497.242 429.393 497.242C430.108 497.242 430.504 497.743 430.592 498.26H431.731C431.61 497.066 430.713 496.203 429.382 496.203ZM434.586 502.083C434.767 502.083 434.987 502.039 435.185 501.972V501.131L434.899 501.12C434.448 501.081 434.256 500.806 434.256 500.311V493.827H432.947V500.465C432.947 501.274 433.112 502.083 434.586 502.083ZM437.21 499.464H441.142V499.057C441.142 497.341 440.24 496.203 438.563 496.203C436.858 496.203 435.873 497.473 435.873 499.217C435.873 501.004 436.995 502.11 438.64 502.11C439.789 502.11 440.922 501.45 441.12 500.262H439.899C439.745 500.845 439.245 501.12 438.612 501.12C437.694 501.12 437.204 500.432 437.21 499.464ZM437.204 498.634C437.204 497.902 437.672 497.165 438.557 497.165C439.448 497.165 439.877 497.809 439.877 498.634H437.204ZM447.938 502.11C449.533 502.11 450.352 500.927 450.352 499.129C450.352 497.242 449.472 496.203 448.059 496.203C447.124 496.203 446.513 496.709 446.277 497.143V493.827H444.935V502H445.919L446.073 500.834C446.249 501.378 446.722 502.11 447.938 502.11ZM447.663 501.125C446.7 501.125 446.277 500.548 446.277 499.096C446.288 497.858 446.7 497.198 447.646 497.198C448.526 497.198 449.032 497.847 449.032 499.096C449.032 500.531 448.46 501.125 447.663 501.125ZM453.95 502.11C455.666 502.11 456.623 500.911 456.623 499.184C456.623 497.319 455.583 496.203 453.955 496.203C452.267 496.203 451.26 497.396 451.26 499.184C451.26 501.026 452.322 502.11 453.95 502.11ZM453.955 501.092C452.943 501.092 452.58 500.174 452.58 499.145C452.58 498.001 453.02 497.209 453.955 497.209C454.951 497.209 455.314 498.1 455.314 499.145C455.314 500.273 454.874 501.092 453.955 501.092ZM459.905 502.11C460.636 502.116 461.39 501.824 461.599 500.889L461.747 502H462.776V496.313H461.445V500.014C461.445 500.724 460.977 501.114 460.257 501.114C459.465 501.114 459.074 500.68 459.074 500.058V496.313H457.732V500.212C457.732 501.455 458.799 502.105 459.905 502.11ZM464.346 502H465.682V498.287C465.682 497.638 466.287 497.314 466.931 497.314C467.552 497.314 468.014 497.677 468.014 498.419V502H469.356V498.26C469.356 496.846 468.416 496.247 467.365 496.247C466.458 496.247 465.919 496.687 465.655 497.127V496.313H464.346V502ZM472.903 502.11C474.119 502.11 474.597 501.378 474.773 500.834L474.922 502H475.912V493.827H474.564V497.143C474.333 496.709 473.717 496.203 472.782 496.203C471.281 496.203 470.489 497.352 470.489 499.129C470.489 501.037 471.396 502.11 472.903 502.11ZM473.178 501.125C472.309 501.125 471.814 500.432 471.814 499.096C471.814 497.754 472.386 497.198 473.195 497.198C474.141 497.198 474.553 497.858 474.564 499.096C474.564 500.548 474.141 501.125 473.178 501.125ZM479.064 502.11C479.867 502.11 480.499 501.829 480.912 500.977L481.022 502H482.149V498.012C482.149 496.868 481.451 496.203 479.828 496.203C478.426 496.203 477.48 496.791 477.419 497.963H478.558C478.706 497.374 479.212 497.143 479.768 497.132C480.51 497.127 480.862 497.49 480.862 498.089V498.474L480.01 498.496C478.03 498.529 477.166 499.162 477.166 500.416C477.166 501.494 477.969 502.11 479.064 502.11ZM479.498 501.202C478.893 501.202 478.442 500.861 478.442 500.278C478.442 499.519 479.13 499.239 480.164 499.228L480.862 499.217V500.113C480.857 500.669 480.158 501.202 479.498 501.202ZM483.574 502H484.911V498.694C484.911 497.847 485.51 497.396 486.61 497.484C486.704 497.484 486.852 497.501 486.935 497.534V496.252C486.869 496.22 486.737 496.203 486.605 496.203C485.791 496.203 485.131 496.698 484.856 497.545V496.313H483.574V502ZM488.882 503.815C489.724 503.815 490.367 503.502 490.895 502.209L493.238 496.313H491.929L490.422 500.333L488.91 496.313H487.579L489.795 501.807L489.647 502.226C489.559 502.446 489.399 502.853 488.475 502.803L487.903 502.787V503.645C487.903 503.645 488.151 503.815 488.882 503.815Z" fill="#FFC919"/>
<path d="M352.5 488.5H490.5V485.5H352.5V488.5ZM490.5 508.5H352.5V511.5H490.5V508.5ZM352.5 508.5C346.977 508.5 342.5 504.023 342.5 498.5H339.5C339.5 505.68 345.32 511.5 352.5 511.5V508.5ZM500.5 498.5C500.5 504.023 496.023 508.5 490.5 508.5V511.5C497.68 511.5 503.5 505.68 503.5 498.5H500.5ZM490.5 488.5C496.023 488.5 500.5 492.977 500.5 498.5H503.5C503.5 491.32 497.68 485.5 490.5 485.5V488.5ZM352.5 485.5C345.32 485.5 339.5 491.32 339.5 498.5H342.5C342.5 492.977 346.977 488.5 352.5 488.5V485.5Z" fill="#FFC919"/>
<path d="M380.963 293.047V301H382.299V293.047H380.963ZM384.025 301H385.361V297.287C385.361 296.638 385.966 296.314 386.61 296.314C387.231 296.314 387.693 296.677 387.693 297.419V301H389.035V297.26C389.035 295.846 388.095 295.247 387.044 295.247C386.137 295.247 385.598 295.687 385.334 296.127V295.313H384.025V301ZM392.857 295.203C391.19 295.203 390.167 296.413 390.167 298.178C390.167 300.043 391.295 301.11 392.857 301.11C394.166 301.11 395.084 300.279 395.189 299.119H394.078C393.995 299.592 393.599 300.136 392.89 300.136C391.955 300.136 391.432 299.372 391.432 298.167C391.432 296.869 392.015 296.242 392.868 296.242C393.583 296.242 393.979 296.743 394.067 297.26H395.205C395.084 296.066 394.188 295.203 392.857 295.203ZM398.06 301.083C398.242 301.083 398.462 301.039 398.66 300.972V300.131L398.374 300.12C397.923 300.081 397.73 299.806 397.73 299.311V292.827H396.421V299.465C396.421 300.274 396.586 301.083 398.06 301.083ZM401.873 301.11C402.605 301.116 403.358 300.824 403.567 299.889L403.716 301H404.744V295.313H403.413V299.014C403.413 299.724 402.946 300.114 402.225 300.114C401.433 300.114 401.043 299.68 401.043 299.058V295.313H399.701V299.212C399.701 300.455 400.768 301.105 401.873 301.11ZM408.373 301.11C409.588 301.11 410.067 300.378 410.243 299.834L410.391 301H411.381V292.827H410.034V296.143C409.803 295.709 409.187 295.203 408.252 295.203C406.75 295.203 405.958 296.352 405.958 298.129C405.958 300.037 406.866 301.11 408.373 301.11ZM408.648 300.125C407.779 300.125 407.284 299.432 407.284 298.096C407.284 296.754 407.856 296.198 408.664 296.198C409.61 296.198 410.023 296.858 410.034 298.096C410.034 299.548 409.61 300.125 408.648 300.125ZM413.972 298.464H417.905V298.057C417.905 296.341 417.003 295.203 415.325 295.203C413.62 295.203 412.636 296.473 412.636 298.217C412.636 300.004 413.758 301.11 415.402 301.11C416.552 301.11 417.685 300.45 417.883 299.262H416.662C416.508 299.845 416.007 300.12 415.375 300.12C414.456 300.12 413.967 299.432 413.972 298.464ZM413.967 297.634C413.967 296.902 414.434 296.165 415.32 296.165C416.211 296.165 416.64 296.809 416.64 297.634H413.967ZM421.296 301.11C422.511 301.11 422.99 300.378 423.166 299.834L423.314 301H424.304V292.827H422.957V296.143C422.726 295.709 422.11 295.203 421.175 295.203C419.673 295.203 418.881 296.352 418.881 298.129C418.881 300.037 419.789 301.11 421.296 301.11ZM421.571 300.125C420.702 300.125 420.207 299.432 420.207 298.096C420.207 296.754 420.779 296.198 421.587 296.198C422.533 296.198 422.946 296.858 422.957 298.096C422.957 299.548 422.533 300.125 421.571 300.125ZM428.379 302.771H429.721V300.065C429.996 300.582 430.552 301.11 431.415 301.11C432.829 301.11 433.78 300.109 433.78 298.096C433.78 296.121 432.851 295.203 431.536 295.203C430.64 295.203 430.029 295.709 429.727 296.209L429.716 295.313H428.379V302.771ZM431.118 300.109C430.178 300.109 429.71 299.196 429.71 298.118C429.71 297.001 430.178 296.198 431.118 296.198C431.993 296.198 432.515 296.93 432.515 298.118C432.515 299.493 431.921 300.109 431.118 300.109ZM436.08 298.464H440.012V298.057C440.012 296.341 439.11 295.203 437.433 295.203C435.728 295.203 434.743 296.473 434.743 298.217C434.743 300.004 435.865 301.11 437.51 301.11C438.659 301.11 439.792 300.45 439.99 299.262H438.769C438.615 299.845 438.115 300.12 437.482 300.12C436.564 300.12 436.074 299.432 436.08 298.464ZM436.074 297.634C436.074 296.902 436.542 296.165 437.427 296.165C438.318 296.165 438.747 296.809 438.747 297.634H436.074ZM443.678 301.11C445.394 301.11 446.351 299.911 446.351 298.184C446.351 296.319 445.312 295.203 443.684 295.203C441.995 295.203 440.989 296.396 440.989 298.184C440.989 300.026 442.05 301.11 443.678 301.11ZM443.684 300.092C442.672 300.092 442.309 299.174 442.309 298.145C442.309 297.001 442.749 296.209 443.684 296.209C444.679 296.209 445.042 297.1 445.042 298.145C445.042 299.273 444.602 300.092 443.684 300.092ZM447.575 302.771H448.917V300.065C449.192 300.582 449.748 301.11 450.611 301.11C452.025 301.11 452.976 300.109 452.976 298.096C452.976 296.121 452.047 295.203 450.732 295.203C449.836 295.203 449.225 295.709 448.923 296.209L448.912 295.313H447.575V302.771ZM450.314 300.109C449.374 300.109 448.906 299.196 448.906 298.118C448.906 297.001 449.374 296.198 450.314 296.198C451.189 296.198 451.711 296.93 451.711 298.118C451.711 299.493 451.117 300.109 450.314 300.109ZM455.832 301.083C456.013 301.083 456.233 301.039 456.431 300.972V300.131L456.145 300.12C455.694 300.081 455.502 299.806 455.502 299.311V292.827H454.193V299.465C454.193 300.274 454.358 301.083 455.832 301.083ZM458.456 298.464H462.388V298.057C462.388 296.341 461.486 295.203 459.809 295.203C458.104 295.203 457.119 296.473 457.119 298.217C457.119 300.004 458.241 301.11 459.886 301.11C461.035 301.11 462.168 300.45 462.366 299.262H461.145C460.991 299.845 460.491 300.12 459.858 300.12C458.94 300.12 458.45 299.432 458.456 298.464ZM458.45 297.634C458.45 296.902 458.918 296.165 459.803 296.165C460.694 296.165 461.123 296.809 461.123 297.634H458.45Z" fill="#A9F51D"/>
<path d="M383.5 287.5H459.5V284.5H383.5V287.5ZM459.5 307.5H383.5V310.5H459.5V307.5ZM383.5 307.5C377.977 307.5 373.5 303.023 373.5 297.5H370.5C370.5 304.68 376.32 310.5 383.5 310.5V307.5ZM469.5 297.5C469.5 303.023 465.023 307.5 459.5 307.5V310.5C466.68 310.5 472.5 304.68 472.5 297.5H469.5ZM459.5 287.5C465.023 287.5 469.5 291.977 469.5 297.5H472.5C472.5 290.32 466.68 284.5 459.5 284.5V287.5ZM383.5 284.5C376.32 284.5 370.5 290.32 370.5 297.5H373.5C373.5 291.977 377.977 287.5 383.5 287.5V284.5Z" fill="#A9F51D"/>
<path d="M572 297.5C572 291.149 577.149 286 583.5 286H663.5C669.851 286 675 291.149 675 297.5C675 303.851 669.851 309 663.5 309H583.5C577.149 309 572 303.851 572 297.5Z" fill="#000321"/>
<path d="M580.963 301H586.298V299.839L582.299 299.834V297.557H585.759V296.424H582.31V294.196H586.215L586.221 293.047H580.963V301ZM592.931 301L590.742 298.041L592.761 295.313H591.336L590.022 297.089L588.707 295.313H587.288L589.29 298.041L587.107 301H588.526L590.016 298.976L591.512 301H592.931ZM596.08 295.203C594.413 295.203 593.39 296.413 593.39 298.178C593.39 300.043 594.518 301.11 596.08 301.11C597.389 301.11 598.307 300.279 598.412 299.119H597.301C597.218 299.592 596.822 300.136 596.113 300.136C595.178 300.136 594.655 299.372 594.655 298.167C594.655 296.869 595.238 296.242 596.091 296.242C596.806 296.242 597.202 296.743 597.29 297.26H598.428C598.307 296.066 597.411 295.203 596.08 295.203ZM601.283 301.083C601.464 301.083 601.684 301.039 601.882 300.972V300.131L601.596 300.12C601.145 300.081 600.953 299.806 600.953 299.311V292.827H599.644V299.465C599.644 300.274 599.809 301.083 601.283 301.083ZM605.096 301.11C605.828 301.116 606.581 300.824 606.79 299.889L606.939 301H607.967V295.313H606.636V299.014C606.636 299.724 606.169 300.114 605.448 300.114C604.656 300.114 604.266 299.68 604.266 299.058V295.313H602.924V299.212C602.924 300.455 603.991 301.105 605.096 301.11ZM611.596 301.11C612.811 301.11 613.29 300.378 613.466 299.834L613.614 301H614.604V292.827H613.257V296.143C613.026 295.709 612.41 295.203 611.475 295.203C609.973 295.203 609.181 296.352 609.181 298.129C609.181 300.037 610.089 301.11 611.596 301.11ZM611.871 300.125C611.002 300.125 610.507 299.432 610.507 298.096C610.507 296.754 611.079 296.198 611.887 296.198C612.833 296.198 613.246 296.858 613.257 298.096C613.257 299.548 612.833 300.125 611.871 300.125ZM617.195 298.464H621.128V298.057C621.128 296.341 620.226 295.203 618.548 295.203C616.843 295.203 615.859 296.473 615.859 298.217C615.859 300.004 616.981 301.11 618.625 301.11C619.775 301.11 620.908 300.45 621.106 299.262H619.885C619.731 299.845 619.23 300.12 618.598 300.12C617.679 300.12 617.19 299.432 617.195 298.464ZM617.19 297.634C617.19 296.902 617.657 296.165 618.543 296.165C619.434 296.165 619.863 296.809 619.863 297.634H617.19ZM624.518 301.11C625.734 301.11 626.212 300.378 626.388 299.834L626.537 301H627.527V292.827H626.179V296.143C625.948 295.709 625.332 295.203 624.397 295.203C622.896 295.203 622.104 296.352 622.104 298.129C622.104 300.037 623.011 301.11 624.518 301.11ZM624.793 300.125C623.924 300.125 623.429 299.432 623.429 298.096C623.429 296.754 624.001 296.198 624.81 296.198C625.756 296.198 626.168 296.858 626.179 298.096C626.179 299.548 625.756 300.125 624.793 300.125ZM631.602 302.771H632.944V300.065C633.219 300.582 633.774 301.11 634.638 301.11C636.051 301.11 637.003 300.109 637.003 298.096C637.003 296.121 636.073 295.203 634.759 295.203C633.862 295.203 633.252 295.709 632.949 296.209L632.938 295.313H631.602V302.771ZM634.341 300.109C633.4 300.109 632.933 299.196 632.933 298.118C632.933 297.001 633.4 296.198 634.341 296.198C635.215 296.198 635.738 296.93 635.738 298.118C635.738 299.493 635.144 300.109 634.341 300.109ZM639.302 298.464H643.235V298.057C643.235 296.341 642.333 295.203 640.655 295.203C638.95 295.203 637.966 296.473 637.966 298.217C637.966 300.004 639.088 301.11 640.732 301.11C641.882 301.11 643.015 300.45 643.213 299.262H641.992C641.838 299.845 641.337 300.12 640.705 300.12C639.786 300.12 639.297 299.432 639.302 298.464ZM639.297 297.634C639.297 296.902 639.764 296.165 640.65 296.165C641.541 296.165 641.97 296.809 641.97 297.634H639.297ZM646.901 301.11C648.617 301.11 649.574 299.911 649.574 298.184C649.574 296.319 648.534 295.203 646.906 295.203C645.218 295.203 644.211 296.396 644.211 298.184C644.211 300.026 645.273 301.11 646.901 301.11ZM646.906 300.092C645.894 300.092 645.531 299.174 645.531 298.145C645.531 297.001 645.971 296.209 646.906 296.209C647.902 296.209 648.265 297.1 648.265 298.145C648.265 299.273 647.825 300.092 646.906 300.092ZM650.798 302.771H652.14V300.065C652.415 300.582 652.971 301.11 653.834 301.11C655.248 301.11 656.199 300.109 656.199 298.096C656.199 296.121 655.27 295.203 653.955 295.203C653.059 295.203 652.448 295.709 652.146 296.209L652.135 295.313H650.798V302.771ZM653.537 300.109C652.597 300.109 652.129 299.196 652.129 298.118C652.129 297.001 652.597 296.198 653.537 296.198C654.412 296.198 654.934 296.93 654.934 298.118C654.934 299.493 654.34 300.109 653.537 300.109ZM659.054 301.083C659.236 301.083 659.456 301.039 659.654 300.972V300.131L659.368 300.12C658.917 300.081 658.724 299.806 658.724 299.311V292.827H657.415V299.465C657.415 300.274 657.58 301.083 659.054 301.083ZM661.678 298.464H665.611V298.057C665.611 296.341 664.709 295.203 663.031 295.203C661.326 295.203 660.342 296.473 660.342 298.217C660.342 300.004 661.464 301.11 663.108 301.11C664.258 301.11 665.391 300.45 665.589 299.262H664.368C664.214 299.845 663.713 300.12 663.081 300.12C662.162 300.12 661.673 299.432 661.678 298.464ZM661.673 297.634C661.673 296.902 662.14 296.165 663.026 296.165C663.917 296.165 664.346 296.809 664.346 297.634H661.673Z" fill="#FF5959"/>
<path d="M583.5 287.5H663.5V284.5H583.5V287.5ZM663.5 307.5H583.5V310.5H663.5V307.5ZM583.5 307.5C577.977 307.5 573.5 303.023 573.5 297.5H570.5C570.5 304.68 576.32 310.5 583.5 310.5V307.5ZM673.5 297.5C673.5 303.023 669.023 307.5 663.5 307.5V310.5C670.68 310.5 676.5 304.68 676.5 297.5H673.5ZM663.5 287.5C669.023 287.5 673.5 291.977 673.5 297.5H676.5C676.5 290.32 670.68 284.5 663.5 284.5V287.5ZM583.5 284.5C576.32 284.5 570.5 290.32 570.5 297.5H573.5C573.5 291.977 577.977 287.5 583.5 287.5V284.5Z" fill="#FF5959"/>
<path d="M402.931 137.964C403.09 138.011 403.244 138.062 403.393 138.118C403.552 138.165 403.706 138.216 403.855 138.272V139H399.333V138.3L400.607 137.95L398.185 130.32H398.689L396.197 137.852C396.449 137.908 396.692 137.973 396.925 138.048C397.168 138.113 397.41 138.188 397.653 138.272V139H393.663V138.3L394.629 137.838L397.583 129.634H399.949L402.931 137.964ZM396.057 136.298V135.15H401.349V136.298H396.057ZM407.034 139.154C406.437 139.154 405.91 139.005 405.452 138.706C405.004 138.407 404.654 137.992 404.402 137.46C404.16 136.919 404.038 136.293 404.038 135.584C404.038 134.8 404.178 134.133 404.458 133.582C404.748 133.022 405.149 132.593 405.662 132.294C406.185 131.995 406.796 131.846 407.496 131.846C407.832 131.846 408.168 131.883 408.504 131.958C408.85 132.023 409.181 132.121 409.498 132.252L409.26 133.68C408.467 133.391 407.622 133.246 406.726 133.246C406.549 133.246 406.372 133.265 406.194 133.302C406.026 133.339 405.863 133.4 405.704 133.484L406.558 132.77C406.39 133.19 406.264 133.61 406.18 134.03C406.096 134.441 406.054 134.842 406.054 135.234C406.054 135.747 406.129 136.181 406.278 136.536C406.428 136.891 406.642 137.161 406.922 137.348C407.212 137.535 407.557 137.628 407.958 137.628C408.192 137.628 408.444 137.595 408.714 137.53C408.985 137.455 409.27 137.353 409.568 137.222L409.722 137.572C409.041 138.627 408.145 139.154 407.034 139.154ZM408.714 134.604L407.818 132.252H409.498L409.47 134.604H408.714ZM413.302 130.53V132.056H415.416L415.304 133.12H413.302V137.614L415.416 137.572C415.304 137.908 415.131 138.197 414.898 138.44C414.664 138.673 414.398 138.851 414.1 138.972C413.801 139.093 413.493 139.154 413.176 139.154C412.784 139.154 412.415 139.065 412.07 138.888C411.724 138.711 411.449 138.445 411.244 138.09L411.44 133.12H410.404V132.756C410.777 132.299 411.206 131.883 411.692 131.51C412.186 131.127 412.723 130.801 413.302 130.53ZM416.14 139V138.384C416.243 138.309 416.355 138.239 416.476 138.174C416.597 138.099 416.733 138.034 416.882 137.978L417.022 133.848L416.224 132.658C416.625 132.425 417.05 132.238 417.498 132.098C417.946 131.949 418.417 131.86 418.912 131.832V138.034L419.696 138.328V139H416.14ZM418.254 128.318C418.487 128.533 418.683 128.785 418.842 129.074C419.01 129.354 419.117 129.643 419.164 129.942C418.977 130.175 418.735 130.381 418.436 130.558C418.147 130.726 417.848 130.829 417.54 130.866C417.316 130.679 417.115 130.441 416.938 130.152C416.77 129.853 416.663 129.55 416.616 129.242C416.821 129.018 417.064 128.822 417.344 128.654C417.633 128.486 417.937 128.374 418.254 128.318ZM422.503 139.056L420.081 132.154H422.321L424.085 138.104H423.693L425.527 132.154H426.955L424.981 137.852C424.907 138.095 424.827 138.295 424.743 138.454C424.659 138.603 424.538 138.72 424.379 138.804C424.23 138.888 424.006 138.953 423.707 139C423.418 139.037 423.017 139.056 422.503 139.056ZM421.663 133.428C421.318 133.363 420.982 133.269 420.655 133.148C420.338 133.027 420.03 132.877 419.731 132.7V132.014H423.273V132.7L421.663 133.428ZM426.311 133.428C425.583 133.297 424.893 133.055 424.239 132.7V132.014H427.263V132.7L426.311 133.428ZM427.624 139V138.384C427.727 138.309 427.839 138.239 427.96 138.174C428.082 138.099 428.217 138.034 428.366 137.978L428.506 133.848L427.708 132.658C428.11 132.425 428.534 132.238 428.982 132.098C429.43 131.949 429.902 131.86 430.396 131.832V138.034L431.18 138.328V139H427.624ZM429.738 128.318C429.972 128.533 430.168 128.785 430.326 129.074C430.494 129.354 430.602 129.643 430.648 129.942C430.462 130.175 430.219 130.381 429.92 130.558C429.631 130.726 429.332 130.829 429.024 130.866C428.8 130.679 428.6 130.441 428.422 130.152C428.254 129.853 428.147 129.55 428.1 129.242C428.306 129.018 428.548 128.822 428.828 128.654C429.118 128.486 429.421 128.374 429.738 128.318ZM434.548 130.53V132.056H436.662L436.55 133.12H434.548V137.614L436.662 137.572C436.55 137.908 436.377 138.197 436.144 138.44C435.91 138.673 435.644 138.851 435.346 138.972C435.047 139.093 434.739 139.154 434.422 139.154C434.03 139.154 433.661 139.065 433.316 138.888C432.97 138.711 432.695 138.445 432.49 138.09L432.686 133.12H431.65V132.756C432.023 132.299 432.452 131.883 432.938 131.51C433.432 131.127 433.969 130.801 434.548 130.53ZM436.378 141.548L436.504 140.19L439.36 140.386C439.584 140.097 439.771 139.821 439.92 139.56C440.079 139.308 440.214 139.042 440.326 138.762C440.438 138.482 440.55 138.169 440.662 137.824L442.398 132.154H443.84L441.782 138.202C441.362 139.434 440.844 140.349 440.228 140.946C439.622 141.553 438.894 141.856 438.044 141.856C437.792 141.856 437.526 141.828 437.246 141.772C436.966 141.725 436.677 141.651 436.378 141.548ZM439.332 138.944L436.98 132.154H439.206L441.082 138.58L439.332 138.944ZM438.562 133.428C438.236 133.363 437.904 133.269 437.568 133.148C437.242 133.027 436.924 132.877 436.616 132.7V132.014H440.158V132.7L438.562 133.428ZM443.196 133.428C442.842 133.363 442.487 133.269 442.132 133.148C441.787 133.027 441.456 132.877 441.138 132.7V132.014H444.148V132.7L443.196 133.428ZM444.152 140.386L444.488 137.768L446.336 138.076C446.158 138.496 445.948 138.902 445.706 139.294C445.472 139.695 445.202 140.092 444.894 140.484L444.152 140.386ZM444.726 138.916L444.04 137.474C444.264 137.259 444.502 137.087 444.754 136.956C445.006 136.816 445.276 136.713 445.566 136.648C445.752 136.844 445.911 137.059 446.042 137.292C446.172 137.525 446.27 137.787 446.336 138.076L444.726 138.916ZM371.94 155.912C370.913 155.912 370.111 155.725 369.532 155.352C368.953 154.988 368.65 154.479 368.622 153.826C368.902 153.527 369.219 153.275 369.574 153.07C369.929 152.865 370.321 152.711 370.75 152.608H370.974C370.769 152.813 370.624 152.995 370.54 153.154C370.465 153.313 370.428 153.462 370.428 153.602C370.428 153.929 370.582 154.176 370.89 154.344C371.198 154.521 371.655 154.61 372.262 154.61C372.878 154.61 373.359 154.512 373.704 154.316C374.059 154.12 374.236 153.849 374.236 153.504C374.236 153.392 374.213 153.275 374.166 153.154C374.129 153.033 374.073 152.925 373.998 152.832H370.484C370.148 152.664 369.896 152.459 369.728 152.216C369.569 151.973 369.49 151.74 369.49 151.516C369.49 151.227 369.607 150.951 369.84 150.69C370.073 150.429 370.4 150.233 370.82 150.102L370.806 151.264H374.278C374.614 151.264 374.922 151.353 375.202 151.53C375.482 151.698 375.701 151.931 375.86 152.23C376.028 152.519 376.112 152.846 376.112 153.21C376.112 153.742 375.935 154.209 375.58 154.61C375.235 155.021 374.745 155.338 374.11 155.562C373.485 155.795 372.761 155.912 371.94 155.912ZM372.15 150.536C371.105 150.536 370.325 150.345 369.812 149.962C369.299 149.57 369.042 149.01 369.042 148.282C369.042 147.759 369.163 147.321 369.406 146.966C369.658 146.602 370.031 146.327 370.526 146.14C371.021 145.944 371.632 145.846 372.36 145.846C373.396 145.846 374.175 146.037 374.698 146.42C375.221 146.803 375.482 147.363 375.482 148.1C375.482 148.613 375.351 149.052 375.09 149.416C374.838 149.78 374.465 150.06 373.97 150.256C373.475 150.443 372.869 150.536 372.15 150.536ZM372.234 149.388C372.673 149.388 373.009 149.281 373.242 149.066C373.485 148.842 373.606 148.534 373.606 148.142C373.606 147.769 373.485 147.489 373.242 147.302C373.009 147.106 372.668 147.008 372.22 147.008C372.071 147.008 371.898 147.022 371.702 147.05C371.515 147.069 371.343 147.101 371.184 147.148C371.091 147.353 371.021 147.554 370.974 147.75C370.937 147.937 370.918 148.095 370.918 148.226C370.918 148.599 371.03 148.889 371.254 149.094C371.487 149.29 371.814 149.388 372.234 149.388ZM374.432 146.602C374.245 146.406 374.105 146.201 374.012 145.986C373.928 145.771 373.886 145.58 373.886 145.412C373.886 145.057 374.012 144.777 374.264 144.572C374.525 144.357 374.871 144.25 375.3 144.25C375.459 144.25 375.627 144.269 375.804 144.306C375.991 144.334 376.191 144.39 376.406 144.474L376.252 145.65H374.754L374.628 146.602H374.432ZM381.984 148.03C381.106 147.843 380.248 147.862 379.408 148.086V147.82C379.632 147.456 379.865 147.125 380.108 146.826C380.36 146.527 380.63 146.243 380.92 145.972C381.134 145.953 381.34 145.967 381.536 146.014C381.741 146.051 381.928 146.121 382.096 146.224L381.984 148.03ZM376.79 153V152.384C376.902 152.3 377.014 152.225 377.126 152.16C377.238 152.095 377.373 152.034 377.532 151.978L377.672 147.848L376.874 146.658C377.667 146.201 378.502 145.925 379.38 145.832L379.562 147.806V151.964L381.032 152.328V153H376.79ZM385.863 153.168C385.181 153.168 384.598 153.023 384.113 152.734C383.627 152.445 383.254 152.034 382.993 151.502C382.741 150.97 382.615 150.335 382.615 149.598C382.615 148.823 382.75 148.156 383.021 147.596C383.301 147.036 383.697 146.607 384.211 146.308C384.724 146 385.331 145.846 386.031 145.846C386.721 145.846 387.314 145.991 387.809 146.28C388.313 146.56 388.695 146.961 388.957 147.484C389.227 148.007 389.363 148.627 389.363 149.346C389.363 150.139 389.223 150.821 388.943 151.39C388.663 151.959 388.261 152.398 387.739 152.706C387.216 153.014 386.591 153.168 385.863 153.168ZM385.975 151.95C386.264 151.95 386.507 151.866 386.703 151.698C386.908 151.521 387.062 151.25 387.165 150.886C387.277 150.522 387.333 150.06 387.333 149.5C387.333 148.959 387.277 148.515 387.165 148.17C387.062 147.825 386.903 147.568 386.689 147.4C386.483 147.223 386.222 147.134 385.905 147.134C385.69 147.134 385.433 147.176 385.135 147.26C384.836 147.344 384.458 147.475 384.001 147.652L385.177 146.854C384.999 147.265 384.864 147.685 384.771 148.114C384.677 148.534 384.631 149.005 384.631 149.528C384.631 150.088 384.682 150.545 384.785 150.9C384.897 151.255 385.051 151.521 385.247 151.698C385.452 151.866 385.695 151.95 385.975 151.95ZM397.06 151.656L398.264 151.502C398.246 151.857 398.162 152.155 398.012 152.398C397.872 152.641 397.69 152.823 397.466 152.944C397.242 153.065 397.009 153.126 396.766 153.126C396.505 153.126 396.248 153.061 395.996 152.93C395.744 152.79 395.534 152.585 395.366 152.314C395.198 152.043 395.091 151.707 395.044 151.306L395.156 147.848L394.372 146.658C395.24 146.163 396.136 145.888 397.06 145.832V151.656ZM393.658 153.112C393.565 153.121 393.476 153.131 393.392 153.14C393.308 153.149 393.229 153.154 393.154 153.154C392.65 153.154 392.202 153.047 391.81 152.832C391.428 152.608 391.092 152.277 390.802 151.838L392.426 150.83C392.902 151.231 393.411 151.432 393.952 151.432C394.363 151.432 394.774 151.292 395.184 151.012L395.24 151.306C395.016 151.679 394.769 152.015 394.498 152.314C394.237 152.603 393.957 152.869 393.658 153.112ZM390.802 151.838L390.942 147.848L390.13 146.658C391.054 146.163 391.95 145.888 392.818 145.832V151.642L390.802 151.838ZM402.259 153.154C401.904 153.154 401.522 153.117 401.111 153.042C400.7 152.967 400.266 152.855 399.809 152.706L400.117 151.222C400.612 151.418 401.036 151.563 401.391 151.656C401.755 151.749 402.068 151.796 402.329 151.796C402.889 151.796 403.304 151.619 403.575 151.264C403.846 150.9 403.981 150.373 403.981 149.682C403.981 149.299 403.939 148.926 403.855 148.562C403.78 148.198 403.659 147.862 403.491 147.554L404.289 148.268C403.729 147.811 403.15 147.582 402.553 147.582C402.152 147.582 401.746 147.713 401.335 147.974L401.321 147.61C401.545 147.274 401.778 146.971 402.021 146.7C402.264 146.42 402.525 146.149 402.805 145.888C402.861 145.879 402.917 145.874 402.973 145.874C403.029 145.865 403.085 145.86 403.141 145.86C403.71 145.86 404.205 146.009 404.625 146.308C405.045 146.597 405.372 147.003 405.605 147.526C405.838 148.049 405.955 148.655 405.955 149.346C405.955 150.149 405.801 150.835 405.493 151.404C405.194 151.973 404.77 152.407 404.219 152.706C403.668 153.005 403.015 153.154 402.259 153.154ZM398.703 155.73V155.114C398.806 155.049 398.913 154.979 399.025 154.904C399.137 154.839 399.272 154.773 399.431 154.708L399.571 147.848L398.773 146.658C399.193 146.434 399.608 146.252 400.019 146.112C400.43 145.972 400.854 145.879 401.293 145.832L401.461 147.652V154.764L402.385 155.058V155.73H398.703ZM412.359 153.168C411.677 153.168 411.094 153.023 410.609 152.734C410.123 152.445 409.75 152.034 409.489 151.502C409.237 150.97 409.111 150.335 409.111 149.598C409.111 148.823 409.246 148.156 409.517 147.596C409.797 147.036 410.193 146.607 410.707 146.308C411.22 146 411.827 145.846 412.527 145.846C413.217 145.846 413.81 145.991 414.305 146.28C414.809 146.56 415.191 146.961 415.453 147.484C415.723 148.007 415.859 148.627 415.859 149.346C415.859 150.139 415.719 150.821 415.439 151.39C415.159 151.959 414.757 152.398 414.235 152.706C413.712 153.014 413.087 153.168 412.359 153.168ZM412.471 151.95C412.76 151.95 413.003 151.866 413.199 151.698C413.404 151.521 413.558 151.25 413.661 150.886C413.773 150.522 413.829 150.06 413.829 149.5C413.829 148.959 413.773 148.515 413.661 148.17C413.558 147.825 413.399 147.568 413.185 147.4C412.979 147.223 412.718 147.134 412.401 147.134C412.186 147.134 411.929 147.176 411.631 147.26C411.332 147.344 410.954 147.475 410.497 147.652L411.673 146.854C411.495 147.265 411.36 147.685 411.267 148.114C411.173 148.534 411.127 149.005 411.127 149.528C411.127 150.088 411.178 150.545 411.281 150.9C411.393 151.255 411.547 151.521 411.743 151.698C411.948 151.866 412.191 151.95 412.471 151.95ZM421.892 148.03C421.015 147.843 420.156 147.862 419.316 148.086V147.82C419.54 147.456 419.773 147.125 420.016 146.826C420.268 146.527 420.539 146.243 420.828 145.972C421.043 145.953 421.248 145.967 421.444 146.014C421.649 146.051 421.836 146.121 422.004 146.224L421.892 148.03ZM416.698 153V152.384C416.81 152.3 416.922 152.225 417.034 152.16C417.146 152.095 417.281 152.034 417.44 151.978L417.58 147.848L416.782 146.658C417.575 146.201 418.411 145.925 419.288 145.832L419.47 147.806V151.964L420.94 152.328V153H416.698ZM428.304 153.154C427.949 153.154 427.566 153.117 427.156 153.042C426.745 152.967 426.311 152.855 425.854 152.706L426.162 151.222C426.656 151.418 427.081 151.563 427.436 151.656C427.8 151.749 428.112 151.796 428.374 151.796C428.934 151.796 429.349 151.619 429.62 151.264C429.89 150.9 430.026 150.373 430.026 149.682C430.026 149.299 429.984 148.926 429.9 148.562C429.825 148.198 429.704 147.862 429.536 147.554L430.334 148.268C429.774 147.811 429.195 147.582 428.598 147.582C428.196 147.582 427.79 147.713 427.38 147.974L427.366 147.61C427.59 147.274 427.823 146.971 428.066 146.7C428.308 146.42 428.57 146.149 428.85 145.888C428.906 145.879 428.962 145.874 429.018 145.874C429.074 145.865 429.13 145.86 429.186 145.86C429.755 145.86 430.25 146.009 430.67 146.308C431.09 146.597 431.416 147.003 431.65 147.526C431.883 148.049 432 148.655 432 149.346C432 150.149 431.846 150.835 431.538 151.404C431.239 151.973 430.814 152.407 430.264 152.706C429.713 153.005 429.06 153.154 428.304 153.154ZM424.748 155.73V155.114C424.85 155.049 424.958 154.979 425.07 154.904C425.182 154.839 425.317 154.773 425.476 154.708L425.616 147.848L424.818 146.658C425.238 146.434 425.653 146.252 426.064 146.112C426.474 145.972 426.899 145.879 427.338 145.832L427.506 147.652V154.764L428.43 155.058V155.73H424.748ZM438.038 148.03C437.161 147.843 436.302 147.862 435.462 148.086V147.82C435.686 147.456 435.92 147.125 436.162 146.826C436.414 146.527 436.685 146.243 436.974 145.972C437.189 145.953 437.394 145.967 437.59 146.014C437.796 146.051 437.982 146.121 438.15 146.224L438.038 148.03ZM432.844 153V152.384C432.956 152.3 433.068 152.225 433.18 152.16C433.292 152.095 433.428 152.034 433.586 151.978L433.726 147.848L432.928 146.658C433.722 146.201 434.557 145.925 435.434 145.832L435.616 147.806V151.964L437.086 152.328V153H432.844ZM441.917 153.168C441.236 153.168 440.653 153.023 440.167 152.734C439.682 152.445 439.309 152.034 439.047 151.502C438.795 150.97 438.669 150.335 438.669 149.598C438.669 148.823 438.805 148.156 439.075 147.596C439.355 147.036 439.752 146.607 440.265 146.308C440.779 146 441.385 145.846 442.085 145.846C442.776 145.846 443.369 145.991 443.863 146.28C444.367 146.56 444.75 146.961 445.011 147.484C445.282 148.007 445.417 148.627 445.417 149.346C445.417 150.139 445.277 150.821 444.997 151.39C444.717 151.959 444.316 152.398 443.793 152.706C443.271 153.014 442.645 153.168 441.917 153.168ZM442.029 151.95C442.319 151.95 442.561 151.866 442.757 151.698C442.963 151.521 443.117 151.25 443.219 150.886C443.331 150.522 443.387 150.06 443.387 149.5C443.387 148.959 443.331 148.515 443.219 148.17C443.117 147.825 442.958 147.568 442.743 147.4C442.538 147.223 442.277 147.134 441.959 147.134C441.745 147.134 441.488 147.176 441.189 147.26C440.891 147.344 440.513 147.475 440.055 147.652L441.231 146.854C441.054 147.265 440.919 147.685 440.825 148.114C440.732 148.534 440.685 149.005 440.685 149.528C440.685 150.088 440.737 150.545 440.839 150.9C440.951 151.255 441.105 151.521 441.301 151.698C441.507 151.866 441.749 151.95 442.029 151.95ZM449.153 153.14C448.593 153.14 448.103 152.995 447.683 152.706C447.263 152.417 446.936 152.015 446.703 151.502C446.47 150.979 446.353 150.368 446.353 149.668C446.353 148.455 446.684 147.517 447.347 146.854C448.019 146.182 448.924 145.846 450.063 145.846C450.399 145.846 450.754 145.879 451.127 145.944C451.5 146 451.888 146.093 452.289 146.224L452.037 147.918C451.169 147.423 450.31 147.176 449.461 147.176C449.209 147.176 448.966 147.204 448.733 147.26C448.5 147.316 448.271 147.391 448.047 147.484L448.845 146.994C448.668 147.33 448.537 147.713 448.453 148.142C448.369 148.571 448.327 149.01 448.327 149.458C448.327 149.906 448.378 150.275 448.481 150.564C448.584 150.853 448.738 151.073 448.943 151.222C449.148 151.362 449.396 151.432 449.685 151.432C449.872 151.432 450.068 151.399 450.273 151.334C450.488 151.269 450.707 151.166 450.931 151.026V151.39C450.735 151.707 450.511 152.015 450.259 152.314C450.016 152.603 449.75 152.869 449.461 153.112C449.405 153.121 449.349 153.126 449.293 153.126C449.246 153.135 449.2 153.14 449.153 153.14ZM452.513 153.126C452.242 153.126 451.981 153.061 451.729 152.93C451.486 152.79 451.281 152.585 451.113 152.314C450.945 152.043 450.842 151.707 450.805 151.306L450.945 144.46L450.133 143.144C450.534 142.92 450.954 142.738 451.393 142.598C451.832 142.458 452.303 142.369 452.807 142.332V151.656L454.011 151.502C453.992 151.857 453.908 152.155 453.759 152.398C453.619 152.641 453.437 152.823 453.213 152.944C452.989 153.065 452.756 153.126 452.513 153.126ZM451.645 142.248L451.631 142.234H451.645V142.248ZM461.359 151.656L462.563 151.502C462.544 151.857 462.46 152.155 462.311 152.398C462.171 152.641 461.989 152.823 461.765 152.944C461.541 153.065 461.308 153.126 461.065 153.126C460.804 153.126 460.547 153.061 460.295 152.93C460.043 152.79 459.833 152.585 459.665 152.314C459.497 152.043 459.39 151.707 459.343 151.306L459.455 147.848L458.671 146.658C459.539 146.163 460.435 145.888 461.359 145.832V151.656ZM457.957 153.112C457.864 153.121 457.775 153.131 457.691 153.14C457.607 153.149 457.528 153.154 457.453 153.154C456.949 153.154 456.501 153.047 456.109 152.832C455.726 152.608 455.39 152.277 455.101 151.838L456.725 150.83C457.201 151.231 457.71 151.432 458.251 151.432C458.662 151.432 459.072 151.292 459.483 151.012L459.539 151.306C459.315 151.679 459.068 152.015 458.797 152.314C458.536 152.603 458.256 152.869 457.957 153.112ZM455.101 151.838L455.241 147.848L454.429 146.658C455.353 146.163 456.249 145.888 457.117 145.832V151.642L455.101 151.838ZM466.042 153.154C465.445 153.154 464.917 153.005 464.46 152.706C464.012 152.407 463.662 151.992 463.41 151.46C463.167 150.919 463.046 150.293 463.046 149.584C463.046 148.8 463.186 148.133 463.466 147.582C463.755 147.022 464.157 146.593 464.67 146.294C465.193 145.995 465.804 145.846 466.504 145.846C466.84 145.846 467.176 145.883 467.512 145.958C467.857 146.023 468.189 146.121 468.506 146.252L468.268 147.68C467.475 147.391 466.63 147.246 465.734 147.246C465.557 147.246 465.379 147.265 465.202 147.302C465.034 147.339 464.871 147.4 464.712 147.484L465.566 146.77C465.398 147.19 465.272 147.61 465.188 148.03C465.104 148.441 465.062 148.842 465.062 149.234C465.062 149.747 465.137 150.181 465.286 150.536C465.435 150.891 465.65 151.161 465.93 151.348C466.219 151.535 466.565 151.628 466.966 151.628C467.199 151.628 467.451 151.595 467.722 151.53C467.993 151.455 468.277 151.353 468.576 151.222L468.73 151.572C468.049 152.627 467.153 153.154 466.042 153.154ZM467.722 148.604L466.826 146.252H468.506L468.478 148.604H467.722ZM472.31 144.53V146.056H474.424L474.312 147.12H472.31V151.614L474.424 151.572C474.312 151.908 474.139 152.197 473.906 152.44C473.672 152.673 473.406 152.851 473.108 152.972C472.809 153.093 472.501 153.154 472.184 153.154C471.792 153.154 471.423 153.065 471.078 152.888C470.732 152.711 470.457 152.445 470.252 152.09L470.448 147.12H469.412V146.756C469.785 146.299 470.214 145.883 470.7 145.51C471.194 145.127 471.731 144.801 472.31 144.53Z" fill="#FFE48C"/>
</svg>
