<svg id="Layer_1" data-name="Layer 1" xmlns="http://www.w3.org/2000/svg" viewBox="0 0 250 250"><defs><style>.cls-1{fill:#e4485b;}</style></defs><path class="cls-1" d="M211.9,180.4c-8.69.23-13.07-9-15.7-15.91a101.8,101.8,0,0,1-6.33-27,2.54,2.54,0,0,0-3.16-2.41c-18.75,4.61-37.17,10.47-55.92,15.08a2.51,2.51,0,0,0-1.83,2.41,329.43,329.43,0,0,0,6.32,35.55q1,4.38,2.19,8.71c.65,2.44,1.18,5.16,2.63,7.27a9.6,9.6,0,0,0,6.64,3.82c6.36,1,13.06-.73,19.13-2.54a137.72,137.72,0,0,0,14.37-5.23c5.26-2.24,10.5-4.51,15.75-6.76,6.14-2.64,12.33-5.19,18.28-8.24,2.86-1.48.33-5.79-2.53-4.32-10.12,5.21-20.84,9.34-31.3,13.83L178,195.68l.17-.07-.5.21-2.35,1q-3.72,1.47-7.51,2.73c-3,1-6,1.85-9,2.54a35.66,35.66,0,0,1-8.48,1.13c-.62,0-1.24,0-1.86-.08-.18,0-.94-.12-.37,0-.32-.05-.65-.11-1-.18s-.55-.14-.82-.23-1-.39-.32-.09c-.21-.1-.42-.2-.62-.31s-.86-.61-.32-.16l-.48-.44c-.08-.07-.14-.16-.22-.23-.37-.37.22.34.05.05a12.56,12.56,0,0,1-1.21-2.82c-.79-2.69-1.46-5.41-2.14-8.12a316.44,316.44,0,0,1-7.06-38l-1.84,2.41c18.75-4.6,37.17-10.47,55.92-15.08l-3.17-2.41a107.22,107.22,0,0,0,4.87,23.78c2.31,7,5.09,15,10.91,19.88a17,17,0,0,0,11.25,4.29c3.21-.08,3.23-5.08,0-5Z"/><path class="cls-1" d="M123.94,166.13c-4.42-8.38-7.52-17.74-4.44-27.11,2.16-6.59,8.68-14.76,16.58-12.61,3.45.94,6.62,3.8,6.59,7.54,0,3.21,5,3.22,5,0a12.76,12.76,0,0,0-7.13-11.11,15.27,15.27,0,0,0-14,0c-9.71,4.74-14.23,17-13.15,27.24.69,6.58,3.2,12.71,6.26,18.52,1.5,2.85,5.82.33,4.32-2.52Z"/><path class="cls-1" d="M117.72,94.66c-3.8,3.51-6.93,8.53-6.51,13.9.4,5.07,3.62,10,8.91,10.91,10.51,1.84,20.36-10.45,16.57-20.36-2-5.15-8.08-8.92-13.51-6.8a2.58,2.58,0,0,0-1.75,3.08,2.51,2.51,0,0,0,3.08,1.74,4.87,4.87,0,0,1,3.8,0,6.54,6.54,0,0,1,3.39,3c1.66,3,.5,7.28-1.55,10.12a10.39,10.39,0,0,1-8.22,4.43,5.56,5.56,0,0,1-3.76-1.65,7.48,7.48,0,0,1-1.94-4.22c-.57-3.94,2.08-7.88,5-10.6,2.37-2.19-1.17-5.71-3.54-3.54Z"/><path class="cls-1" d="M166,132.69c2.73-7.4,8.51-14.9,16.86-15.93a14.33,14.33,0,0,1,10.31,2.48c3.23,2.46,4.56,6.48,5.19,10.34a58.53,58.53,0,0,1,.57,7.24c.06,1.55.11,3.09.17,4.64l.09,2.47a4.49,4.49,0,0,0,0,1c.2.6-.47.2.51-.29l1.27-.34.85.38.64,1.11-.06-.22v1.33l.06-.23c.85-3.1-4-4.43-4.82-1.33a3.11,3.11,0,0,0,2.4,3.89,3.41,3.41,0,0,0,4-2.67,17.2,17.2,0,0,0,0-4.59c-.07-1.77-.13-3.55-.2-5.32-.21-5.64-.61-11.66-3.57-16.63-5.89-9.91-19.68-10.48-28.32-4a33,33,0,0,0-10.85,15.36,2.52,2.52,0,0,0,1.74,3.08,2.56,2.56,0,0,0,3.08-1.75Z"/><path class="cls-1" d="M187.45,84.1a12.52,12.52,0,0,0-5.28,12.06,12.23,12.23,0,0,0,8.38,9.56,9.94,9.94,0,0,0,7.52-.32c2.25-1.18,3.71-3.66,4.62-6a12.54,12.54,0,0,0-1.92-12.92c-3.2-3.56-8.93-4.77-13.09-2.23a2.5,2.5,0,0,0,2.52,4.32l.49-.28c.12-.07.57-.23.12-.07.32-.11.64-.19,1-.28.14,0,.62-.07.1,0l.45,0a10.29,10.29,0,0,1,1.11,0c-.51,0,0,0,.12,0l.55.13.44.13s.67.25.34.12.35.17.32.15l.41.22L196,89l.38.25c-.17-.13-.19-.15-.06,0a8.4,8.4,0,0,1,.76.7l.3.34c.47.53-.14-.23.09.13a5.47,5.47,0,0,1,.92,1.94,7.61,7.61,0,0,1,.25,1.15c0-.37,0,.07,0,.12l0,.66c0,.4,0,.79,0,1.19-.07.84,0-.22,0,.26-.05.26-.1.52-.17.78a9.42,9.42,0,0,1-.73,2q-.26.48-.54.93a5.51,5.51,0,0,1-.67.91,2.37,2.37,0,0,1-1.78.94s-.57,0-.76,0-.42,0-.63,0-.17,0,0,0l-.49-.09a7.71,7.71,0,0,1-1-.27c.06,0-.71-.27-.41-.14s-.45-.22-.39-.19a7.92,7.92,0,0,1-1.77-1.19A6.52,6.52,0,0,1,187.22,96c0-.16-.08-.32-.11-.48s-.09-.79-.05-.31a8.8,8.8,0,0,1,0-1.36c0-.2,0-.41.05-.61-.06.44,0-.22.07-.31a8.06,8.06,0,0,1,.33-1.19s.27-.7.14-.4.2-.39.25-.48a9.59,9.59,0,0,1,.71-1.15c-.06.09-.26.29.07-.08.16-.18.32-.37.5-.54a6.14,6.14,0,0,1,.45-.43,3.11,3.11,0,0,1,.28-.23c-.18.14-.15.12.09,0a2.56,2.56,0,0,0,.9-3.42,2.52,2.52,0,0,0-3.42-.9Z"/><path class="cls-1" d="M106.82,127c-6.29,9.41-14.66,17-25.41,21h1.33c-.18-.07-.37-.14-.85-.37s-.78-.38-1.16-.59c-1-.5-1.88-1-2.79-1.62a64,64,0,0,1-5.34-3.75,50.55,50.55,0,0,1-9-9C57.1,124.15,50.42,115.71,45.86,106,41.22,96,38,84.35,40.13,73.37,42,63.57,48.24,54.55,58.29,52a18.63,18.63,0,0,1,14.34,2.11c3.94,2.34,7.7,6.28,8.16,11A2.52,2.52,0,0,0,83,67.58a2.46,2.46,0,0,0,2.74-1.79A13.61,13.61,0,0,1,94,54.94c5.32-2.29,11.78-4.27,17.61-3.18a32.2,32.2,0,0,1,7.78,2.53,16.68,16.68,0,0,1,5.77,3.93c2.42,2.83,2.93,6.9,2.71,10.73a31.86,31.86,0,0,1-1.14,6.64c-.28,1.06-.6,2.12-1,3.16-.16.48-.34,1-.52,1.43l-.22.57-.19.46a2.58,2.58,0,0,0,.9,3.42,2.51,2.51,0,0,0,3.42-.89,46.22,46.22,0,0,0,3.6-13.44c.49-4.81-.08-10.16-3-14.19-3.46-4.86-9.7-7.45-15.32-8.84-7-1.71-14.19-.18-20.73,2.41C90.43,51,87.33,52.57,85,55.39a18.93,18.93,0,0,0-4.11,9.07l4.91.67c-.64-6.62-5-12-10.63-15.37A23.82,23.82,0,0,0,56,47.41C41.66,51.74,34.37,66.53,34.5,80.77c.13,15.25,7,30,15.65,42.21,2.05,2.91,4.21,5.74,6.38,8.56,2,2.62,3.93,5.41,6.17,7.85a61.31,61.31,0,0,0,14.14,11.15,30.88,30.88,0,0,0,3.39,1.73,3.63,3.63,0,0,0,2.69.42,20.93,20.93,0,0,0,2.38-.93,52.07,52.07,0,0,0,8.89-4.69,58.9,58.9,0,0,0,14-13.42q1.55-2,3-4.14c1.79-2.68-2.54-5.19-4.32-2.52Z"/></svg>