<svg id="Layer_1" data-name="Layer 1" xmlns="http://www.w3.org/2000/svg" viewBox="0 0 250 250"><defs><style>.cls-1{fill:#e4485b;}</style></defs><path class="cls-1" d="M39.09,164.32a192.62,192.62,0,0,1,19.36,12.9c5.44,4.13,10.8,8.69,14,14.85,1.34,2.58,5.21.76,4.57-1.93l-.38-1.6c-.74-3.13-5.56-1.81-4.82,1.33l.38,1.6,4.57-1.93c-3.46-6.65-9.19-11.59-15.05-16.07A189.76,189.76,0,0,0,41.61,160c-2.78-1.63-5.3,2.69-2.52,4.31Z"/><path class="cls-1" d="M42.58,163.76A241.33,241.33,0,0,1,88,136.41q6.81-3.14,13.81-5.81a2.61,2.61,0,0,0,1.83-2.42,2.5,2.5,0,0,0-1.83-2.41L81,122.53l.59,4.56,53.26-25.68,15.22-7.33a2.55,2.55,0,0,0,1.15-2.83,2.59,2.59,0,0,0-2.41-1.83A73.32,73.32,0,0,1,128.91,85v4.82l54.41-10.41-3.08-3.07A88.29,88.29,0,0,0,181.46,110l3.67-2.82L170.4,97.28a2.45,2.45,0,0,0-2.53,0l-36.3,28a2.54,2.54,0,0,0,.6,4.57l10.4,4.1-1.1-4.18c-18.19,15.13-35.29,31.51-53.31,46.82C83.14,180.82,78,185,72.83,189a2.5,2.5,0,0,0,0,3.53,2.56,2.56,0,0,0,3.54,0c18.7-14.49,35.91-30.77,53.64-46.41,4.94-4.36,9.92-8.68,15-12.9,1.6-1.32.47-3.56-1.1-4.17L133.5,125l.59,4.57,36.31-28h-2.53l14.74,9.93c1.9,1.29,4.14-.83,3.67-2.82a81.9,81.9,0,0,1-1.22-31A2.54,2.54,0,0,0,182,74.63L127.58,85a2.52,2.52,0,0,0-1.83,2.41,2.59,2.59,0,0,0,1.83,2.41,77.88,77.88,0,0,0,21.22,4.56l-1.27-4.66L94.28,115.44l-15.22,7.34c-1.84.88-1.51,4.24.6,4.57l20.85,3.25v-4.83a244.24,244.24,0,0,0-48.1,24.84q-6.31,4.21-12.35,8.83a2.58,2.58,0,0,0-.9,3.42,2.52,2.52,0,0,0,3.42.9Z"/><path class="cls-1" d="M55.16,107.14c-2.88-3.23-7.9-4.09-12-4.42-4.28-.35-8.91,0-12.86,1.75a2.5,2.5,0,0,0,2.53,4.31c.56-.25-.51.15.11,0l.58-.2a10.34,10.34,0,0,1,1.05-.3c.46-.12.92-.21,1.38-.29l.61-.1c.26,0-.23,0,.22,0a31.88,31.88,0,0,1,6.1-.12,21.71,21.71,0,0,1,5.33,1l.58.2s.74.3.28.1a11,11,0,0,1,1.09.54c.16.09,1.06.71.61.36a6.2,6.2,0,0,1,.83.79,2.5,2.5,0,0,0,3.54-3.54Z"/><path class="cls-1" d="M87,87.05c-3.24-8.72-.21-19.37,7.52-24.73a2.57,2.57,0,0,0,.9-3.42A2.52,2.52,0,0,0,92,58c-9.48,6.56-13.87,19.47-9.82,30.38a2.56,2.56,0,0,0,3.07,1.74A2.52,2.52,0,0,0,87,87.05Z"/><path class="cls-1" d="M203.13,104.63c.68,0,1.36.08,2,.14h.09l.51.07,1,.19a25.92,25.92,0,0,1,3.69,1,19.77,19.77,0,0,1,3.11,1.46c.59.34,1.18.69,1.74,1.08l.83.59c.24.18.28.2.11.07l.4.32a2.5,2.5,0,1,0,3.53-3.53,28.34,28.34,0,0,0-17.05-6.45,2.52,2.52,0,0,0-2.5,2.5,2.55,2.55,0,0,0,2.5,2.5Z"/><path class="cls-1" d="M179.34,160.68a31.64,31.64,0,0,0,16.13,4.5,2.5,2.5,0,0,0,0-5c-.65,0-1.3,0-1.95-.07l-.91-.08c-.09,0-1-.13-.63-.07a30.84,30.84,0,0,1-3.56-.75c-.59-.17-1.17-.35-1.74-.55l-1-.36-.37-.15a28.44,28.44,0,0,1-3.47-1.79,2.5,2.5,0,0,0-2.52,4.32Z"/><path class="cls-1" d="M136.65,186l.4,6.45a2.63,2.63,0,0,0,.73,1.76,2.47,2.47,0,0,0,3.53,0,2.45,2.45,0,0,0,.74-1.76l-.4-6.45a2.64,2.64,0,0,0-.73-1.77,2.57,2.57,0,0,0-1.77-.73,2.49,2.49,0,0,0-2.5,2.5Z"/></svg>