<svg id="Layer_1" data-name="Layer 1" xmlns="http://www.w3.org/2000/svg" viewBox="0 0 250 250"><defs><style>.cls-1{fill:#e4485b;}</style></defs><path class="cls-1" d="M147.74,105.24c-5.82-6.74-16-7.87-23.88-4.38a18.29,18.29,0,0,0-9.21,9.09,37.16,37.16,0,0,0-2.54,8.52c-.51,2.61-1.27,5.7.23,8.14,3.36,5.49,11.14,1.47,14.94-1.26,4.61-3.31,8.59-7.34,13.33-10.49a162.54,162.54,0,0,1,15.8-8.93l16.21-8.34,34-17.49c2.87-1.47.34-5.79-2.52-4.32L176,90.21c-9.6,4.94-19.3,9.74-28.79,14.89A101.81,101.81,0,0,0,133,114.23c-3.83,3-7.23,6.68-11.62,8.89-.91.46-3.81,2-4.75,1-.44-.47-.13-1.84,0-2.4.23-1.34.49-2.69.79-4,.95-4.17,2.54-8.3,5.93-10.73,6.28-4.52,15.75-4.12,20.9,1.84a2.53,2.53,0,0,0,3.54,0,2.55,2.55,0,0,0,0-3.53Z"/><path class="cls-1" d="M181.82,56.15Q161.12,86.4,142,117.73q-4.67,7.67-9.23,15.39c-1.43,2.42-2.93,5-3,7.93a8.7,8.7,0,0,0,3.59,7c3.65,2.7,8.63,1.8,12.49.11a29.63,29.63,0,0,0,11-8.92c3.46-4.42,5.42-9.86,4.07-15.47a16.43,16.43,0,0,0-11.19-11.65c-3.09-.94-4.41,3.89-1.33,4.82a11.32,11.32,0,0,1,7.6,7.78c1.06,3.92-.32,7.69-2.62,10.88a25.77,25.77,0,0,1-9.26,7.9,12.08,12.08,0,0,1-4.76,1.26,4.28,4.28,0,0,1-3.6-1.24c-1.34-1.5-1.05-3.35-.23-5.08,1.14-2.4,2.65-4.66,4-7q4.23-7.08,8.54-14.13,8.56-14,17.45-27.74Q175.65,74,186.14,58.67a2.5,2.5,0,0,0-4.32-2.52Z"/><path class="cls-1" d="M59.26,82.43l11.43,53.11,3.25,15.1c.67,3.14,5.5,1.81,4.82-1.33L67.33,96.21,64.08,81.1c-.67-3.14-5.49-1.81-4.82,1.33Z"/><path class="cls-1" d="M75,78.24l9.17,52.88A2.5,2.5,0,1,0,89,129.8L79.82,76.91a2.52,2.52,0,0,0-3.07-1.75A2.56,2.56,0,0,0,75,78.24Z"/><path class="cls-1" d="M52.62,112.44a150.79,150.79,0,0,0,47-10.52,2.58,2.58,0,0,0,1.75-3.07,2.55,2.55,0,0,0-3.08-1.75c-1.56.35-2-3-2.13-3.9-.43-2.65-.79-5.31-1.18-8-.75-5-1.37-10-2.27-15-.79-4.35-2.18-8.73-5.25-12s-7.67-5.07-12.14-5.69c-9.13-1.26-18.69,1.93-24.41,9.34a22.87,22.87,0,0,0-4.77,12C45.7,79,47.3,84.15,48.64,89.07L51,97.77c.7,2.57,1.78,5.32,1.77,8a6,6,0,0,1,0,.85c-.07.42-.49.92.23.23s.33-.31,0-.25a3,3,0,0,0-1,.44,3.12,3.12,0,0,0-1.28,4.06c1.7,3.17,6.76.69,5-2.64-1.52-2.85-5.83-.32-4.32,2.52l.07.13V108.6l0,.11.9-.9.78-.23,1.26.34-.14-.07.9.89-.07-.15.34,1.26,0-.25L55,110.86c-.16.24-1,.54-.34.46a3.32,3.32,0,0,0,.58-.22,3.69,3.69,0,0,0,1.25-.81,5.89,5.89,0,0,0,1.24-3.66,19.58,19.58,0,0,0-.95-6.66c-1.27-4.71-2.56-9.41-3.83-14.11-1.12-4.13-2.4-8.51-1.69-12.83A18.32,18.32,0,0,1,56,63.53c5.32-5.67,13.8-7.58,21.21-5.59a12.87,12.87,0,0,1,8.61,6.58c1.72,3.38,2.17,7.36,2.72,11.06L91,91.94c.37,2.49.57,5.19,2.08,7.31a6.32,6.32,0,0,0,6.59,2.67L98.31,97.1a146.54,146.54,0,0,1-45.69,10.34c-3.2.2-3.22,5.2,0,5Z"/><path class="cls-1" d="M55.07,150c-.07,0,0,.71,0,.83,0,1.07,0,2.14,0,3.2l0,6.62L55,173.85c0,3.31-.39,7.22,1.66,10.07,2.6,3.6,7,2.57,10.78,2.19q13.23-1.32,26.54-1.86,6.64-.27,13.3-.35c2,0,4.5.27,6.09-1.32s1.33-3.85,1.37-5.83q.28-15.19-.73-30.37a2.55,2.55,0,0,0-2.5-2.5,2.53,2.53,0,0,0-2.5,2.5q.83,12.56.79,25.14,0,3.24-.08,6.48a5.12,5.12,0,0,0,0,1.16c.05,0,.28-.22.24-.28-.15-.24-2.53,0-2.89,0q-6.28.08-12.56.32-12.44.5-24.83,1.66l-6.08.62a5.2,5.2,0,0,1-2.29,0,1.23,1.23,0,0,1-.7-.73,7.73,7.73,0,0,1-.59-3.32c0-1.93,0-3.87,0-5.8l.1-14c0-2.29.11-4.59,0-6.88a5.93,5.93,0,0,0-2.5-5.14c-2.69-1.78-5.2,2.55-2.52,4.31Z"/><path class="cls-1" d="M78.69,185.25l.25,8.31a18.54,18.54,0,0,0,.26,4.15,4,4,0,0,0,3.74,2.95,10.61,10.61,0,0,0,3.68-.72l3.91-1.15c1.34-.4,3-.66,4-1.74s1.12-2.69,1.11-4.21c0-3.17-.09-6.35-.2-9.52a2.5,2.5,0,0,0-5,0c.1,3,.17,6,.19,8.94,0,.39,0,.77,0,1.16v.5c0,.29,0,.28,0,0-.07.28-.06.27,0,0a.91.91,0,0,1,.65-.53,3.45,3.45,0,0,0-1,.29l-4,1.19-2.16.64-.75.21c-.65.14.26,0-.23,0-.3,0-.26,0,.09,0a1.08,1.08,0,0,1,.47.31,1.38,1.38,0,0,1,.23.36c0,.29,0,.29,0,0,0-.75,0-1.49-.07-2.24l-.26-8.88a2.5,2.5,0,0,0-5,0Z"/><path class="cls-1" d="M69,197.75a7.93,7.93,0,0,0-5.3-2.08,8,8,0,0,0-5.33,2,2.51,2.51,0,0,0,0,3.54,2.51,2.51,0,0,0,1.77.73,2.8,2.8,0,0,0,1.77-.73l.22-.19-.5.39a5.19,5.19,0,0,1,1.09-.64l-.6.26a5.92,5.92,0,0,1,1.41-.39l-.66.09a5.9,5.9,0,0,1,1.57,0l-.67-.09a5.67,5.67,0,0,1,1.41.39l-.6-.25a5.19,5.19,0,0,1,1.09.64l-.5-.39.3.25A2.5,2.5,0,0,0,69,197.75Z"/><path class="cls-1" d="M108.22,196.55a9,9,0,0,1,1-1c.06-.06.42-.35.1-.09s0,0,0,0l.58-.37.6-.32c.08,0,.29-.09.35-.17,0,.07-.52.21-.18.08a10.67,10.67,0,0,1,1.39-.43l.67-.13c.36-.06-.13,0-.21,0a1.69,1.69,0,0,0,.38,0,10.44,10.44,0,0,1,1.37,0l.3,0c.32,0-.58-.1-.13,0,.22,0,.44.08.67.14a9.54,9.54,0,0,1,1.37.45l-1.1-4.17-.73.81a2.5,2.5,0,1,0,3.54,3.53l.72-.81a2.56,2.56,0,0,0,.64-2.43,2.65,2.65,0,0,0-1.74-1.75A12,12,0,0,0,104.69,193a2.5,2.5,0,0,0,3.53,3.54Z"/></svg>