<?xml version="1.0" encoding="UTF-8"?><svg xmlns="http://www.w3.org/2000/svg" viewBox="0 0 327.03 318.22"><style>path{fill:#E54A5C;}</style><path d="M211.17,68.27c-.28,1.47.87,2.14,1.56.72,1.08.93,2.92-.29,4.2.96l-.36-.72.25-.48c1.47.55,2.83-.31,3.87,1.19l.96-.68,3.64,1.11c.3-1.09,1.18.45,2.1.54l.26-.49c.76.22,3.75.29,4.13.78.11.15.02.47.04.67h.23c-.04-.21-.02-.35.19-.46,1.41-.74,1.76-.12,3.08.46-.19,1.64.58,1.66.87.06l.54-.2,2.28,1.71-.72.6c1.18.29,1.06-1.04,1.2-1.2.03-.03.54.26.84.26.5,0,1.09-.24,1.4-.19.19.03,2.23,1.05,2.31,1.26.26.67-1.43.27-1.44.83,1.67.36,2.74-.51,3.01,1.91.24,2.12-.48,3.46-.57,5.17-.02.42.31.94.21,1.39-.06.27-.67.3-.74.53-.1.38.48.57.61.85.14.29-.03,1.85-.13,2.23-.06.21-.46.17-.45.27.01.27.34,1.1.58,1.33l.36-.96c.65,1.04-.12,3.03-.02,3.68.03.19.5.2.69.56.47.91.31,2.04-.1,2.94-.38.83-1.28,1-1.29,1.94l.95-.72c.65,1.1.2,2.18,0,3.36l.7.02c.25,1.37-.89,1.99-.16,3.42.2.4.63.26.69.76.09.84-.63.62-.71.97-.02.09.17,1.7.21,1.86.05.19.47.15.49.31.15,1.39-.82,3.01-.49,4.76.11.55.74.86.86,1.55.07.41-.15.8-.08,1.26.27,1.72.95,3.18.66,5-.36.39-2.43-1.8-.71.96l.72-.72.44.41c-.28,2.24-.34,4.38.11,6.6.38,1.9-.08.89-.24,2.02-.11.74-.03,4.87.06,5.74.15,1.49.81,2.36.76,4.04-.04,1.14-.84,3.17-.88,3.88-.02.46.34.91.2,1.38-.09.32-.58.52-.61.77s.4.93.42,1.45c.02.57-.28,1.1-.27,1.67.06,2.98.61,7.1.38,9.85-.08.95-.25,2.78-.09,3.78.25,1.53.14,1.8-.11,3.39-.07.42-.49.65-.41,1.11h.96s-.48,1.92-.48,1.92l.72-.48c.32,1-.49.72-.48,1.44l.72-.14c.25.18.92,5.27.96,6.01.08,1.5-.5,1.36-.49,1.44.03.34.66.63.71.78.32,1.1.16,2.34-.47,3.3l.72.5c.09,1.07-1.01.49-.95,1.3,2.56-.06,1.28,3.02,1.25,4.44s.72,2.55.84,3.4c.22,1.56-.33,4.17-.17,5.46.1.82,1.09,1.53,1.19,2.45.08.68-.24,1.24-.25,1.89-.01,1.88-.21,3.77-.24,5.52-.02,1.3.67,3.03.62,4.59-.03.86-.4,1.79-.36,2.58s.66,1.63.7,2.21c.07,1.09-.73,3.47-.18,4.49.31.58,1.13.59,1.11,1.74,0,.62-.74,1.9-.69,2.37.02.19.47.21.58.39.76,1.17-.14,2.94.15,4.31l.72-.24.96,8.4.48-.24c-.02.45.09,1.34.48,1.58.42.25,1.16-.42,1.44.23.26.59-.75.21-.71.47.36.29.12,1.11.27,1.29.11.13.73-.04.89.42s-.04,1.3.05,1.87c.13.86.75,1.42.18,2.37-.24.39-.77.48-.88.8-.24.71,0,3.92-.51,4.29-.4.29-1.37,0-1.47,1.05l-.32.03c-.37-.32-1.5-.46-1.7-.72-.19-.24-.35-2.16-.95-1.92l-.86,1.08.13.37c1.64.83-.17,1.29-1.19,1.42l-.27-.49.36-1.33-.33-1.77c-1.03.9.02,2.26-.72,3.12l-.12-1.44c-.74-.53-2.36,1.71-2.51,1.68s-.44-.38-.77-.43c-.99-.13-1.91-.43-2.61-.53-1.01-.14-3.27.99-4.42-.12.63-.17.32-.51.48-1.08h-.97s-.36-1.2-.36-1.2l-.12,1.44h-.96s.48.72.48.72c-1.01-.29-.88.75-1.92.48l.12-.49c-1.21.98-3.39.36-4.81.26-1.63-.11-3.28-.1-4.91-.25l.24-.48c-.85-.27-.8.55-1,.67-.07.05-.43-.17-.69-.09-.61.2-.77.88-1.52.85-.22,0-1.97-.43-2.15-.52-.36-.18-.36-.67-.54-.68-.21-.02-.7.28-1.17.26s-2-.73-2.28-.49c-.13.11.27.98-.49.71l-.48-.71c-.18.58-.71.65-.49,1.44-.85.14-.93-.06-1.32-.72-.14.72-1.41,1.11-1.51,1.25-.19.27,0,1.12-.65,1.38-.94-1.47-2.08-.71-3.48-.96l.24-.72c-.97-.29-2.09-.12-3.02-.46-.4-.15-.65-.53-1-.68-.83-.35-2.13-.53-2.56-1.28-.16-.28-.1-.75-.25-.95-.22-.3-.82-.16-1.2-.48-.63-.52-1.22-2.74-1.69-3.37-.16-.22-.51,0-.7-.23-.37-.45-.58-1.82-.65-1.89-.12-.12-1.22-.06-1.37-.31-.12-.2.04-.71-.08-.99-.15-.35-.48-.49-.62-.83-.12-.29.05-.84-.08-.99-.07-.08-1.32-.24-1.59-.57s-.22-1.32-.44-1.84c-.5-1.16-1.98-1.78-1.31-3.38l-.96.96c-.03-.41.08-.87,0-1.27-.07-.34-2.79-2.98-2.71-3.94l-3.5-1.55.11-1.17c-.24-.4-1.7-.7-2-1.02-.23-.24-.25-.87-.53-1.27-.42-.58-1.2-.66-1.38-.89-.34-.42-.53-.94-1.18-1.7-.17-.2-.12-.65-.42-.9-.55-.46-1.86-.28-2.31-.58-.35-.24-.27-.92-.46-1.18-.15-.21-.54-.08-.67-.2-.24-.22-1.09-2.22-1.65-2.8-.96-.99-2.56-2.05-3.46-3.26-.4-.54-.57-1.35-.95-1.92l-1.1-.06-.26.44c.51.96.34,1.93-.1,2.86,1.52-.34,1.43,1.83,1.69,2.99.23.99.78,1.45.23,2.77h.72c-.53,1.23.33,2.61.26,3.72-.03.53-.43.81-.49,1.21-.11.79-.2,2.02.11,2.75l.6-.72c-.16.6.22,1.3.2,1.8-.12,2.64-.99,4.64-.66,7.41.01.1.78.51.73,1.72-.02.4-.39.31-.48.54-.59,1.5.22,1.33.81,2.22.26.38.28.81.51,1.18.11.19.57.2.59.39.02.23-.3.67-.25,1.16.06.6.72,1.04.68,1.42-.03.25-.35.6-.41,1.03-.13.89-.25,1.72-.19,2.62.14.52.83-.17.64.48-.12.44-.54.61-.48,1.08l1.64.03c.76,1.38-1.41,1.75-1.76,3.09l-.6-1.68c-.41.4-.24,1.57-.29,1.64s-1.34.85-1.41.88c-.61.23-1.48-.35-2.53.07-.43.17-.42.55-.73.71-.96.5-2.24.58-3.3.55-.27-.08-.01-.57-.28-.76-.13-.09-2.93-.9-3.09-.91-.52-.02-1.29.4-1.94.46-1.58.12-2.94-.89-4.31.71l-.23-.72c-.31.23-.7.23-1.06.38-2.06.85-4.42,2.44-7.09,2.01-1.03-.17-.88-1.15-1.93.45-.69-.76-1.42-.32-2.28-.2l.48.47c-.53.2-1.4-.26-1.77-.18-.28.06-.47.52-.79.62-.67.2-1.57-.07-2.38.24-.53.21-.73,1.05-1.17,1.49-1.28,1.29-1.26.19-2.15.23-1.51.06-2.29,2.1-3.58,1.4-.47-.26-.36-.69-.66-1.02s-2.35-1.1-2.84-1.2c-.3-.06-.89.19-.98.1-.04-.04.1-.45-.16-.73-.52-.56-2.5-.45-2.92-1.84-.23-.75.24-1.3.19-1.86-.04-.46-.57-.78-.68-1.27-.37-1.67-.11-4.2-.33-5.43-.07-.36-.71-.58-.85-1.04-.21-.64,0-2.14-.1-2.41-.15-.41-1.3-.15-.85-2.04s.89-1.38.05-3.76c-.68-1.92-.19-1.99-.39-3.68-.08-.66-.65-1.43-.69-2.45-.05-1.54.82-4.52.98-6.25.06-.67-.23-1.95-.12-2.78.05-.44.46-.76.49-1.05.01-.13-.52-.97-.38-1.31l.94.25c-.2.38-.28.81.25.94.33-.9.15-2.63.97-3-.4-.34-1.38-.07-1.58.36-.14.21,1.07,1.37.25,1.43-.93.07-.45-1.34-.64-1.64-.09-.15-.97-.15-1.14-.67-.27-.83.61-1.03.71-1.65.13-.88-.98-1.77-.13-2.75.34-.39,1.04.03.84-.71l-1.42-.52c.12-.88.83-2.04-.26-2.48,1.67-1.39.79-2.62.76-4.08-.01-.75.35-1.9.42-2.68.12-1.3-.75-3.2,1.7-2.97l-1.22-1.32c.83-1.64.71-3.26.75-5.05.06-3.35-.19-7.1.02-10.28.03-.44.3-.87.21-1.34-1.62.22.17-1.43.37-2.15.12-.45.14-.88.13-1.34l-.05-.33c-1.48.04-.88-3.23-.92-4.47-.02-.73-.32-1.39-.27-2.17.02-.41.95-2.47.97-2.86.03-.63-.62-1.31-.45-2.39.37-2.37.24-4.35.7-6.99.33-1.91-.75-2.74-.62-4.51.02-.3.37-.61.34-.96-.02-.27-1.43-2.49-1.39-3.4.02-.3.37-.54.39-.76.09-1-.45-2.01-.41-2.83.03-.71.66-1.32.65-1.68-.02-.82-.23-1.8-.16-2.87.03-.42.23-.79.25-1.21l-.72-.12c.26-.55-.03-1.22.06-1.74.1-.61.86-1.57.84-1.74-.01-.18-.57-.56-.72-.91-.05-.12-.64-2.34-.66-2.47-.1-.74.42-1.26.44-1.89.05-1.61-.84-4.04-1.15-5.54-.54-2.61.24-5.53-.5-8.14,1.72-.54,2.44-.63,1.69-2.53l.96.24c.86-1.61-1.8-4.28-2.64-2.16l1.2.12c-.14.43-1.38.91-1.44.47-.28-1.37.5-2.8.5-4.07s-.53-3.26-.52-4.56c0-.74.42-1.1.45-1.48.04-.46-.63-1.04-.43-1.84.05-.18.48-.15.5-.31.11-1-.3-2.98-.26-4.05.03-.83.31-1.06.97-1.45l-.91-.72c.61-.47.31-1.12.44-1.64.06-.24.78-.03.26-.99l.7-.38-.73-.36-.23-1.07h1.43c.56-1.09-.42-1.5-.48-2.05-.07-.74.29-.54.03-1.92-.3-1.57.65-.07.95-1.19-.73-.22-.94-1.25-.94-1.95,0-.66.45-1.17.44-1.66-.01-.44-.45-.77-.45-1.19s.49-.76.43-1.39c-.05-.56-.51-.55-.65-.84-.13-.26-.77-1.9-.72-2.05.19-.62,1.17-.63,1.66-.4.18-.67-.52-.58-.96-.72-.08-1.73,1.22-.79,1.76-.99.33-.12.29-.6.57-.69.5-.16,1.77-.04,2.3-.23.15-.05.33-1.24,1.54-1.41.86-.12,1.12.92,1.62,1.4l.82-.5-.21-1.17c.72.14,3.93.38,4.01.83-.47.71.23,1.42.21,1.93,0,.3-.38.69-.4,1.2-.04.92.52,2.19.26,3.24,1.12.15,2.22-.17,3.19-.71.23-.12.24-.59.56-.69.74-.24,1.92.12,2.79-.1.69-.18,1.92-1.21,2.58-1.46.61-.23,2.14-.18,2.39-.28.99-.39,1.72-1.74,3.37-1.09l.03-.93c1.24,0,2.08-.85,3.33-.15-.27.5-2.25,1.18-2.16,1.68.09.47,1.99.13,2.4.36l-.24-.72c1.08-.39,2.34-1.12,2.5-2.42l1.1.02c-.03-1.2.58-1.33,1.07-1.95.17-.22.1-.66.14-.7.09-.1.59.26.81.21.34-.08.84-1.77,1.76-.58l-.53,2.05c.56-.26,2.2-.83,1.76-1.65-.48-.21-.96-.28-.32-.75.63-.12.5,1,.95,1.11.06.02,1.26,0,1.32-.03.36-.15.69-.94,1.13-1.05.56-.14,1.19.49,1.6.4.57-.12.4-1.1,1.68-.16.41.3.57.78.7.86.45.28,1.08-.09,1.57.72.38.62.07,1.19.05,1.85l.71.13c-.3.63.08.83.25,1.32.22.64-.91-.16-.48.48.31.46,1.19.65,1.68.36v1.2s-.72-.24-.72-.24v.96c.53-.36,2.37.39,2.78.7.55.43.6,2.24,1.22,3.08.75,1.01,1.42.26,1.53,2.35.04.8-.71.85.45,1.45-.52,1.06.14.68.46,1.22.4.68,1.18,2.82.29,3.33,2.36,1.04,1.69,2.48,2.21,4.26,1.12,3.82,4.2,8.55,6.55,11.68,1.96,2.6,3.69,5.18,5.73,7.71.58.72,2.11,1.44,1.57,2.39.68-.02,1.5.04,2.05.47.07.05,1.13,1.15,1.18,1.22.27.42.09,1.29.61,1.42l.14-.49,1.55.25c-.06-.62.13-1.41-.05-1.99-.11-.35-.61-.57-.65-.8s.38-.57.44-.94c.36-2.22-.97-3.85-.88-5.56.02-.38.41-.64.44-1.14.05-.75-.38-2.41-.5-3.24l.72.24.25-1.56-.96.12c-.2-1.6-.4-3.22.22-4.77l-.89-.65c-.17-.89.95-1.13.65-1.52-.03-.04-.42.05-.47-.17-.15-.63-.29-3.77-.25-4.52.03-.67.59-1.47.7-2.17l-1.89-.75c.03-2.03-.35-4.14,1.69-5.24l-.73-.27c-.7-1.47.23-2.91.21-4.05,0-.68-1.15-2.42-.65-2.97.33-.36,1.37.24.68-1.71l-.48.96c-1.46-.93-.21-3.07.83-3.85.17-.13,3.47-2.02,3.67-2.09.67-.23,3.65-.73,4.16-.43l-.02.61,2.88.24c.26-.9-1.06-.65-.12-1.42,1.08.83,2.06.03,3.24-.02ZM230.37,71.16h-1.44s0,1.68,0,1.68c1.17.07,1.52-.58,1.44-1.68ZM199.65,71.4l-.61.24-.1.84c-1.12-.11-3.92.93-1.35,1.32.4-1.16,1.13.25,2.06-.01l.02-.69.78-.02c.71-.83-.85-.79-.8-1.68ZM168.93,72.6l-1.2-.24v1.92c-.45,0-.97.12-1.33-.23-.4-.39-.18-1.7-.71-1.44-.66.58-.65,1.15-.36,1.92l.96-.24-.24,1.2c.91.09,1.17.11,1.56-.72.19.33.16.7.72.48.67-.27.13-.94.15-1.33.02-.42.61-.76.46-1.3ZM217.66,74.03c.02-.58-.29-1.25-.96-1.2.1,1.08-.81,2.43,1.27,1.91.08-.02,1.02-.46,1.35-.6,1.56-.66.97-1.72-.29-1.01-.59.34-.51,1.12-1.38.9ZM227.68,75.65c.53-.71-.01-1.99.29-2.82-.9.24-.21,1.21-.28,1.41-.03.08-1.01.54-.92,1.35.05.4.73.31.91.06ZM231.33,74.51l-.39-.94c-.41-.04-.78.24-1.18.24-.5,0-1.11-.8-1.3-.13-.27.93.32.76.58,1.09.21.27.03,1.13.82.66.21-.13.39-1.27,1.48-.92ZM125.49,76.43c-.25-.87.47-2.08-.96-1.92.18.65.42,1.08-.24,1.56l1.2.36ZM235.17,78.83l-.36-2.4c-1.03,1.01-1.07,1.82.36,2.4ZM214.29,77.15l-1.44.49c-.38.55,2.39,2.49,1.44-.49ZM228.21,98.75c.98.88.47,1.81,1.99,2.46,1.6.69,3.48-1.03,3.7-2.61.04-.32-.23-.71-.13-1.11.24-.94,2.06-.96,1.19-2.97-.2-.45-.59-.49-.73-.77-.33-.64-1.18-2.69-1.21-3.3-.04-.94.67-1.11.89-1.71.65-1.8-.25-1.82-.63-3.09-.49-1.6.76-3.72-.86-4.42l-1.42.71c-1.78-1.47,1.57-2.87.3-4.28-1.47.07-1.82.59-1.88,2.01s.89,1.69-1.68,1.56l.24-.72c-.4.05-.91-.1-1.29,0-.28.07,0,.59-.39.48l-.61-1.91c-.55-.24-.91.77-1.43.92-.87-1.81-1.94-.33-3.08-.52-.39-.07-.98-.82-1.23-.81-.15,0-.36.32-.54.34-1.55.14-1.42.62-1.85.68-.25.04-.65-.18-1.13-.09s-1.85.63-1.96.62c-.69-.04-1.36-1.19-1.96.28l-.48-.48c-.53.77-1.16.81-2.04.72.04,1.37-.24,2.85-.26,4.2-.11,5.79.5,11.43,1.21,17.05.59,4.7.34,9.26.75,13.89.21,2.4.26,3.37.23,5.82,0,.56.57.88.23,1.52.6.03,1.22.11,1.55-.49.6-1.11,3.57-6.98,3.46-7.73-.05-.29-.46-.59-.33-.9l1.48-.95c-.39-1.38.33-.81.83-1.56.73-1.09.37-1.99.52-2.84.1-.56.71-1.71.61-2.19-.07-.37-.93-.78-1.1-1.52-.25-1.11.2-2.67.14-3.03-.04-.26-.52-.6-.62-1.05-.18-.74-.1-1.71.42-2.31.39-.43,1.76-.49,1.45-1.36-.28-.31-2.95,1.89-2.88.24,1.03.21.74-.71,1.2-1.33l-.48-.23c2.07-1.24-.11-1.1-.44-.56-.14.22,0,.64-.04.92-.36.08-.41-.88-.36-.97.21-.38,3.11-1.74,3.47-1.42l.28,1.16,1.17.03c.1.57-.75.68-.7,1.32.03.41,1.58.48,1.41-.22l-.23-.85,1.2-.61c-.83-.4-1.35-.17-1.67-1.32,1.13-.18,2.43-.78,3.36.12-1.45.48-1.53,2.24-2.16,3.48,1.77.21,1.14-.4,1.49-1.27.16-.41.64-.41.79-.65.33-.51-.24-1.49.48-1.44l1.05,1.13-.2,1.99.72.12-.96,1.07.94.22.26-.45c.04.31-.04.66,0,.96l-1.92.6,1.2.12v.96c1.73.1.9-.54.72-1.68ZM242.09,81.91c.52-.89-1.23-1.81-1.39-1.64-.18.53.49.95.48,1.32,0,.42-.76.82-.22,1.55h.7s-.47-.58-.47-.58l.9-.64ZM167.96,81.94c.19-.49-.25-1.67-.95-1.32-.67.46-.43.92-.23,1.57l1.18-.26ZM198.52,82.13c-.18-.11-.26-.64-.42-.65-1.1,1.29.61,1.32,1.32,1.55.35.11,1.25.95,1.68.36.36-.5-.53-.77-.48-1.19l-.48.17-.11.54c-.32-.73-1.14-.56-1.5-.79ZM239.2,81.54c-.21-.12-.44-.06-.67-.07.16.55.21,1.11-.39,1.39l-.57-.19c0,.67.25,1.13-.48,1.32,1.49.66,1.54,2.04,2.57,2.97.91.23,1.24-.89,1.43-.92.24-.04,1.01.33,1.29.12.41-.31-.52-1.03-.24-1.57-.7-.06-1.05.57-1.8.51-.5-.04-.54-.96-1.32-.76-.2-.87.8-1.05.97-1.8.02-.14-.73-.97-.78-1ZM163.17,85.31c2.02-.46.56-1.99.72-3.36l-.7.27c.3.91-.21,1.66-1.21,1.65.11.68,1.5-.14,1.68,0l-.48,1.44ZM157.6,82.49c-.56-.35-1.98.62-2.81.2l-.24.85c-1.47-.07-1.76-.21-2.42,1.2l-1.31-.14-.14.7c-1.11.33-2.89.61-3.9,1.03-.39.16-.47.68-.95.97-.79.47-3.25.85-3.78,1.26-.3.23-.12.83-.36.86-1.16-.54-2.09.21-3.11.22-1.6.02-3.61-1.14-4.56-2.4-1.25-.34-1.13,4.8-1.71,5.44l-.09,14c-.24.19-.97-.71-.96.12,0,.27.61-.32.84.83.15.78-.07,1.78-.02,2.49.39,6.18,1.11,12.27,1.35,18.52.02.44.21.86.26,1.29,1.45.39,1.22-.53,1.65-1,.55-.59,1.16-.95,1.65-1.77.56-.93.79-3.04,1.96-2.97l-.73-.61c.46-.68.47-1.6,1.21-1.93l-.24-2.49h1.68c.07-.67.04-1.15-.71-1.22v-.35c.84-.8,1.17-2.33,1.45-3.47l1.43-.02c.14-.71-.73-.46-.74-1.07,0-.85.71-2.41,1.7-2.53.19-.28-1.93-2.14.24-2.15l-.24,1.2.73.13c.64-1.14,1.05-2.45.47-3.73h1.2c.25-1.75-1.9-1.21-1.08-3.12.1-.22.54-.41.57-.64.05-.27-.42-.57-.46-.94-.22-1.8,3.36-3.43,1.08-4.67l-.12-.35c.18-.56.55-1.79,1.32-1.57.57,1.22.68,2.04,2.28,1.44.38-.53-1.21-2.12-.96-.48-.72-.32-.63-1.25-.46-1.9,1.66.27.92-.56,1.79-1.46l1.08.72c-.18-1.37.44-.97,1.18-1.34.24-.12.43-.5.65-.54.98-.21,1.07,1.33,1.53,1.76.26.24.79.27.91.4.24.25-.47,2.71-1.15,2.61.99,1.2.18.73-.07,1.25-.52,1.05-.59,2.69-1.48,3.55-.3.29-.8.2-.85.24-.05.04.29.77.26,1.31-.1,1.58-1.56,3.93-1.21,5.25.05.2.49.13.49.28l-.49,1.19c1.69,1.49,1.93-1.13,3.36-.83v-.72s-.96.12-.96.12c.1-.37,1.16-1.87,1.44-1.56v.96c1.48-.78.03-.99.15-1.87.06-.42,1.72-1.89,2.11-2.7.19-.38.11-.81.25-1.19.29-.82.87-.92.37-2.16l.47.24c.68-.89-.15-1.95-.14-2.28,0-.58.85-1.63.87-1.73.17-1.09.72-2.03.73-2.15.03-.33-.34-.71-.14-1.04.28-.46,2.08-1.34,2.53-.96-.59,1.47-.1,1.88,1.2,2.4-.05-.59.7-1.1.72-1.56.01-.53-.59-.88-.62-1.2-.05-.49.61-1.12.57-1.86-.04-.85-1.35-1.85-1.39-2.03-.22-.93.06-1.9-1.06-2.72-.43-.31-1.35-.28-1.53-.53-.13-.17,0-.61-.04-.66-.16-.16-1.49.55-2.16.11-.15-.1-.18-.47-.28-.54ZM166.29,83.4c-.81-.27-1.71-.56-1.7.6.01.99.62.67,1.11,1.07.37.3.54.85.64.92.06.04.32-.19.39-.14.11.08.1.43.45.61,2.1,1.09,3-2.32.56-2.11v.96s-.83.01-.83.01l-.35-.87-1.22-.11c-.18-.84.87-.45.96-.96ZM236.11,86.73c.62-.57-.33-1.3-.41-1.58-.27-.91.36-1.87-1.24-1.99-.51.85-.38,3.39.6,3.6.2.04.97.05,1.05-.03ZM134.13,85.55c.89-.91.34-2.13-.95-1.9-.56,1.59.32,3.3,2.14,2.62v-.71s-1.2,0-1.2,0ZM172.76,84.85c-.86-.52-.87.6-2.05.69l.5,1.45c.6-.78,1.73-.96,1.55-2.14ZM137.97,87.24c-1.57.88-1.08-1.98-2.4-.84.73.25.71.86.72,1.56.41-.17,1.85.06,1.68-.72ZM122.85,88.19l-.23-.96c-.34,1.03-.43,2.24.36,3.11l.37-1.06-.49-.5.72-.6h-.72ZM170.1,87.75l-1.89-.03c.46.83,1.54,1.04.96,2.16l1.04-1.02-.12-1.11ZM235.12,88.86c-.08.14-.67.21-.8.75l.5.98c.83-.8,1.57-1.94.48-2.87-.29.24.03.8-.18,1.15ZM202.53,89.16c-.27-.31-.97.71-1.08.71-.64-.42-.83-.95-.96-1.67-1.66,1.38.81,1.23.72,2.88.09-.51,1.76-1.42,1.32-1.92ZM205.02,91.18c.97-.92,1.13-1.32-.09-2.26.04.93-.99,1.91-.12,2.64.18.07.06-.24.21-.38ZM200.28,91.97l-.51-2.09c-.92.63.03,1.5.03,1.8,0,.19-.63.82-.39,1.32l.86-1.02ZM237.09,90.12c-.34-.34-.44.03-.48.36s.2,2.82.28,3.08c.15.46.94.68,1.4.64-1.19-1.21-.68-2.55-1.2-4.08ZM123.81,92.03c-.92.56-1.16-.63-1.92-.96l.84,3.36,1.07-2.4ZM161.25,94.91l-.6-1.2-.59,1.42,1.18.62c-.16.48-1.07.54-1.16.64-.13.16.04.6-.11.85-.2.35-1.34.89-.27,1.73l.8-.25-.12-1.43c1.48-.16,1.19-.84,1.64-1.37.21-.25.74-.19.88-.33.39-.38-.99-1.7-1.66-.69ZM208.06,97.8c-.26.9-.55,1.77.36,2.39.63.01.35-2.26-.36-2.39ZM238.05,103.07c1.15-.27.52-4.66-.24-3.84-.56,1.55.28,2.38.24,3.84ZM173.25,99.72c-.29-.24-1.8.78-1.44,1.44h.96c-.63,1.48,1.67.98,2.4,2.16v-1.44c-.92.51-2.51-.65-2.41-1.56,0-.07.96-.21.49-.6ZM220.77,99.96h-1.19s-.24,1.2-.24,1.2l1.44-.11-.22-.47.22-.62ZM241.88,99.96c-.87-.54-1.21,1.55-.59,1.63.12.02.57-.27.83-.21l-.24-1.41ZM168.01,102.32c-.08-.07-.47-1.48-1.12-1.63-1.97.91-.79,1.99-1.11,2.95-.06.2-2.32,2.66-2.49,3.04-.21.48-.03.89-.12,1.27-.06.26-.58.24-.69.56-.2.58.08,2.07-.38,3.22-.37.92-1.19.83-1.29.99-.14.23.03.84-.08,1.24s-.68.62-.91,1.25c-.39,1.06-.26,2-.95,3.06-.15.23-.6.42-.9.85-.2.28-.3.92-.35.97-.22.19-1.74-.23-1.89.4-.14.58.84.66,1.2.6-.96,1.23-.05,2.4-1.92,3l.72.12-.02,1.18-2.14.02c-.1.07.76.97.82,1.19.13.46.36,1.06.38,1.13.2.81-.23,2.05.25,2.96,1.5.15,1.46-1.76,1.9-2.48.22-.36,1.37-.49,1.6-.88.18-.3-.23-.72-.03-1.19.18-.41,1.33-.92,1.33-1.09-1.07-.51-1.1-1.57-1.46-2.61.26-.27.58-.29.85-.64.15-.19,1.27-2.2,1.3-2.33.2-.77-.7-1.16.67-1.96.3-.18.98-.25,1.02-.3.27-.33-.27-3.13,1.47-2.86.21-.65-.42-.85-.59-1.2-.52-1.05.28-.87.43-1.25.41-1-.49-2.25-.18-2.83,1.19-2.16,3.8-1.05,5.28-2.62.6-.09.61.81.58,1.18l1.2-.24-.24-.96,1.17-.28.03-1.17-.48.72-1.17-.51c-.34-.53,1.01-1.66-.37-2.63-.49-.34-1.13-.12-1.3-.26ZM232.73,103.52c.18-.38-.27-.77-.68-.69-.14.71-1.14,1.74-.36,2.4.81-.09.1-1.69,1.04-1.71ZM241.65,102.83c-.62-.25-.39.43-.63.49-.35.08-1.14-.11-1.27.02v.7c-.44.13-.5-.25-.73-.36-.88-.45-1.15,1.47.24.84.18.74-.79.5-.94,1.12-.09.38.69,2,.94.91.17-.75.28-1.51.52-2.25l2.13-.27-.24-1.2ZM202.29,103.32c-.53-.15-1.73.42-1.89.88-.18.53.35,2.22.81,2.23.77.02-.14-2.38.12-2.64.44-.06,1.12.3.96-.48ZM202.53,104.51c-.74-.18-.5.57-.45,1.05s.11,1.38.81,1.11c.96-.38-.79-1.49-.36-2.16ZM241.17,107.87c0-.74-.19-1.53.48-2.04l-1.32-.83-.11,1.98.95.89ZM205.17,107.88c-1.65-.81-.97,1.72-2.88,1.19-.05,1.12.9,2.48,2.16,2.16-.66-.73-.44-2.88.72-2.64v-.71ZM174.93,107.88h-.72c.6,1.31-.34,1.44-.64,2-.37.7-1.56,3.49-1.72,4.17-.18.78.04,1.34.44,1.99l-.94.02c.23.86-.74,1.47-.82,1.71-.17.49.11,2.04-.41,2.82l-.35-.48-.61.24c.54,1.12-.14.85-.23,1.13-1.26,3.94-2.59,6.21-4.19,9.93-.54,1.25,0,2.13-1.82,2.74.8.13-.13,2.03-.36,2.29-.31.35-.84.13-1.04.28-.08.06-.13.63-.39.93-.31.37-1.35.5-.69.94h.54c.26.57-.72,1.03-.72,1.1,0,.3.28.59.21,1.12-.12.8-1.11,1.53-1.39,2.26-.98,2.54-1.91,5.33-2.77,8.01-.56,1.73-.91,3.75-1.4,5.36-.27.89-2.13,4.93-.73,5.42.59.17,2.82-.88,3.15-1.24.36-.39.37-1.56.6-1.8.21-.22,1.71-.59,1.98-1.02.31-.51.49-2.51.79-3.29.41-1.05,1.12-1.09,1.45-1.67.36-.62.34-2.11.6-3,.11-.38,1.31-3.34,1.42-3.5.15-.22.86-.22.91-.29.43-.53-.82-.36-.48-.96,1.6.61,1.4-2.09,1.75-3.17.15-.46.65-.83.66-1.39h1.06c.75-1.22.38-3.51,1.93-4.08.8-.29-.29,1.19.6,1.56,1.34-.59-1.18-2.35.02-3.35.66-.55.89-.69,1.5-1.57s.5-.42.6-.53.6-1.53.52-1.63l-.6.44-.6-.56c.48-.33.86-.39.72-1.08,1.06.69.81-.52,1.92-.24v-.72s-1.2,0-1.2,0c.45-.45.33-5.7,1.2-5.04l.48,1.08c-.31.39-.89.18-.72.83l2.4.72c.1-1.58-2.16-1.71-1.32-3.36.25-.49,1.01-.43,1.45-.71,1.03-.65.7-1.27,2.62-.95.83.14,1.05.77,1.5.9.48.14,1.07-.09,1.51.17,1.17.69,1.15,3.04.72,4.2l-.72-.48v1.92c.88.01,1.1-.83,2-1.24.7-.32,1.52-.29,2.05-.82.23-.92-.7-1.34-.7-1.42,0-.55,1.09-.85.61-1.57-.84-1.25-.26.84-.73.96-1.07.27-2.32-1.91-1.79-2.87l-.84.47-.83-1.07.7-.23.97.35-.45-.6.69-.84c-1.04,0-1.63.88-2.64.61-1.58-.41-1.07-1.3-1.5-1.99-.24-.38-1.26-.34-1.37-.67l.49-.24c.2-.93-.41-.42-.66-.65-.11-.1-1.57-2.22-1.63-2.36-.14-.31.18-.69.02-.95-.27-.46-2.01-1.27-2.25-2.35l.2-2.7ZM226.77,108.59l-1.94.1-.46,2.06.93-.03c.52-2.42.49-.51,1.71-.21l-.24-1.92ZM239.25,110.75l-1.44,1.44c.82.26,1.49.65,2.4.48-.05-.41-.55-.27-.79-.77-.17-.34-.17-.77-.17-1.15ZM234.69,112.2c-.42-.11-.48.18-.72.36-1.54,1.16-2.16,5.52-3.01,7.31-.3.62-2.59,1.55-1.07,2.29s2.03-.29,2.74-.33c1.13-.07,2.7.96,3.96.19l.02-.7-1.44.24c.02-2.04.48-3.58-.72-5.41-.01-.68.94-.73.98-.99.06-.39-.38-2.02-.95-2.11l.22-.85ZM125.01,115.07l2.06-.46c.81-.57-.4-1.89-.62-1.33.25,1.68-1.32.7-1.44,1.79ZM237.99,113.46c-1.11-1.15-1.93,1.35-.5,1.6.66.11,1.05-1.03.5-1.6ZM148.29,114.83c.44.12,2.8.25,2.64-.59l-2.39-.36-.25.95ZM126.93,116.04l-1.78-.47c-.65.37-.35,1.08-.11,1.64.88.16,2.06-.11,1.89-1.17ZM147.57,116.04l-1.68,1.2.49.37-.25,2.5.97-.13c.23-1.44,1.14-2.47.46-3.95ZM241.87,117.73c-1.68.45-2.73.24-4.4-.02l-.14.72,1.07-.48c.72,1.68,2.32-.42,3.48,1.2l-.02-1.42ZM237.81,118.92l-1.2.24.49.39-.25,1.53.72.12-.93,2.21.68.79c-.58-2.31.84-.21,1.2-.48l.36-1.68.84-.24c-.71.63-.22,1.31.19,2.09.17.31.13.54.65.31.36-.16.57-1.8.49-1.93-.16-.26-.69-.29-.92-.46-.24-.18-.28-.62-.57-.71-.5-.16-1.2.34-1.77.22v-2.4ZM125.73,120.12l-1.64.28-.52,2.12c1.69.34.52-1.01,1.56-1.68l.6.48v-1.2ZM129.81,121.07c-.76-.18-.44.73-.97,1.07-.1.06-2.19.61-1.43,1.33.55.52,1.04-.48,1.1-.49.51-.06,1.21.55,1.29.49v-2.4ZM151.41,121.08c-.59-.57-.86.67-.99.81-.18.2-1.67,1.3-.57,1.58s.94-1.12,1.09-1.5c.06-.16.89-.49.46-.89ZM126.93,125.16l-.86.71-.81-.23v2.16c.76-.17.57-.99.79-1.37.14-.23.9-.57.89-1.27ZM240.28,126.29c1.95,1.8,3.55-3.12.42-.18l-.72-.72c-.03.27.11.72.3.89ZM216.4,125.94c-.39-.16-.67.18-1,.12-.28-.05-.48-.55-.79-.63-1.33-.39-.8,1.67.99,1.77,1.37.08,1.62-1.11,1.2-1.04-.66.12-.22-.15-.41-.23ZM239.25,126.36c-.93-.06-.65,1.04-.88,1.63-.09.23-.98.42-.56.77.6.49,1.99-1.82,1.44-2.4ZM147.05,128.7c.16-.25-.07-.9.41-1.14.43.42,1.43.84,1.56-.12-.11-.52-1.71-.39-2.14-.33l-.03.66c-.64.05-1.29-.07-1.6.62l.34.62c.26.06,1.35-.11,1.48-.31ZM227.73,128.04l-.67-.19c-.73.88-.93,1-.29,2.1l.96-1.92ZM182.37,128.28c-.74-.39-.91.27-1.68.6.54.04.76,1.49.72,1.92-.07.76-2.01,2.21-2.11,3.17-.06.64.67.59,1.14.56v-1.68c.18-.19.95.83,1.85.16.66-.49.42-1.36.56-1.91.02-.09.99-.43.26-1.47l-1.47-.14c-.22-.86.43-.65.72-1.2ZM236.13,136.91c.87-1.57.05-1.53-.19-2.33-.17-.58-.34-3.36-.28-4.03s.9-.57-.25-1.46c-.56-.43-1.15-.33-1.07.37.27,2.39-2.51,5.03-2.72,6.18-.28,1.48-.43,1.2-.72,2.15-.17.56-.1,1.36-.31,2.09-.23.81-1.47,2.38-1.08,3.01.57.91,2.25-.38,2.65.96l.73-.73c1.11.49,1.99,1.21,3.23.73-.64-1.32-.49-1.65.48-2.63-.87-.1-.64-1.81-1.21-2.52l.51-.27-.25-1.78.47.24ZM247.17,131.87l.49-1.07-1.44-.61.08.89c.46-.06.35,1.25.87.79ZM145.89,130.44c-.8,0-1.09.69-1.92.24v1.2s.24-.72.24-.72c.84.82,1.7.49,1.68-.72ZM194.34,135.92c.57-.45.15-2.99-.92-3.24-.18-.6,1.26-1.61.35-2.25-.27-.11-.72,1.87-.82,2.01-.14.2-.68.23-.99.5-1.23,1.03-1.57,2.66-1.84,4.13-.06.31.29.75.14,1.01-.03.06-.76.38-1.06.75-2.06,2.54-3.17,6.06-4.62,9.06-.6,1.24-1.71,2.74-2.27,3.98-.18.4-.18,1.5-.56,2.08-.27.42-.79.49-1.04.88-.36.55-.52,1.85-.89,2.47-.25.42-.93.77-1.02,1.15s.23.9.21,1.38c-.03,1.22-.98,1.73-1.38,2.72-.17.4-.13,1.04-.31,1.5l-.47-.24-.02,2.87c-1.55,0-1.13,1.96-1.9,2.77,1.38.7,1.71,1.65,3.1.22.44-.45,1.66-1.8,2.05-2.27.46-.57.67-1.78.98-2.14.27-.32.82-.26,1.09-.59.47-.57,1.97-4.88,2.32-5.84.05-.14,1.22-2.1,1.32-2.17.17-.12.57,0,.63-.06.2-.21-.16-1.15-.14-1.52.03-.61.6-.59.64-.79.11-.52-.06-1.2,0-1.75l.72.24c-.53-1.02.29-1.31.53-1.99.5-1.36.87-2.09,1.44-3.36.49-1.1.12-1.93,1.62-2.7l-.48-.47c.4-.27.32-.9.48-1.17.05-.09,1.35-.96,1.57-1.11.74-.51.68-1.32.57-2.14-.16-.25-2.18,0-.83-1.73.39-.5,1.11-.46,1.34-.94l-1.44-.12c.25-1.26,1.66-.93,1.89-1.11ZM227.38,130.68c-.95.67.28.97.48,1.44.1.24-.27,1.2.23,1.19.4,0,.15-1.7.6-2.02l-1.31-.61ZM153.09,131.16c-.22-.26-1.44.86-1.2,1.19,1.06-.03.71,1.4,1.68,1.44.03-1.04-.83-1.38-.48-2.64ZM124.05,131.64h-1.68s0,1.2,0,1.2c.73-.18,1.9-.12,1.68-1.2ZM219.81,134.04l-1.19-.61.48-.71c-1.18-1.45-.92,2.15-.45,2.49.69-.02,1.33-.43,1.17-1.17ZM243.32,134.51c-.22-.5,1.14-1.99.37-2.15-.73-.16-.99.65-1.31,1.08l.72.12c.37.53-1.01.53-.48.96.03.02.68.02.71,0ZM137.49,133.08l-.48.13v.83c-.99-.61-2.7-.41-2.64.96.82-.13,1.36.09,2.04.48l1.53-1.36-.46-1.04ZM127.12,134.23l.05-.31c-.79-.93-1.12.93-2.4.12-.48.56,1.06,1.32,1.55,1.44l.8-1.24ZM214.29,136.19c2.6-.71-.78-3.63-.72-1.58.03.85.88.77.72,1.58ZM128.61,135.72l-1.33.47c-.13,1,.86,1.63,1.57.85l-.5-.26.26-1.06ZM136.77,136.2l-2.4-.48c.02,1.59-.27,3.08-.25,4.69,0,.8.74,1.87-.23,2.14.68.88.79,2.31,0,3.11.27.67,1.07,2.98.97,3.61-.06.36-.84-.56-.72.24,1.9,1.33.55,4.34,1.04,5.73.21.61.8,1.14.88.04.07-.93-.31-2.83-.08-3.42.12-.3.95-.54.81-1.26l1.19-.12-.86-.34c-.33-.42.32-2.3,1.09-1.95v-.71s-1.19.48-1.19.48l.24-1.68.96.24-.43-3.21c.12-.63,1.28-.77,1.37-.9.07-.1-.19-.47-.1-.7.28-.69,3.28-2.48.86-2.91-.1-.72.19-1.54-.51-2.02l-2.49.34-.32-.32.16-.6ZM182.85,138.12c-.05-.84.42-2.35-.96-2.16l.24,2.16h.72ZM178.05,137.87c.67-.35,1.82.55,2.16.38.9-.45.49-2.57-.24-1.94l-.38.86h-1.53s0,.7,0,.7ZM215.25,144.36c-1.02.46-1.25-.18-1.92-.84,0-.43,1.98-.42,2.15-1.94.09-.78-.09-3.51-.25-4.29-.06-.31-.32-.74-.6-.85-.4-.15-.6.9-.71,1.2-.63,1.77-1.47,2.91-2.3,4.61-.09.19-.34.16-.46.3.05.71,1.07.75,1.16.88.06.08.29,1.74.24,1.94-.07.3-.48.57-.57.89-.3,1.1-.64,3.07-1.53,3.94-.27.26-.67.11-.73.16-.13.11-.06,2.5-.4,3.3-.16.37-.71.39-.78.68-.08.33.22.66.22.91,0,.2-1.86,2.79-2.04,3.28-.16.43.06.81-.1,1.3-.28.89-1.37,2.46-1.64,3.42-.47,1.72-.1,1.9-.97,3.58-.34.66-.82,2.22-.54,2.95-.43-.36-1.59.13-1.81.47-1.06,1.66,1.66.41,1.97.33.59-.15,1.48.61,1.52-1.04l.72.24c.17-1.78.79-2.1,2.4-1.44l.03-.68,1.17-.4c-.85-.1-1.33.36-1.14-.9.17-1.16,1.07-.31,1.65-.99.27-1.36,1.41-2.52,1.35-3.91-.01-.34-.35-.54-.36-.86,0-1.2.85-2.12,1.65-2.91.14-.13.53-.07.71-.3.35-.45.28-1.98,1.06-2.14.3-.06.73.51.8-.71,0-.05-.7-.27-.45-.83l-.48.24c.04-.44-.06-.91-.02-1.34.15-1.48,1.65-3.91,1.4-5.2-.18-.94-1.27-2.22-.43-3.06ZM204.69,138.35h-.72s0,1.2,0,1.2h-.6s.12.72.12.72c1.23-.29,1.33-.68,1.2-1.92ZM177.57,139.8l-1.19.72c-.44.65,2.01,1.72,1.19-.72ZM180.45,140.04c-.91-.14-1.81-.51-2.64.12.28,1.07,2.56,1.23,2.64-.12ZM204.45,140.28c-.63-.19-.58.69-.88.74-.46.08-.85-.34-1.5-.14s-1.16.86-.98,1.56l2.15-.48c-.02.5.21,1.02.72,1.2-.69-1.47.96-1.24.48-2.88ZM207.32,144.58l-.58-2.38c-.92.57-.32,1.34-.32,2.24l.32.39.58-.25ZM201.33,143.4l-.72-.25c-.22.7-.39,1.59-.71,2.23-.1.19-.51.25-.68.57-1.5,2.89-2.81,5.62-3.95,8.54-.24.62-.74.82-.87,1.09-.58,1.23-1.53,4.86,1,4.33,1.06-.23,2.96-4.01,3.54-5.07.71-1.3,1.5-2.95,2.28-4.24.21-.34.87-.37,1.04-.9.25-.8-.33-1.98-.39-2.83-.03-.41.31-.92.2-1.39-.05-.23-1.56-.83-.73-2.08ZM173.73,148.67l.84.96c1.22-1.65-1.28-2.4-2.28-1.07l.96-.12.12,1.19.36-.95ZM216.65,151.62c-.08-.04-.87.14-1.15-.07v.96s.96-.24.96-.24c-.38,1.15.13,1.64.6,2.64.78-.34.75-1.81.37-2.47-.03-.05-.73-.8-.78-.82ZM228.93,151.8h-1.2c-.07.71-.01,1.25.6,1.67l.6-1.67ZM235.17,153l-.81-.22c-.32.07-1.55,2.97-1.76,3.52-.14.35,0,.84-.19,1.25-.29.65-1.31.98-.84,2.4l-1.2-.96c-.08,1.31-.03,1.81,1.19,2.28-.79.45-.71,1.04-.98,1.61-.1.22-.38.19-.44.37-.2.56-.07,1.8-.62,2.48h-.83c.75.68.08.8.08,1.1-.01,1.8-.1,1.82-.82,3.5-.75,1.76-1.41,3.81-2.28,5.68-.62,1.34-.33.84-.62,2-.12.46-.74.86-.86,1.32-.49,1.93-1.19,4.92-1.27,6.9-.02.39-.02.79.04,1.18l.93.4v.7c-1.01.04-1.61.76-1.44,1.8.18,1.1,1.11.65,1.67.98.19.11.27.5.51.69.22.17.59.17.81.39.77.77.25,1.88.47,2.39.29.65,1.37.71,1.33,1.45l-1.2-.48c.26.95-.69,1.99-.67,2.81,0,.4.56.62.32,1.03-.26.56-.84.2-1.08.36-.32.2-.71,1.07-1.37,1.52-.51.35-1.75.65-1.94.82-.16.14-.15.51-.3.73-.11.16-.38.13-.46.36-.61,1.64.14,3.51-.26,5.1,3.34.1,2.87,3.82,3.36,6.24l-.72-.24c.16.74-.59,1.01-.81,1.44-.3.58-.35,3.39-.64,4.42-.12.42-1.47,4.13-2.15,3.51.62-.32.43-1.91-.24-1.32-.44.39.13,1.52-.17,2.21-.45,1.03-.93-.36-1.99.31l.71.84c-.36.4-1.14,1.03-1.7.97-.63-.07-.9-.62-1.17-.72-.29-.1-.58.17-.91.06-.1-.03-1.03-1.32-1.35-1.53-.6-.4-1.73-.68-2.21-1.05-.35-.28-.1-.65-.14-.69-.15-.15-.63-.11-.86-.33-.26-.25-.44-1.24-1.01-1.51v-.35s.71-.36.71-.36c-.41-.57-1.34-.72-1.45-1.46s.49-1.06.52-1.67c.03-.66-.4-.97-.42-1.2-.01-.21.32-.52.31-.92-.01-1.15-.17-2.35-.17-3.51-.45-.31-2.36.93-3.13.37-.29-.21-.18-1.35-.83-1.57-.51-.18-.16.84-1.08.36-.1-.05-1.78-1.28-1.85-1.37-.07-.09.17-.42-.07-.55-.35-.19-.71.26-1.1-.08-.08-.07-1.08-1.66-1.12-1.77-.54-1.35.04-4.43.55-5.81.21-.58.7-.85.85-1.31.3-.91-.18-1.51,1.06-2.06l-.72-.12c-.4-.91.71-1.18.74-1.35.15-.95-.35-1.75-1.35-1.78-1.48-.04-.81.6-1.2,1.44-.15.33-1.45,2-1.78,2.3-.44.4-1.63.68-1.69,1.3h-.47s-.12-.72-.12-.72c-.5-.03-.58.37-.36.72-.82.43-2.74-1.38-3.14-2.03-.19-.32.04-.63-.2-.97-.39-.58-1.96-1.66-2.63-1.96-.28-.12-.71-.03-1-.2-.07-.04-.82-1.23-.85-1.33-.17-.51.31-.63.38-1.08.03-.19-.07-2.81-.09-3.31-.14-3.33-2.27-.48-2.46-.43-.95.23-1.78-.89-2.07-1-.84-.32-1.99.06-2.66-.63-.45-.47-.16-1.14-.2-1.18-.11-.11-.53-.11-.76-.27-.21-.14-.07-.57-.52-.5-.96.15-1.07,1.34-1.56,1.83-.32.32-1.34.64-1.56.82-.34.29-.39,1.15-1.17.94-.27-.07-.87-.98-1.13-.69-.42.48.49.8.49.86,0,.28-.32.7-.26,1.06l-.43-.18-.16.42-.6-.48c-.19.74.56.84.84,1.44l.61-.95h.35c.72.52,1.79,2.05.6,2.52.29,1.46,1.62-.21,1.68-.12-.26,1.18.56,1.29.92,1.83.31.46.77,1.59.92,1.77.29.37.99.59,1.31,1.08.28.44-.03.91.32,1.32l1.09.24c-.44,2.08,1.01,1.6,1.69,2.27,1.27,1.25,2.87,4.29,4.19,5.4.44.37,1.14.39,1.27.54.14.15.05.63.28.79.26.18.81.06,1.2.25,1.15.55,1.51,1.84,2.32,2.72.61.67,1.71,1.31,2.39,1.94l-.27.97c1.62.52,2.59,1.4,3.73,2.57.74.76,1.85,1.55,2.26,2,.27.3.47,1.2.76,1.64.9,1.33,1.88,2.4,2.27,4.1l.94-.23c.11.08.93,2.17,1.2,2.53.52.69,1.22.86,1.88,1.96s.6,2.86,2.17,2.51l.52,3.56c.73.05,2.15.57,2.76.96.69.44.95,1.53,1.23,1.71.45.29,1.26.17,1.82.29,1.92.39.99,0,1.53-.06,1.95-.23,4.48.27,6.44,0,.75-.1,1.72-.73,2.83-.44,1.34.36,1.26,1.59,2.5-.78l2.96.98.36-.96c.52.28.71.28.6.96l1.2-.72-.14.97,1.23.42.36-.9c2.15-.07,3.71,1.66,5.68,2.37.17.03,2.01-1.39,1.99-1.89.98-.25-.21,1.38.95,1.19-.43-.66.11-1.47-.03-1.99-.1-.34-.64-.51-.69-1.01-.04-.41.29-.93.26-1.44-.13-2.82-.56-5.65-.71-8.41-.03-.46-1.59-1.32-.03-2.51l-1.2.24c-.26-1.31.88-.15.72-1.32-.04-.27-.14-.44-.36-.6l-.24.72c-.77-.6-.11-1.5-.17-2.22-.11-1.32-.94-2.9-.43-4.58l-.48-.51.48.12v-.48s-.72-.37-.72-.37l.71-.13c.04-.19.03-.39.02-.59-.05-.91-.97-2.89-.98-3.83,0-.43.24-.93.27-1.45.05-.9-.48-1.28.46-2.27-1.69-.46.04-1.04-.1-1.81-.03-.14-.83-1.05-.02-.83s.74,1.01,1.09,1.31c.27.23.88.19,1.19.49.46.43.37,2.04,1.44,2.04l-.23-1.43c.48.18,1.72-.83,1.43-1.2l-1.44-.48-.22,1.06-.73.14-.2-.85.67-.58c-.56.13-2.29-.54-2.65-.89-.66-.64-.48-2.01-.6-2.82-.04-.25-.33-.45-.36-.72-.02-.2,1.03-.19.97-1.19-.04-.67-2.11-3.7-1.68-4.22l.72.24c-.41-1.21,1.52-.54,1.44-1.31-.03-.23-.4-1.79-.83-1.57-.84.59-.16,2.35-1.32,2.4-.3-1.69-.61-2.53,1.4-2.91l.02-.66-1.65-.52v-2.02s.48-.25.48-.25c.41.3.4,1.43,1.2,1.32.41-1.01-.49-1.25-.49-1.33,0-.13,1.13-2.35-.24-1.14-.1.09-.17.53-.34.55-.49.05-1.38-2.28-1.51-2.81-.43-1.82-.05-2.34.18-3.8.08-.51-.21-.99-.18-1.2.04-.33.87-.19.66-.7-.3-.72-1.3-.03-1.44-.12-.27-1.3-.04-2.62-.27-3.94-.13-.74-.93-2.36-.96-2.91-.01-.23,1.31-1.32.98-2.04l-.48.24c-.51-2.7-2.24-8.34,1.89-8.67l.03-.93-2.4.96c.4-.88.49-1.66-.49-2.04v-.48c1.29-.64.05-.82-.25-1.17-.71-.85.21-.85.25-1.02.18-.79-.35-1.65,0-2.47ZM240.45,154.44l-1.2.25v.84c-1.3.1-1.65.28-1.46,1.69.05.39.82.49.5,1.31l1.68-.49-.96-1.43.96-.25-.24-1.19c.76.06.81.06.72-.72ZM138.21,157.79c.83-.06,2.3-1.07,1.32-1.92-.52.64-1.3.8-1.32,1.92ZM144.93,157.79h-1.68c.24.56-.58,2.48.12,2.64.52.12.6-.79.83-1.09.37-.48,1.05-.21.73-1.54ZM137.25,158.51c-.96-.15-.21.69-.22,1.06-.32.23-.62.03-.49.61l2.4.24c.19-.82-1-.45-1.38-.77-.23-.19-.26-.83-.3-1.14ZM239.73,160.44l-1.68.6c.78,1.03,1.89.8,1.68-.6ZM236.85,164.76h-.47s-.24,1.19-.24,1.19c1.29-.24,1.03.56,1.42,1.04.21.25.62.17.85.4.46.45.58,2.25,1.32-.23l-1.2-.25.48-1.68c-.8.34-1.2-.54-2.02,0l-.14-.48ZM249.09,170.04l-1.8-.48c-.58.39-.31.88-.09,1.41l1.89-.21v-.71ZM158.13,170.76c-1.65-.51-1.48.64-1.93,1.25-.69.93-1.64,1.19-.7,2.58.36.26,1.34-1.22,1.67-.35.04.11-1.81.43-.96,1.8l-1.15.17-1.01.79c2.46.15,2.45-1.26,3.44-2.78.12-.19.5-.21.6-.49.42-1.06-1.25-1.09-1.41-2.13l1.44-.84ZM130.29,171.72c-1.19,0-.46,1.7-.48,2.4h.72s-.24-2.4-.24-2.4ZM242.13,175.55c.43-.4-1.62-2.43-1.92-2.16-.29,1.09-.33,1.65.24,2.64l1.68-.48ZM138.93,178.44c-.06-.65-.43-1.11.23-1.56-.5-.84-1.49.25-1.44.94.05.79,1.33,2.01-.35,2.55-1.38-.2-.06-2.04-1.56-2.17l-.24,1.92-.72-.48.72,2.88c.72.77.4-1.81.48-1.92.95.2,1.46.57,2.16,1.2v-1.92s.97.14.97.14l.23-1.1c.67-.13.46.25.48.72.93.04,1.04-.62,1.92-.48-.81,2.18,1.92.37.12-.96-.28.8-2.22,1.03-2.31.02l-.68.22ZM174.21,178.91l-.13-.95-1.07-1.45v2.4s1.2,0,1.2,0ZM242.05,179c-.32-.37-1.03-.39-.88-1.28-1.32.06.22,2.12.41,2.16.31.07.7-.04,1.03,0,.04-.03-.44-.74-.56-.88ZM137.35,183.13c-.17-.18.01-.46-.33-.38l-.72,3.36c1.83-.11.83-.93.84-1.71s.75-.59.61-1.05c0-.2-.27-.1-.39-.22ZM153.66,189.39c-.74-1.15.61-4.1-1.42-4.73-1.49.1-.69,1.06-.87,1.99-.13.66-1.15,2.12-1.16,2.25-.06.45.42,1.17.26,1.83-.06.23-.63.36-.86.63-.7.81-.4,1.48-.6,2.28-.75,2.94-2.25,6.83-1.95,9.87.02.19-.11.41-.19.59.82.32,1.93-.24,2.64.37.36.31.27.83.47,1.15.66,1.03.51-.2.83,1.74.05.31.51.43.57.74.25,1.33.16,2.85.32,4.27.14,1.26.98,2.04,0,3.48.71-.07.64.97.84,1,.91.16,1.51-.73,2.92.17.79.5,1.19,1.85,2.22,1.98l.02-.7.97-.16c.12-.17.52-2.12-.15-1.78s.06,1.59-1.08,1.68c.14-.82-.15-1.77-.12-2.52,0-.24.43-.53.37-1.17-.1-1.01-.82-3.12-.84-4.1,0-.21.17-2.41.21-2.53.18-.58.9-.75.86-.83-.64-.73-1.2-1.22-1.2-2.28l.48.24c.24-.62-.34-.39-.49-.64-.34-.59-.07-1.41-1.19-1.29-.2-.75.72-.38.72-1.08,0-.09-1.02-.68-.73-1.56l-.72.24c-.5-.96.4-2.2.43-2.8.01-.23-.78-2.33-.86-2.89-.07-.52-.25-1.49.18-1.86.06-.05.83.04.96-.84l-.84.23c-.54-.26-.05-.68-.17-.89-.04-.07-.41-.06-.44-.22-.2-.98.52-.45-.38-1.85ZM137.97,187.32c-.29-.2-2.45,1.43-2.4,1.56.51,1.14,1.26-.34,1.37-.36.36-.09.87.06,1.27,0l-.24-1.2ZM136.77,196.19c-.92-1.32-1.55-2.57-2.61-.55l.93.92c-1.13.28-.15,2.12-.28,2.62-.06.24-1.12.6-1.15,1.72l.48.22c-.95,1.3.52,1.33.23,2.76.65-.14.21-.79.45-1.09.22-.28.75-.39.98-.71-.64-.2-.52-.47-.48-1.08l.47.48c.45-1.72,1.22-2.65-.46-3.99l.46-.69c-.48-.37-.89-.3-.71-1.08l.38.47h1.29ZM192.6,197.49c.18.22.17.77.46.86.28.1.78-.12.83-.36.03-.15-1.24-2.63-1.92-1.43-.05.56.42.67.63.93ZM159.46,201.48c-.3.07-.8,1.55-.24,1.68,1.21.28,1.03-1.88.24-1.68ZM202.05,201.96l-.9-.19-.54.32,1.08,2.27c.25-.45.31-1.36-.36-1.2v-.23c.51.03.74-.49.72-.96ZM246.93,204.6l-1.3-.24c-.9.22.39,2.55,1.3.24ZM135.62,207.89c.09.04.16.15.3.07,1.12-.15.23-.99.23-1.57,0-.49.55-1.18.38-1.8-.42.65-1.14.19-1.19.24-.54.52.15,1.7.15,1.8,0,.16-.38.4-.41.71,0,.04.51.53.54.54ZM136.27,210.8l-.22-.93-1.68.72.84.95,1.06-.74ZM136.53,213l-2.16.48c.08.28.56,1.66.96,1.07v-.83s1.2,0,1.2,0v-.72ZM158.72,222.73c-.17-.2-.29-.42-.46-.61-1.39.57-.51,1.5-.44,2.23.05.56-.37,1.58-.36,1.68.1.65,1.38,1.38,1.38,1.48,0,.07-.35.28-.4.51-.17.89.68,3.64.95,4.71.08.31.37,1.44.78,1.39,2.32-.81-.54-2.9-.55-3.24,0-.1.42-.48.45-.96.04-.67-.37-1.07-.43-1.63-.15-1.51.63-2.18-.99-3.2l.45-1.91c.07-.35-.28-.33-.39-.45ZM137.25,224.04c-.23-1.87-.92-.95-1.83-.79-.26.05-.64-.22-.9-.15-.45.13-.49,1.34-.54,1.82-.22,2.29.03,6.22.16,8.58.03.61.54,1.19.49,1.94-.03.47-.42.82-.43.96,0,.16.56.66.64,1.22.1.68-.31,1.57-.22,1.87s.64.29.71.55c.09.38.44,2.06.47,2.37.12,1.15-1.46,3.7,1.44,2.62.62-.37-.23-.85-.23-.96l1.07-.83.36,1.2c.92.02,1.84-.24,2.76-.26.4,0,.95.28,1.18.22.33-.08.44-.83,1.04-1.1,1.84-.84,2.88.01,4.18-.18.6-.09.84-1.41,1.64-1.07-.53,1.72,1.38.8.72-.48l1.56.71c.5-1.35,1.35-.48,1.55-.57.6-.27.16-1.33-.14-1.8-.15-.23-.54-.3-.68-.52-.38-.58-.42-1.48-1.23-1.9l-2.2,1.4-1.15-.93-.1.6c-.89.49-1.85.4-2.56-.36l.37-1.92h-.72c.28,1.51-.61,1.38-1.67,1.91-.07-1.13-.93-.44-1.22-.6-.18-.1-.68-1.07-1.19-1.2,1.71-1.21-.81-1.95.45-2.42.43-.15.09-.51-.1-.57-.67-.22-.54.52-1.07.48.68.55.16,1.13.24,1.52.03.15.78.22.47.87l-1.46-.34c-.32-1.6-.75-2.71-.44-4.32.17-.87.73-1.81.7-2.78l.96.48c.38-.92-.67-1.14-.72-1.37-.11-.46.11-1.09,0-1.59-.04-.19-.44-.06-.49-.51-.06-.49.08-1.07.02-1.58l-.86.18-.36-.65-.7.23ZM156.29,224.46c-.24-.53.25-1.66-.79-1.62,0,.99-.12,2.42,1.2,2.4.26-.68-.36-.68-.4-.78ZM125.25,224.28c-.09-.11-1.21-.67-1.44-1.2-.27,1.02-.61,1.82-.24,2.88.45.08.1-.45.29-.67.04-.05,1.06-.44,1.2-.54.17-.13.49-.12.19-.46ZM191.49,223.32c-1.5.17-.27,3.63.96,1.92-.79-.04-.95-1.28-.96-1.92ZM158.39,239.19c.06-.08,1.68-.69.71-1.36-1.62-1.11-1.85,3.09-1.09,3.25,1.06.22.31-1.8.38-1.89ZM242.61,247.07l-.48.17-.48,1.75.82-.5,2.53.26.25-.72c-1-.24-1.58-.54-2.64-.25v-.72Z"/><path d="M81.57,72.11v.96c.63.26.42-.49.61-.5.79-.02,1.97,1.09,2.64,1.21,1.1.2,2.77.12,3.79.27.68.1,2.9.87,3.23.66.11-.07.09-.5.44-.63,1.22-.46,3.02-.02,4.18.54,1.52.73.87,1.16,1.19,2.13.07.21.38.17.41.28.27,1.06-.51,1.76-.38,2.58.12.73,1.07,1.5,1.12,1.78.06.34-.36.66-.4.98-.06.42.26.84.22,1.12-.03.22-.5.21-.62.39-.26.38-.02,2.05.17,2.48.15.35.54.33.62.52.13.3-.22,1.43-.18,1.89.08.97.63,1.8.96,2.69l-.5.48c.3.5.14,1.16.26,1.62.06.25.66.07.48.77-.02.09-.47.11-.5.26-.11.6.35.89.4,1.22.35,2.81-.64,5.9-.65,8.59,0,.88.54,2.51.42,3.32s-.85,2.17-.86,3.19c-.01.85.67,3.16.64,4.01-.02.56-.63,1.24-.68,1.97-.06.97.51,1.32.52,2.15,0,.41.01,3.16-.03,3.32-.05.21-.47.08-.51.52-.06.69-.05,4.07.01,4.81.02.22.48,1.92.55,1.99.12.14.8.04.89.42.05.22-.36,2.41-.39,2.93-.04.55-.27,1.72-.26,1.81.02.36.57.83.61,1.27.25,2.55-.4,5.4-.17,7.65.11,1.06.74,2.22.74,3.36,0,1.38-.52,2.57-.38,4.2.21,2.53.25,5.31.44,8,.03.46.44.93.42,1.48-.02.97-.55,1.43-.12,2.97,1,3.65.94,7.17,1.62,10.87.16.89.24,2.43.46,3.14.14.45.7.72.85,1.55.22,1.19-.01,2.54.05,3.52.01.19.44.21.59.39.5.6.19,2.98.14,3.93,1.46.69.96,2.41,1.2,3.58.04.2.39.19.47.33.55.96-.01,4.93.12,6.19.06.58.87,1.61.95,2.01.07.37-.19.84-.11,1.33.12.75.81,1.88.93,2.93.18,1.58-.08,1.68.48,3.16s-.37,2.15-.43,3.04c-.09,1.2.83,4.03.86,5.33s-.9,1.03-.14,3.05.38,2.2.44,4.35c.04,1.43-.07,3.3.02,4.54.03.44.45.77.45,1.2,0,.47-.45.96-.4,1.41.05.48,1.03,1.54,1.1,2,.06.42-.8.94-.67,1.51.47-.09,1.66.94,1.7,1.32.11,1.08-.88.51-1.24,1s-.17,1.67-.27,2.31c-.14.87-1.17,1.28.55,1.74l-.49,1.44c.67.23.73.76.72,1.43l-.7.14-.02,1.19,1.2-.12c.06.72-.68,1.28-.72,1.94-.05.79.66,1.12.72,1.68.2,1.65-.51,2.99-.7,4.32-.11.76.11,4.22-.02,4.42l-.47-.24c.09.78-.46.92-.97,1.33.85,1.23,1.42,1.38.91,3.06-.2.66-2.11,2.28-2.77,2.51-1.76.61-2.93-.27-4.2-.12-.66.08-2.08,1-2.46,1.06-.65.1-1.26-1.81-1.46-2.34-1.24-.28-2.88.03-4.07-.68-1.26-.75-.2-1.83.85-.49l.24-.6c-1.38-.96-2.39-.7-3,.84-2.31-1.06-4.89-.28-7.28-.75l-.27-1.17c.18,1.28-.45.38-.69.53-.65.4-.22.08-.99.28-1.45.37-2.56,1.11-3.96,1.35l-.14-.94c-.47-.33-3.98.18-4.63-.05-.47-.17-.35-.92-.75-1.17-.42-.11-.77.77-1.25.91-.73.21-4.46-.11-5.41-.25-1.5-.23-2.43-1.1-4.38-1.15s-1.29.81-1.62,2c-.29,1.05-2.27,2.67-3.3,2.94-2.86.77-3.89-2.05-5.48-2.48-.62-.17-2.85.17-3.35-.34-.43-.6.03-1.39-.1-1.92-.08-.34-.52-.6-.62-1.08-.23-1.07-.25-2.23-.54-3.3l.55-.12.17-.48c-.55.02-.9-.17-1.18-.63-.06-.09-.49-2.01-.5-2.15-.05-.78.37-1.93.39-2.82.03-1.38-.52-2.66-.63-3.65-.06-.49.44-1.39.49-2.14.13-1.84-.46-4.48-.26-6.26.1-.85,1.01-1.75.94-2.12-.09-.44-.8-.47-.93-.82-.2-.56-.53-3.67-.19-4.08.24-.28,1.12-.13.9-.66-.43-1.05-1.15-.06-1.2-.12l-.02-2.96c-.48-3.11-1.03-6.06-1.26-9.13-.03-.42-.42-.87-.41-1.21,0-.17,2.24-2.02,0-2.55-.22-.63.65-.63.72-.72s-.44-.49-.49-.85c-.02-.12.05-2.12.07-2.36.08-.93,1.77-.95.91-2.21l.46-.22c-.35-.57-1.42-.12-1.65-.75-.48-1.34,1.17-1.54,1.17-1.65l-.25-1.55h-.95c-.13-.86-.3-1.45.47-2.04l-.48-.23c.24-.89,1.6-1.94,1.69-2.64.11-.93-.78.18-1.08.12-1.07-.92.2-1.93.28-2.79.09-1.02-.79-1.89-.64-2.83.1-.61.83-1.2.87-2.21.03-.82-.62-1.96-.59-2.33.04-.46.71-.77.68-1.46-.04-.75-.86-1.09-.96-1.71-.11-.65.19-1.14.2-1.67.02-2.19-.19-3.82.02-6.03.1-1.01.12-4.21.36-4.9s.93-.73,1.06-1.12c.03-.09.27-1.79.26-1.9-.03-.58-.75-.75-.89-1.23-.29-.98-.24-5.56,0-6.62.21-.93,1.29-.94.53-2.08-.13-.2-.56-.2-.58-.4-.07-.83.05-4.18.29-4.96.15-.48.89-.79.89-1.49,0-1.01-2.49-2.27.5-2.89l-.25-1.55c-.34-.16-.82,1.48-1.08.72-.69-1.97-.19-5.17.61-7.08-.2-1.05-.42.78-.72.6-.09-.6-.24-1.17-.26-1.79-.05-1.76.26-3.82.26-5.53,0-.81-.9-2.46.48-2.4-1.16-1.29-.02-2.18.01-3.1.04-1.21-.7-3.42-.71-4.84-.01-1.84.84-4.16.89-5.78.01-.43-.61-.8-.67-1.42-.05-.53.24-1.08.25-1.65.05-3.42-.12-7.29.27-10.51.03-.28.38-.57.41-.82.05-.44-.59-.63-.65-.95-.05-.29.62-1.15.21-1.77l.48.24v-.6c-.95-.44-1.2-1.57-.24-2.17l-.49-.26c-.11-.49.37-1.57.97-1.54-.08-.44-.39-.39-.72-.24.59-1.37-.34-4.62,1.92-3.84l-.6-1.2-.6.48c-.56-1.38.05-3.23-.07-4.41-.04-.4-1.05-1.93.08-1.97s.38.56.73,1.18c.28.49.83.62,1.2.99.21.21.1.65.4.85.54.35,1.5.15,1.51-.6-1.67-.35-1.56-.96-1.92-2.41l-2.78-.82-.1-1.7.72.48c.56-1.94-1.99-2.1-1.92-3.84l.72-.24-.72-.36.49-.24v-.6s-.49.12-.49.12c0-1.3,1.45-.91,2.4-.84-.58-1.95,1.72-2.26,3.22-2.33.38-.02,1.18.56,2.03-.1.05-.04-.35-.8.65-.94.89-.12,1.43.64,2.17.72s1.37-.29,2.13-.25c.69.03,1.26.46,1.86.55,1.09.16,2.23.09,3.3.42l-1.2.71,1.92.72c-.46-4.67,1.9-.95,2.99-1.2.22-.05.3-.57.54-.73.26-.17,1.8-.54,2.08-.48.17.04.15.42.19.44.15.07.4-.23.63-.15.05.02.56.93.67.93l1.54-.49-.96-.48c.58-1.4,1.5-.71,2.28-.83.22-.04.44-.31.73-.34,1.18-.13,2.3-.29,3.47-.02,0,.41-.88.4-.91.83,0,.14.32.46.37.75.08.42-.59.94.3.81.23-2.26.79-3.42,3.36-3.12ZM82.53,81.71c.03-.7.07-1.5-.48-2.04-.63-.22-1.45-.28-1.95.23-.16.4-.31.81.14,1.09l.48-.71.41,1.15,1.39.28ZM72.39,82.73c-.24-.25-.8-.31-1.14-.3l.24,1.92c-1.16.31-1.05-.84-2.04-1.19l-.36.47.48.24h-.72s.48.72.48.72c-.62.16-1.05.67-1.76.49-.18-.05-.15-.48-.29-.49-.36-.02-1.16.38-1.7.4-.67.02-1.5-.31-2.24-.15l.48.48c-.88-.17-1.71.18-2.52.24-.53.04-1.33-.55-1.8.19-.33.6.1.95.12,1.36.19,3.52-.31,7.36-.61,10.81-.14,1.62.3,4.07.27,5.76-.02,1.09-1.06,7.76.34,7.8.62-.75.84-1.56,1.46-2.38.24-.33.78-.46.83-.66.1-.4-.11-1.89,0-1.99h.96c-.32-1.37.36-1.07.85-1.66.41-.5,1.34-2.12,1.61-2.35.31-.26.79-.17,1.07-.38.15-.11,1.42-3.23,1.46-3.46.07-.33-.26-.73-.09-1.02.24-.4,1.49-.53,1.09-1.67h-.71s0-.73,0-.73c.84.52,1-.33,1.56-.72.23-.16.56-.18.74-.33.28-.23,1.73-1.83,1.76-2,.11-.5-.09-1.11.03-1.61.38-1.54,1.48-3.42.22-4.82l.49-.24-.04-.45-.93-.64c-.11-.16,1.41-.61.42-1.62ZM73.41,83.64c-.31.87.93,1.91,1.68,1.57,1.33-.62-.63-2.03-1.68-1.57ZM82.3,84.83c.14-.71-1.41-1.29-1.44-.6-.03.62,2.65,1.59,2.86.7l-.22-.81-1.19.72ZM75.27,87.06c-.19-.16-.71-.06-.89-.42,1.29-.84-.63-1.56-.96-1.08-.3.43.64.98.7,1.14.12.32.12,1.57.28,1.71l1.17.03c0-.38-.01-1.13-.31-1.38ZM91.17,87.48c-.46-.02-.49-.11-.49.37,0,.33.68,3.12,1.21,2.51-.02-1.11-1.06-1.66-.72-2.88ZM89.42,88.74c-.22-.34-1.33-.85-1.61-.19l1.32,1.56h.6c-.12-.38-.13-1.1-.31-1.38ZM85.65,91.56l-.48.12c.22.65,0,1.71-.37,2.26-.3.44-1.21.72-1.28,1.12s.63.72.28,1.46c-.32.69-1.05.8-1.74.8l.27,2.35c.5.16,1.94.01,2.08.67-.47.78.52,1.68,1.32,1.32l.28.21-.36,1.92,1.33-.22c.4-.67-.13-1.5-.11-2.07.03-.76.16-.71.11-1.76-.06-1.3.5-2.36.5-2.79s-.72-.95-.83-1.49c-.13-.68.16-2.37-.08-3.04-.17-.47-1.05-.2-.94-.86ZM90.35,93.1c-.77-.51-1.67-1.01-1.58.37.82-.22.83.77,1.3.73.28-.03.56-.24.86-.25.23-.25-.43-.75-.58-.85ZM70.53,98.51c-.1-.69-.27-1.64-1.2-1.44l-.24,1.31.49.27.95-.14ZM52.29,99c-.34-.34-2.63,1.23-2.16,1.68h1.92s.24-1.68.24-1.68ZM92.61,103.55c-.42-1.3.45-2.2.63-3.11s-.91-1.09-.87-.37c.07.99.45,1.88-.72,2.4l.95,1.08ZM86.84,104.53c-1.19-.36-1.4-.05-2.39.47.15.7.83.1,1.2.34l.24.61c-1.07-.06-1.61,1.85-2.2,2.73-.22.33-.92.7-1.06.96-.5.86-.42,1.99-.7,2.79-.24.68-1.73,1.6-1.9,1.93-.3.61.03,1.29-.25,1.92-.2.46-.94.63-1.18.96-.13.18-.19,1.53-.61,2-.29.33-1.01.21-1.3,1.12-.08.25.09.57.02.78-.26.83-.86,1.62-.62,2.55.84.38,2.72,1.23,3.32,1.84.26.27.25.69.48.96.24.29.86.42.93.73.08.35-.47,1.28.04,1.88l-1.62,1.63c.18.57.31,1.22-.08,1.74-.29.39-.76.29-.89.44-.22.25.24.79-.53.56l-.24.82.48-.12-.49,1.8-.7.13.23.59c-2-.24-1.37,2.27-2.15,3.26l.47.46c-.35.46-1.03.37-1.43.73-.37.32-.37.89-.52,1.03-.08.08-1.83-.23-1.04,1.48.63,1.37,1.11.33,1.26.26.41-.18,1.16-.19,1.63-.5l.47.24-.12.48c.73.15,1.16-.7,1.8-.7.52,0,2.67,1.22,2.87,1.65.21,1.77.08,4.02-.89,5.59-.27.43-.8.54-.88.82-.07.26.2.63.14.88-.19.79-.68,2.28-1,3.04-.65,1.54-2.54,2.73-2.88,4.29-.11.51.51.88-.37,1.11.9,1.16-.11,1.03-.84,1.79-1.03,1.07-.42,1.18-.64,1.98-.27,1-1.26,1.73-1.16,2.83l-.72-.48c-.02.85.02,2.16-.3,2.94-.28.68-1.61.9-1.14,2.33,2.53,1.03,2.68-1.77,3.91-2.8.36-.3,1.5-.52,1.59-.94.07-.31-.47-.76-.46-1.18.01-.5.86-.9.91-1.47.03-.38-.38-.75-.42-1.18-.08-.99.03-2-.01-2.99.26-.02.58.06.81-.02,2.51-.83,4.23-1.45,6.76-1.89,1.39-.24,1.35.45,1.45.46.3.03.81-.38,1.24.06.13.13,1.4,3.24,1.4,3.42,0,.52-1.03,2.03-1.22,2.54-.51,1.42-1.14,3.08-1.64,4.6-.43,1.32-.69,4.19-1.13,5.04-.16.31-.76.43-1.06.92-1.65,2.66-2.84,6.89-4.09,9.83-.84,1.98-1.73,3.72-2.59,5.58-.49,1.05-.64,3.45-1.18,4.46-.08.15-1.48.55-.75,1.24,1.47.35,2.06,1.04,1.28-.95,2.73-.06,2.05-1.15,2.51-2.89.3-1.13,1.89-3.18,2.01-4.49.06-.66-.46-.98-.45-1.36,0-.11.31-.13.39-.25.3-.48.98-1.45,1.12-1.89.42-1.32.73-2.02,1.23-3.33.2-.53.07-1.13.29-1.63.42-.97,2.24-1.13,1.07-2.88,1.7.46,1.37-.86,2.64-1.21v-.47c-.73.15-1.3-2.55-1.09-2.88.49-.8,1.75-.27,2.32-.38.71-.13,2.85-.78,2.99-1.53l-1.28-5.01c-.25-3.67-.41-7.28-.21-10.92.03-.62.42-1.38.38-1.95-.16-2.29-1.25-4.92-.2-7.44-.14-.75-.55-5.19-.4-5.41.11-.16.65-.21.61-.35l-.25-.59-.47.23c.15-1.21-.15-2.58-.13-3.73,0-.34.42-.67.37-1.18-.05-.58-.9-1.09-.97-1.71-.32-2.74-.73-6.87-.57-9.62.1-1.76.57-3.1.32-4.99-.58-4.42-.3-8.08,0-12.48.05-.65.41-1.33.24-2.04ZM49.89,114.36c2.15-.37-.21-2.38-1.27-2.12l-.44.31c.05.76-.44,1.57-.47,2.17-.14,2.71,3.04,2.53,2.06.59-.34-.67-1.59-.4-.84-2.16.67-.05.98.62.96,1.2ZM91.81,116.6c-.16-.23-1.29-1.35-1.59-1.04-.33,1.35.78,1.72,1.92,1.92-.16-.28-.17-.64-.32-.88ZM61.62,125.12c.11-.14-.44-2.9-.79-3.34-.55-.68-1.93-1.12-2.25-.05-.19.65-.11,3.21-.06,4.04s.54,2.56.5,3.57c0,.14-.44.11-.48.3-.12.47-.13,3.2.6,3.19,1.37-.8.73-1.84.89-2.7.09-.46.79-1.33.87-2.04.07-.59-.13-1.94.07-2.54.12-.35.57-.32.66-.43ZM49.17,130.43l-.22-1.82c-.51-.71-1.68.03-1.46.86.3.01.73-.06.98.11.37.24-.07,1.06.7.85ZM97.17,132.6l-.96.25c.41.86-.29,1.53-.48,2.39l1.14-1.38.3-1.26ZM64.05,136.67c-.28-.51.21-.91.47-1.32l-1.08-.59c-.58.44.21,1.1-.59,1.55l1.2.36ZM66.21,143.4l-1.65.27-.03,1.41c.7.58,1.94-1.43,1.68-1.68ZM72.93,147.72c-.39,0-.84.07-1.21-.12-.42-.21-.29-.84-.71-.84-.69,2.57.34,2.53,1.92.96ZM71,154.41l-.11-1.65c-.09.39-1.88,1.63-1.56,1.92l1.67-.26ZM70.05,175.3c.11-1.57-1.6-1.94-2.87-1.91-.14,1.61,1.5,2.45,2.87,1.91ZM50.13,180.12c0,.96,1.31,1.35,1.91.6l-1.91-.6ZM69.09,180.6c-1.61-.3-1.42.32-2.16,1.44,1.07-.07,2.01-.2,2.16-1.44ZM52.77,183.95c-.38-1.04.98-2.26-.6-2.88-.84,1.07-1.11,2.77.6,2.88ZM49.41,181.32c-.4-.48-2.09,2.05-.56,2.12.98.04.55-1.58.56-2.12ZM86.37,195.95c1.37.55,2.25-.81,3.01-.95,2.55-.49,4.3.47,3.61-3.36-.16-.87-.82-1.88-.85-2.3-.02-.46.31-.92.24-1.42-.08-.59-1.03-1.74-1.76-1.53-1.24.35-.6,1.52-.76,1.88-.88,1.9-1.93,3.89-2.79,5.86-.27.61-.89,1.02-.7,1.82ZM95.23,187.78v-.94c-1.02,1.04-2.7-.51-2.14,1.68.69-.74,1.21-.64,2.14-.74ZM67.17,187.08h-2.16s.72,2.16.72,2.16l.72-.24c-.59-.91.72-.88.72-1.92ZM49.41,191.64l-2.16-.48v.96c.08.08,2.1.1,2.16-.48ZM88.29,198.83c-1.18-.4-2.04.67-1.08,1.68.53.11,1.22-1.18,1.08-1.68ZM60.12,200.44c.3-.52.4-1.02-.26-1.26l-1.08.16c.26,1.33-.56.76-.99,1.28-.09.11-1.13,2.52-1.12,2.67,0,.24.74.58.86,1,.18.63-.28,1.19.53,1.39-.67.69-1.01,1.49-1.19,2.41-.91-.12-2.49-.11-1.29,1.05h1.66c.12.1.8,1.67.82,1.84.04.43-.27.92-.25,1.43.07,2.2,1.06,5.35,1.13,7.72.02.78-.42,2.79-.33,3.34.04.24.52.2.65.52.43,1.1-.07,3.17,0,4.25.16,2.7.81,4.55.5,7.22-.2,1.75.67,2.86.64,4.36-.04,1.93-.07,5.25-.25,7.11-.04.47-.41.87-.4,1.35.76.2,1.69.42,2.47.19.62-.18,1.28-1.26,1.56-1.38,1.92-.76,4.06-.91,5.98-1.65l.68.44.24-.48c.77,1.6,1.52,2.3,3.39,2.39.64.03,1.2-.28,1.88-.24.85.04,3.3.55,3.61,1.45.13-.78,1.12-.48,1.65-.19.47.25.15.69.36.8.33.18,2.1.19,2.54.11.93-.18,1.33-1.72,2.4.24,1.26-1.45,2.87-.95,4.57-.95.57,0,1.11-.3,1.65-.25,1.08.11,2.38,1.16,3.74.48-.67-1.02.23-1.48.49-2.26.15-.46.67-2.09.7-2.44.11-1.01-1.17-2.44.24-3.1-1.41-.68-1.2-1.9-1.46-3.1-.11-.52-.51-.74-.48-1.45.02-.76.64-1.13.63-1.59,0-.19-.34-1.57-.42-1.74-.18-.36-.66-.36-.69-.54-.06-.33.99-2.25,1.46-2.38-1.75-1.98-.34-4.12-.72-6.36.66-.2.35.38.66.48.2.07.56-.08.74.04s.14,1.14.88,1.11l1.08-1.63c-.56-.32-2.96-.43-3.09-.51-.64-.4-.19-2.2-.27-2.71-.06-.38-.42-.65-.49-1.22-.11-.77.44-1.47.43-1.87-.03-1.02-1.07-1.56-.41-2.65.09-.15.47-.14.49-.32.05-.5-.4-1.92-.44-2.61-.05-.74.78-1.53-.76-1.57.68-2.19-.2-4.1-.25-6.23-1.33-.21-1.03.52-1.43,1.33-1.17,2.37-1.55,4.09-2.48,6.4-.69,1.71-1.8,3.26-2.45,4.99-.35.93-.43,2.16-.89,3.19-.26.59-1.28,1.77-1.49,2.35-.93,2.52-1.54,4.65-2.11,7.01-.19.79-1.2,2.04.05,2.71.59.31,1.2-.23,1.79-.14.46.06.59.48.85.58.3.12.5-.15.97.25.94.78.47,1.61.84,2.31.45.87,1.09,1.11,1.71,2.59.18.41.69.12.56.65-.38.71-1.55-.26-1.23,1.53-1.03.29-1.73,1.05-2.78,1.42-.67.24-1.32.18-1.81.35-.58.2-1.97,1.77-1.38-.29-.12-.11-2.73.93-3.1,1.09-.29.13-.46.55-.75.7-.74.39-1.63-.36-2.29-.69-1.44-.71-3.12-1.87-4.79-2.29-.41-.11-.96.09-1.4-.05-.32-.1-2.03-1.96-2.46-2.33-.53-.46-1.08.04-.81-1.47l-.72.24c-.25-.85.66-1.57.69-2.27.01-.33-.21-3.3-.26-3.58-.06-.32-.61-.46-.65-.97-.1-1.34,1.31-2.61,1.37-3.42.03-.42-.41-.7-.38-1.12.05-.75,1.63-2.91.42-3.66-.39-.24-.88.29-1.56-.34-.49-.46-.66-1.43-.9-1.63-.42-.34-2.04-.23-2.65-.77-.3-.26-.72-1.59-1.23-1.95-.37-.26-.87-.18-1.1-.34-.43-.3-.14-2.58.05-3.09.13-.35.91-.42.85-1.28l-.42-1.27,1.2-.12-.98-.73c.78-1.5,0-3.48.26-4.78.11-.55.78-.83.7-1.17-.05-.21-.51-.45-.64-.81-.52-1.42-.16-2.35-2.22-2.7-.2-.56.32-.43.39-.56ZM77.49,200.27c.6-.66-1.23-1.6-1.62-.33l.19,1.05c.26-.51,1.38-.66,1.44-.72ZM82.05,202.44c.48,1.17,1.68.44,2.66.36l.22-1.56-.96,1.19-.95-.71.24.96-1.2-.24ZM98.61,202.68c-.48-.48-2.71,1.66-.26,1.42l.26-1.42ZM84.21,204.83c-.78.39-2.23-.12-2.81.78-.44.68-.88,3.67-1.25,4.63-.16.42-.68.78-.71.97-.05.26.69.99.46,1.53,1.54-.03,2.38-2.02,2.82-3.3.12-.35-.02-.78.05-1.09.07-.28.61-.25.7-.56.07-.26-.2-.63-.14-.89.09-.38,1.01-1.94.88-2.08ZM63.33,216.12c-.52,1.99,2.07.55.36-.5-.44-.27-1.27.17-1.81.02.2.63.94.47,1.44.48ZM70.53,221.4c-.33.53-.84.91-.12,1.43l.84-1.3c-.06-.26-1.19-.84-1.43-.25l.72.12ZM77.25,220.92c-.35-.33-1.19,1.22-1.5,1.25l-.42.67,1.92-.24-.22-.61c.62,0,.43-.86.21-1.07ZM100.29,242.75c.46-.34-.41-2.46-1.43-1.91-.21.75.55,2.56,1.43,1.91ZM52.53,249.24c-1.47.55-2.93-.74-3.36,1.31.2.97,2.54-.76,3.2-.59l.16-.72ZM49.89,253.32c.48,1.8,1.45.63,2.34.3.37-.13.86,0,1.26-.18.67-.32.57-1.67.37-2.29-.41-.63-1.09.15-1.5.21-1.09.15-.43-.27-1.77.38-.45.22-1.28.09-1.18.86h1.68c.28.79-1.08.59-1.2.72Z"/><path d="M274.05,91.55c.06-.36-.04-.82,0-1.2-.77-.17-1.35.48-2.05.51-.65.02-.99-.49-1.55-.27-.62-1.37,1.3-2.84,1.4-3.29s-.5-1.06.28-1.27l.52,2.83c.25.08.59.43.8.05.64-1.13-1.45-2.6-1.21-3.13l2.77-1.91c-.09.85-.25,1.42-1.2,1.44l.96.72c.04-1.1.7-1.41,1.44-2.04l-.95-.36c-.05-.39.4-.14.57-.54.13-.31-.11-.89.13-1.03.46-.21,1.01-.01,1.47-.23s.39-1.28.96-.71l.48.83-.19-1.87c.98-.64,1.18-1.65,2.59-1.01l-.03-1.16c-2.02-.51-.06-.75.04-1.95l.45.03.14.45.6-.72.6.24-.37,2.16c1.03.53,1.08-.83,2.16-.72-.24-.72-.9-.51-1.44-.6,1.06-.99.97-2.1,2.2-2.85,2-1.23,3.8-.9,5.96-.88-.37-.87,1.44-1.22,2.06-1.22.44,0,.3.45.5.5.6.13,1.43-.12,2.1.22l.38-1.18,1.85,1.93c1.07.13,2.03-.47,3.07-.51.92-.03,2.36.28,3.36.28.52,0,3.61-.6,3.71.11-.62,1.55,0,3.28.02,4.78.03,2.29-.51,6.1.35,8.3.17.43.77.91.78,1.07.01.13-.42.83-.44,1.44-.03,1,.44,2.29.42,3.33,0,.47-.37.99-.36,1.48,0,1.05.96,2.18-.03,3.58l.95.5c.03.46-.6.62-.69,1-.1.42.32,1.5.19,2.34-.11.7-.72,1.2-.72,1.94-.04.5.68.5.75.77.16.61-.24,1.3-.26,1.89-.07,2.3.22,5.48.51,7.65.09.68.69,1.5.68,1.94,0,.42-.44.78-.47,1.22-.04.56.4.88.43,1.22.04.43-.56.92-.44,1.6.03.18.45.16.57.45.72,1.81.54,4.4.67,6.29.07,1.04.46,1.94.02,3.13l.92.38-.5,1.3c.12,2.1,1.56,6.01,1.2,7.92-.46,2.42-.06,1.82.03,3.85.05,1.04-.24,2.5-.18,3.58.04.71.78.59.89,1.22s-.08,1.47,0,2.16c.15,1.33,1.08,3.57-.72,3.97l.48,1.43h-.72c-.12.36.08,1.39.48,1.09l.83-.84c.33.07.59,1.47.61,1.81.03.54-.13,2.87-.37,3.23-.06.1-.31.32-.36.24l-.02-.95h-.7c.31-.33.98-1.96.36-2.17-1.49,1.31-.16,3.7,1.56,4.08-1.13,1.17-.51,3.02-.72,4.18-.19,1.06-.99,1.03.25,2.42-.39.01-.94,1.45-.92,1.64.02.29.42.62.45,1.02.03.5-.42.74-.43,1.13-.04,1.37.8,4.11.66,5.55-.05.48-.46.85-.48,1.34l-.48-.96c-.51-.07-.52-.02-.48.48l-.72-.48v1.19c2.22-.12,1.05,1.94,1.44,3.37-.93-.07-2.07-2.99-2.64-.96.58-.34,2.69,1.49,2.77,1.8.02.09.03,1.27,0,1.32-.2.41-.85.3-.85.71l.48.14c-.45.72.2,1.28.22,1.92.03.56-.4,1.25-.24,1.85.07.25.59.23.69.56.21.63-.12,1.82.29,2.58l-1.45.63,1.93.89c.23.94-.66,1.45-.65,1.87,0,.25.49.77.62,1.22.32,1.1.07,1.93.26,2.98l-.72-.24v.96c.48-.34,1.34,0,1.57.48.14.3-.13.69-.07,1.02.11.66.83,1.76-.06,1.63.91.79-.03,1.34.01,2.04.09,1.5.49,3.16.42,4.79-.05,1.31-.72,3.37-.29,4.42.22.55.92.91.58,1.94-2.34-.67,0,1.08.18,1.62.31.9.02,1.95.12,2.55.06.33.58.64.58,1,0,.49-.98.93-.59,2.34.27.97.7,1.66.68,2.93l-.47.23c.2,1.13.79,2.16,1.52,3.04.62.74,1.91.91-.1,1.78l.51.82.93-.1-.25,1.08-1.2-.48c-.4.88.53,1.97.49,2.5-.03.43-.52.72-.62,1.09-.22.79-.44,3.61-1.19,3.85l-.46-.46-1.08.24c.24,1.07-.54.81-.86-.02l-1.32.73c.32.69.82,1.13.48,1.92l-.96-.24.48.72c-1.07.25-.59-.51-.95-1.03-.15-.22-1.28-1-1.45-.89l.12.95c-1.04-.95-4.97-3.98-4.23-.75-1.12.76-1.25.52-1.89-.57l-.72.13c-.08.78.43,1.31.96,1.8,0,.41-2.77,1.29-3.24,1.28-1.05-.02-2.65-1.1-3.95-.68.12.84.96,1.03.72,1.92-1.19.18-2.46-1.21-1.44-2.16-.53-.05-.94.33-1.5.19-.82-.2-1.79-1.72-2.27-1.84-.4-.1-1.01.29-1.61.2-.42-.06-3.19-1.58-3.92-1.86-.31-.12-.69-.05-1.02-.06l.48-.36c-.4-.43-1.09-2.13-1.75-2-.21.04-.41.43-.73.41-.1,0-1.69-.7-1.77-.75-.19-.12-.2-.57-.71-.85-.63-.33-1.36-.2-2.02-.4-.16-.49.15-.54-.46-.73l.49-.27-.02-.79c-1.38-.21-1.78.08-2.38-1.34l1.92-.36c-.2-.49-1.13-.33-1.43-.9s-.24-1.56-.25-2.21l-1.07,1.21c-.28.26.13,1.44-.49,1.19-.32-.62-1.68-1.57-1.91-1.93-.2-.32-.17-.85-.41-1.27-.75-1.31-2.46-2.74-2.59-4.61-.04-.56.31-1.46.47-2.03l-.72-.24c.16.02.43.04.48-.16.4-1.55-.67-.79-1.1-1.28,0-.71.04-1.31-.58-1.81,1.3-.68.03-.42,0-.48-.1-.25-.05-.68-.22-.93-.18-.26-.79-.09-.96-.54-.24-.65.29-1.56.22-2.25l.72.24c.44-1.23.16-1.86-1.17-1.95l-.27-1.65-.72.24-.22-.82.89-1.23c-1.16-.61-1.94-1.37-2.35-2.63l1.53.29,1.11-.65c-.8-.07-1.19-.31-1.92.14l-1.41-1.51.7-1.99h-.8s-.16-.72-.16-.72c.05-.06,1.34.47,1.39.53.14.18,0,.67.16.92.21.31,2.38.63,2.53.47.08-.7.01-1.25-.6-1.68l-.13.7-1.19.02.46-1.05-.72-1.35h-.83c-.3-.99-.46-3.23-.95-4.08-.31-.55-1.36-.2-.9-.91-1.34-.3-1.06-3.92-.39-4.36l.69.23.48-1.2c-.84-.08-.98-1.29-1.34-1.91-.1-.18-.52-.2-.58-.42-.21-.8.54-1.27.5-1.85-.05-.64-1.06-1.27-.97-1.34,1.29-.14.52-1.48.56-2.25,0-.06.19-1.04.22-1.08.08-.1,1.16-.14-.08-.66l.28-.81c.54-.05,1.22.08,1.18.7h.35s.36-.6.36-.6l-2.16-.6.73-1.91.45.02.14.46c1.27.03.58-.88.6-1.69l-1.91.96c-.85-1.31.12-3.03,0-4.19-.05-.51-.61-.68-.69-1.01-.12-.48.36-1.95-.29-2.8.01-.08,1.23-.83,1.38-.84.09,0,1.54.77,1.28-.39-.11-.47-1.46-.71-1.92-.61l.45-.6-.91-1.3c1.12-.17.43-1.21.46-1.82.03-.56.32-1.08.26-1.68-.06-.68-.8-1.12-.39-1.8.63.02,1.58-1.42,1.69-1.43.68-.03-.1,1.56.48,1.67,1.52-.72.46-1.14.37-1.38-.31-.89-.14-1.43.22-2.22-1.85.79-1-1.2-1.56-1.44l-.6.96.47-2.06c.28-.22,1.43.91,1.69-.1-1.47.27-1.11-.37-1.58-.94-.28-.34-.71-.29-.82-.86-.19-.93.41-1.47.4-1.68,0-.18-.45-.44-.4-.71s1.15-.33,1.2-.97l-.72-.48c1.31-1.09-.4-1.39-.49-1.73-.18-.72.25-1.57.23-2.31-.05-1.64-.81-3.02-.96-4.59l.71-.14c.36-1.11-.51-1.67-.69-2.62.8.04.65,1.23,1.68.6-.61-.67-1.47-1.14-2.4-1.08-.22-.61.72-.61.74-.85.02-.28-.4-.67-.45-1-.09-.56.03-1.12-.06-1.62-.1-.55-.73-1.06-.47-1.81l1.2.24v-.96s-.92-.03-.92-.03l-.26-.81.94-.12-.24-2.16c1.67.33-.15-1.45-.02-2.27.02-.12,2.23-.61.74-1.57l-.48.72.03-1.18c.64.06.86-.23.93-.86l-.84.12-.12-.48c1.46-.32.7-2.03.82-2.9.13-.93,1.33-2.37,1.34-2.51,0-.11-.38-.06-.47-.29-.33-.9-.35-2.03-.74-2.94h.7c-.31-1.03.42-1.17.45-1.24.06-.15-.18-.37-.17-.53s.45-.11.56-.67c.12-.63-.16-1.56-.81-1.77,1.56-.66.7-2.13.78-3.41.01-.2.19-1.56.23-1.8.02-.1.65-1.74.72-1.81.23-.23.88-.13,1.04-.78l.82.25.24-1.44c-.64.49-.96.73-1.56,0l-.12,1.43c-1.51-.06.2-2.87.25-3.74.02-.48-.41-.73-.38-1.08.01-.18.75-2.42.83-2.52.5-.6,1.45-.07,1.94-.7l-.49-.26c-.15-.76.47-1.05.79-1.61.25-.44-.3-1.09,1.15-.89l-.68,1.08c.85,1.1,1.55.68,1.87-.51,1.3.39.77-.4,1.69-.57-.05.31-.44,2.06-.51,2.14-.05.06-1.13-.03-.93.98,1.88.3.85-1.62,2.37-1.71l.03-1.41c-.3.03-.68-.05-.96,0ZM291.33,94.43c.16-.86.12-1.46-.72-1.8l.68-.4-.2-.44c1.23-.51,1.97.01,3.06.18.32.05.7-.19.88-.15.64.15.27,1.75-.1,2.13,2.54-.98.65,2.43,1.9,3.74.98.45,2.02-.3,2.93-.24,1.04.06,1.57.8,2.49,1.06l2.23-1,.53-1.27-.72-.59c.58-.3,1.74-1.11,1.68-1.8l-.97.02-.46-1.01-.73.15.24-.84-.73-.12c-.23-1.02,1.02-.07,1.2-.24.14-1.37-.77-1.86-1.2-3l.93-.51c.54-2.65-.87-1.64-1.82-2.32-.45-.33-.47-1.37-.77-1.75s-1.47-.59-1.99-1.06c-.39-.35-.52-1.02-.84-1.22-.13-.08-2.88-.4-3.03-.38-.55.08-2.37,1.42-3.28,1.73-.54.18-2.36-.1-2.2,1.02-1.29-.07-1.34.85-2,1.51-.18.18-.55-.01-.72.22-.47.64-.28,2.01-1.57,1.93v-.54s-.48-.17-.48-.17c-.75.8-.15.98-.22,1.52-.03.23-2.53,2.75-2.87,3.42-.54,1.07-.48,2.28-1.51,3.19l-.67-.21c.04.77.47,1.71.2,2.48-.14.39-.76.48-1.03.89-.64.98-.51,2.99-.62,3.11-.09.1-.74-.32-.91.66-.13.76.37.45.44.7.33,1.29-1.27,3.46-1.38,4.55-.1,1.02.75,1.18-.11,3.03-.19.42-.94.8-.55,1.13l.6-.48c-.35,1.21.2,2.42-.01,3.71-.24,1.42-2,3.21-.95,4.45l-.96.36.48,1.32c.61.1.72-.49.72-.96l1.44.24c.04.96-1.06,1.26-.72,2.4.8.34.81-.65,1.08-.72.17-.04,1.36,1.01,1.55.12.09-.41-.67-.62-.72-1.2-.04-.46.36-1.03.24-1.56l-1.44.48c0-.5-.04-1.01.05-1.5.05-.26,1.15-2.95,1.27-3.07.19-.21,1.21-.15,1.56-.47.08-.45-.46-.11-.67-.28-.06-.04-.32-1.1-.3-1.24.02-.1,1.42-.97,1.21-1.6-.35-.41-1.33,1.66-1.18.63.37-2.39.27-1.11,1.5-1.87.91-.56.42-2.95.5-3.09.37-.57,1.29.07,1.81,0l-.72-2.88.86-.23.1-1.69c.53.14.46.57.25.95.43.25,1.31.13,1.61.31.37.22.64,1.63,1.98,1.14l-1.06-1.46c-3.01-.51-2.38-1.82-1.46-4.06.39.02.95-.69,1.01-.71.97-.26.76.48,1.14.63.27.11,2.49.04,3.01.32-.45-1.93-2-1.03-3.29-1.62-.24-.11-.39.06-.3-.41l1.08-1.81.6.48v-1.92c1.04-.09.93,1.24,2.16,1.44l-.69-.75.22-.93c.5-.03.94.23,1.43.24-.1.51-.51.79-.48,1.31l.96.37v-1.44c.95.43,1.45.05,2.16-.6-.52-.26-.99-.81-.97-1.43,0-.2.75.02.49-.61l-1.09.22.14,1.69c-.74-.18-.6.48-1.2.48ZM283.65,82.44c-1.33.09-4.13-.98-3.12,1.2l1.67-.72c.34,1.34,1.6.86,1.45-.48ZM269.57,96.27c-.23-.17-.22-.73-.67-.64-1.16.23.96,2.51,1.8,2.16.14-1.21-.56-1.11-1.12-1.52ZM269.25,100.2c-.11-.36.51-1.56-.13-1.68-1.12-.21-1.29,1.91.13,1.68ZM304.05,98.51c-.87-.25-.82.58-1.2.82-.16.1-.47-.12-.48-.1-.37.58,1.16,3.08.24,4.2-.41.5-1.49.36-1.2,1.32l.48-.24c.2.91-.41,1.57-.59,2.37-.06.27.15.65.06,1.04-.11.49-.83.96-.43,1.63h-.96s0-.96,0-.96h-1.68s.14.74.14.74l1.05.23c-.14,1,0,1.97-.26,2.96-.41,1.61-2.17,6.83-3,8.04-.45.66-1.03.23-.62,1.75l-2.02,4.39c.03.22.1.5.31.62.18.11,3.18,1.14,2.24.22l-.48-.24c1.1-.07,2.42-.71,3.12.47-.74.04-.79.54-.72,1.2h.72s-.24-.72-.24-.72c.65.24,1.65-.21,1.88.65.12.45-.14.88-.08,1.15.11.51.55,1.02.59,1.71.04.77-1.72,4.85-2.21,5.66-.31.51-.72.85-1.13,1.27l.49.25c-.3.47-.14,1.21-.3,1.62s-.66.41-.8.64c-.22.36-.05.94-.25,1.43-.29.73-1.5,1.4-1.68,1.69-.28.45.13.95.01,1.22s-.65.35-.85.64c-.37.55-1.22,2.01-.11,2.22,1.47.28,2.09-.78,3.48,0l-.24.72h.95c.07,2.1,1.08,3.99.72,6.11-.19,1.1-1.2,3.03-1.59,4.16-.54,1.55-.82,2.62-1.09,4.19-.22,1.27-.79,2.9-1.06,4.21-.21.99-1.01,4.11-.66,4.83.46.95,2,1.46,1.31,2.89,1.87-.58.48,1.71.48,2.52-.01,1.8.86,3.38.19,5.47-.44,1.38-.23.82-.43,2.19-.02.13-.67,2.47-.73,2.59-.17.39-.94.36-.95,1.02,0,.33.74,2.39,1.18,2.03.1-.08-.16-.57.25-.47l.24.48.12-.48,2.28,1.69c-.17.51-.69.75-1.2.72l.28.7c1.24-.29,1.69.56,1.65,1.7l.72-.48c-.14.63.43,1.53.37,2.04-.06.55-.85.92.11,1.8-1.65.44.19,1.38.59,1.94.83,1.15.49,4.95.92,6.76.11.47.64.93.65,1.54,0,.55-.44.78-.46,1.16-.02.4.34.88.22,1.41-.04.17-.41.13-.47.34-.09.31.07.77-.11,1.04-.2.3-.92.11-1.22.46-.45.52.04,1.55-1.7,1.43-.49-.04-.59-.49-.81-.57-.25-.09-.8.14-1.28.07-.65-.1-.63-.59-.71-.63-.19-.09-.46.19-.79-.02-.61-.39-2.09-2.51-2.8-3.11-1.09.41-1.43-.72-2.23.39l-1.08-.42c.14.54.93.26.72.96-.89.03-1.76.37-2.16,1.2l.48.36-1.56,1.32-.12-.96c-1.05.14-.59,1.02-.94,1.53-.2.3-1.19.15-1.23,1.01,0,.09.39,1.49.47,1.67.36.81,1.18,1.57,1.4,2.23.2.61.43,3.5.56,3.63.07.07.52,0,.82.27.66.59.75,1.55,1.2,2.17.77,1.08,2.57,1,3.74.7-.18,1.02.49,2.11,1.32,2.64.35.23,3.1,1.44,3.38,1.43.46-.03.8-.72,1.51-.82,1.52-.22,3.92.78,5.7-.15.72.82.67.22,1.41.26.86.05,1.54.57,2.84.19.63-.19,1.25-1.64,2.33-1.39v-.6c-1.68-.84.25-2.19-.48-3.48h.72c-.25.52-.48,1.17.24,1.44v-1.44c.82.19,1.12,1.02,2.16.72l-.48-.72c2.56-.07.05-.9-.12-1.2-.24-.42.04-1.12-.48-1.44-.47.63-1.2,1.06-1.93.48-.46-.66,1.23-1.49,1.33-2.16-.84.31-.91-.37-1.14-.47s-.67.03-1.02-.13c-.96-.45-.28-2.78.44-3.36-1.75-1.15-.58-2.42-1.36-4.09l.93-.73c.03-1.57-1.36-1.58-1.57-2.01-.26-.51,0-1.45-.36-2.04.56-.68,1.66.87,1.92.6.04-.75-1.14-1.43-.61-2.17.75-1.05,2.09,1.55,2.53-.1l-.87-.83-.81.46-.48-1.92h1.44c-.23-.51-.05-1.07.36-1.44l-.12.96c1.26.14,2.05-.02,1.57-1.45-.36.05-1.79-.45-1.9-.43-.49.09-1.22,1.7-2.07-.15l.96-.48c-.1-.34-.19-.78-.38-1.06-.34-.51-.96-.29-.82-.97.9-.23,1.5,1,2.19.13.49-.63-.38-2.35-.95-2.89.77-.39.84-1.66-.04-1.2-.13.07-1.07,1.01-1.2.84-.02-.03-.14-.79.18-.72l.51-.02.03-1.19-.96-.36c.47-.92,1.54-.21,1.8-1.09l.84.49v-.81c-.79-.19-2.59-1.44-3.3-1.19-.41.15-.11.75-.78.56l-.25-1.31c1.29-.33.96-1.7,2.72-1.07,1.02-1.38-.01-.75-.55-1.1-.25-.16-1.34-.83-1.41-.89-.12-.11.1-1-.99-.93v-2.74s1.19.12,1.19.12l-.48,1.2,1.92-.48c-.93-1.43.07-1.96-.05-3.17-.08-.84-.62-.92-.66-1.08-.22-.87.28-1.29-.96-1.87,1.73-1.54-.54-1.94-.26-3.08.04-.18,1.07-.46.6-1.61l.86-.23c-.09-1-1.32-.39-.23-1.74.18-.22.45-.17.47-.19.03-.05-.4-.71-.46-1.08-.36-2.16.84-1.39,1.9-2.87l-.72-.6c-.04-.05.96-1.03.12-1.19s-.38,1.86-2.03,1.08c-.94-.45-.06-1.1,0-1.7.09-.89-.84-1.98.96-2.02l.12.96c2.2-.3,1.24-1.76,1.56-3.36-1.19.18-1.65-.28-1.69-1.44-.96-.2-.7.36-.92,1.12-.12.4.18.68-.51.56v-3.6c1.31-.23,3.22.22,3.36-1.44-.62.11-2.58-.96-2.58-1.59,0-.42.34-.68.38-.98.13-1.07-.21-2.85-.32-3.9-.26-2.55,1.22-.52,1.8-2.16-1.05.22-1.56.46-2.06-.71l.84-1.12c-.31-.61-.53-.83-.22-1.53h-.72c.3-.37-.02-.81.01-1.05.02-.18.42-.12.47-.31.12-.5-.43-1.31-.38-1.53.11-.41.67-.65.62-1.29s-1.37-1.85-1.92-2.06v-.47c1.34-.28.06-1.09,0-1.83-.1-1.07.88-1.62-.72-2.38l1.92.12c-.31-.6-1-.47-1.45-1.07-.9-1.21-.55-2.2-.23-3.49,1.39,1.12.92-.7.96-1.3.01-.22.77-.02.48-.62-1.1.61-.79-.05-1.26-.33-.51-.31-1.36-.23-1.37-1.23,0-.5.84-.95.71-1.56l-.96.48c-.2-1,1.76-1,1.85-1.55.17-1.45-2.37-2.37-2.1-3.58,1.63-.84.01-1.28-.46-2.44-.32-.78,1.29.32,1.44-.48.08-.48-.49-.45-.65-.66-.33-.47-.21-1.57-1.03-1.98-.17-.45.44-.3.48-.5.04-.26-.28-1.08,0-1.54l.48.24c-.26-1.19,1.26-1.34.35-2.39-.56-.65-1.28-.4-.82-1.7l.72.24c-.61-1.6-.54-1.71.49-3l-1.63-2.4c1.26-1.45.81-1.83.42-3.49ZM271.65,99l-.48.12c.35.91.67,2.37,1.93,2.17l.48-1.1c-.81-.07-1.81-.24-1.92-1.2ZM296.13,102.59c1.34.36,2.54-.69,1.08-1.44l-1.08,1.44ZM296.59,105.26c-1.15-.51-2.11-.62-3.34-.74l-.25,1.06c1,1.12,1.4.21,2.03.16.41-.03,1.05.38,1.57.22l-.02-.7ZM294.45,108.11c-.99-.12-.41,1.35-.72,1.92h1.2s-.48-1.92-.48-1.92ZM266.76,111.31c.17.38.04.85.45,1.12l.84-.36-1.08-1.55-.59.36c-.17.39.34.33.39.43ZM283.66,114.12c1.81.23,1.63-1.97.15-.99-.97.64-1.25,4.29-.52,4.33l.37-3.34ZM268.73,125.6l.04-.32c-1.24-.76.13-2.36-1.44-2.52-.29.31,1.29,3.47,0,3.72l.6.6.84-.84-.48-.12v-.47s.43-.04.43-.04ZM282.45,123.48h-1.68s.48,1.68.48,1.68c.47.33,1.29-1.59,1.19-1.68ZM278.6,124.2c-1.51-.06-1.84,1.19-1.92,2.47.65.46,1.06,1.1,1.9.71l.17.44c1.23-.38,2.7-.78,1.43-2.17-.52.43-1.33.79-1.8.12.63-.46.46-.92.22-1.55ZM267.09,129.71c.16-.22-1.17-2.14-1.68-1.68.48,1.03.48.88,0,1.92l1.68-.24ZM296.61,129.47l-.11-.97-.95-.21-1.1,1.66c.8,0,1.29-.7,2.16-.48ZM277.41,129.23c-.8-1.11-2.63-.68-1.8.72.51.85,2.55-.21,2.28-1.2l-.48.48ZM267.3,132.8c1.16-.74-1.18-2.02-2.12-1.4l.86.46c-.42.87.7,1.3,1.27.94ZM292.53,134.27c-.01-1.04.19-2.28-.6-3.11-1.01.61-.32,1.66.06,2.59.15.36-.15.65.54.53ZM277.62,132.64c-1.26.07-.31.87.51,1.06,1.56.35,1.82-1.13.85-1.11l-.97.49-.39-.44ZM266.61,134.99c.08-.52-.57-1.09-1.05-.95-.11.03-1.37,1.51-1.59,1.78,1.78,1.31,1.44-.6,1.66-.73l.98-.11ZM276.93,141.71c-.1-.68.09-1.55-.83-1.68l-.35,1.43,1.19.25ZM264.45,142.43c.36.34,1.46-.43,1.67-.84l-.71-.49c-.28.16-1.39.92-.96,1.33ZM277.97,142.6c0-.42-.34-.76-.76-.76s-.76.34-.76.76.34.76.76.76.76-.34.76-.76ZM276.45,146.99c1.35.52,1.6-1.59.84-1.92-.88-.39-.82,1.46-.84,1.92ZM266.79,148.14c.07-.13.24-1.33.19-1.39l-1.58-.23.48,2.16s.87-.49.9-.54ZM278.62,149.87c.36-.3,1.43-.62,1.08-1.21-.64-.91-1.21-.48-1.89-.55-.28-.03-1-.89-1.32.25-.37,1.32.88,1.04,1.74.8l.39.71ZM310.53,157.56c-1.06-.24-1.95-.28-2.88.36.69.77,1.73.65,2.63.84l.25-1.2ZM265.65,166.44c-1.11-.34-.8-.36-.61-.96.1-.31-.08-.42-.35-.48-.55.92-.41,1.39-.24,2.4l1.04-.46.15-.49ZM270.69,169.8h-2.88c.13.76.35,1.06-.24,1.68l1.2.24c-.24-.6-.12-1.08.6-1.2l.48.96c.83-.38.96-.77.84-1.68ZM282.69,172.67c-.11-.87-.34-1.63-1.08-2.15l-.26,1.68,1.34.47ZM268.05,178.68h-1.2c-.01.67.1,1.42.6,1.92l.6-1.92ZM311.73,183.72c-1.04.06-1,1.39-.96,2.16l.8-.06.35-.29-.2-1.81ZM282.42,185.67l-.81-.04c-.5.71.3,1.05.61,1.56.12.19-.14.64.58.36,1.07-.43-.43-1.29-.39-1.88ZM280.02,186.63c-.91-.55-1.2-.11-1.88.44.04-.5.03-.55-.48-.48-.36,1.3-.41,2.27,0,3.6l-.96.13c-.16.97,1.12,2.23,1.21,2.89s-.53,1.21-.41,1.94c.26,1.58,1,3.87,1.87,5.22.54.84,1.84.95.46,2.43l.47.36.61-.74,1.31.5-1.2-2.88,1.2.13c.32-.2.06-1.18.25-1.62.16-.39.73,0,.2-1.44-.08-.21-.45-.19-.47-.34-.07-.55.62-1.3.66-1.92.04-.78-.66-1.57-.17-2.49l-.48.12.24-.83h-.96c-.32-.6,1.15-.72.72-1.2-.47-.52-.4.62-.72.48.17-.58-.35-.81-.79-1.11-.08-.06-.32.14-.36.1-.54-.49-.7-1.67-1.97-1.39-.24-.87.72-.75.73-1.43l.95.47-.04-.92ZM314.13,198.36c-.92-.08-1.91.45-1.92,1.44l.96.24.36-1.2.36.72.24-1.2ZM270.26,201.21l.09-.94-1.34-.23c.51.69.12,2.22,1.44,1.56.13-.07.42-.39.07-.36l-.26-.03ZM295.14,204.09c.25-1.17-.41-1.28-1.41-1.17l.49,1.05-.97.87,1.89-.74ZM273.79,205.29l.17-1.67-1.34-.22c.29.82-.07,1.17-.24,1.92l1.41-.03ZM292.53,206.52c-.63-.09-1.08.08-1.44.6l.47.36v.48s-.72,0-.72,0c-.14.53.64,1.05.96.55.2-.33.96-1.75.72-1.99ZM272.59,208.22c-.34-.3-1.8.18-1.65.81.07.3,1.83,1.08,1.87.06,0-.06-.18-.84-.22-.87ZM311.25,209.39l-.24.72h-.72s.24,1.2.24,1.2l1.2-.48c-.77,1.24,1.54,1.19,1.2.12-.15-.47-1.02-.32-1.4-.4l-.28-1.17ZM312.45,217.32l-1.66.63c.22.63-.13,1.72.58,2.01.66.26.12-.89.21-1.21.2-.7,1.11-.56.86-1.43ZM277.41,225.72c-.1.09-.04,1.36.37,1.44l2.27-1.56c-.04-.23-1.38-.37-1.54-.36s-.1.38-.32.47-.71-.06-.78,0ZM304.23,242.33c-1.37-1.35-2.32,1.92.04,1.61.19-.37.24-1.33-.04-1.61Z"/><path d="M120.21,114.12l.24,2.4h-.96c.52-.63-.44-2.4.72-2.4Z"/><path d="M2.97,17.04c.19.2.28.48.49.67l.23-.53c.21.75,2.08,1.67,2.16,1.94.1.35-.25.97-.19,1.51.09.84,1.05,2.74,1.29,3.7.5,1.99,1.34,4.87,1.68,6.74.12.67-.25,1.98-.09,3.04.25,1.67,1.32,3.37,1.59,5.22s-3.02,4.71-2.8,6.19c.16,1.07,1.72,3.74,1.82,4.71.04.44-.39.82-.41,1.29-.03.55.46,1.1.56,1.78.35,2.39-.27,5.9.04,8.04.06.41.89,1.93.89,2.37,0,.3-.39.66-.37,1.06.23,5.97,1.57,11.6,2.21,17.41.07.65-.25,1.26-.17,1.76.12.68,1.16,1.3,1.22,1.89.05.45-.53.67-.64,1.07-.41,1.49.66,1.94.73,2.58.03.31-.37.64-.42,1.02-.19,1.48.46,2.17.59,3.37.34,3.03.09,6.29.5,9.32.12.89,1.02,2.45,1,2.83-.03.56-.74,1.65-.86,2.44-.13.9.23,2.43.22,3.32-.01,2-.49,5.84-.23,7.62.08.52.56.25.57.74,0,.72-.55,1.35-.62,1.97-.29,2.82-2.56,6.11-2.58,9.01,0,.92.62,1.64.56,2.61-.03.49-.5.37-.52.56-.05.43-.1,3.29-.09,3.87.06,2.43.87,4.74,0,7.16-.14.39-.99,1.1-1.04,1.52s.93.95,1.02,1.78c.08.76-.66,1.95-.68,3.11-.03,1.93,1.57,4.15-.63,4.74-.24.98.55,1.71.59,2.32s-.49.91-.43,1.24c.09.53,1.21,2.38,1.22,2.57.04,1.11-1.06,2.21-1.11,3.48-.05,1.19.65,2.5.59,3.35-.05.7-1.05,1.96-1.16,2.66-.04.29,0,1.86.06,1.93.16.15.81-.26.74.25l-1.25.04.57,1.91c-2,.99-.45,3.09-.17,4.76.15.87.29,2.18.38,3.09.08.84-.31.92.28,1.8-.9,1.25-.81,3.36-1.22,4.7-.17.56-.8.81-.87,1.65-.06.75.32,1.33.29,2.02-.02.5-.41,1.04-.41,1.39,0,.38.44.61.47.98.05.68-.82,1.44-.89,1.91-.02.14-.01,2.67,0,2.81.09.61.65.48.78.83.08.21.27,1.43.25,1.69,0,.11-.45,1.97-.52,2.04-.26.28-.81.15-.88.43-.06.23.03,2.31.12,2.54.17.46,1.3.18.37,1.7-.26.42-.71.48-1.01,1.03-.79,1.46,1.34,8.4,1.19,10.61-.03.47-.42.85-.42,1.31,0,.44,0,2.34.04,2.6.16,1.09,1.94,1.53.3,2.4.53,1.14.26,2.07.34,3.06.23,2.64-.25,2.87-.31,4.78-.03.98.46,2.51.44,3.53-.04,1.96-.84,5.28-.96,7.39-.06.98.41,2.19.33,3.07-.12,1.26-1.7,3.03-1.86,4.26-.22,1.71,1.38,4.8,1.33,5.89-.02.42-.56,1.11-.61,1.69-.26,2.99,2,6.02,1.69,9.06-.08.78-1.07,2.2-1.12,2.98-.07,1.11.39,1.67-.14,3.15-.33.93-1.15,1.35-1.27,2.05-.22,1.3.17,3.7.05,4.39-.05.3-.52.51-.61.89-.67,2.77-.79,7.15-1.04,10.13-.12,1.49.19,5.96-1.01,6.94-1.12.92,1.18,13.65,1.42,13.8.35.32.78-.05,1.14.07,2.94.96,5.57.8,8.61,1,.58.04,1.34.69,1.79.63.38-.05.69-.57,1.09-.69,4.28-1.23,7.81-.26,11.94-.51,2.11-.13,2.76.28,4.78.51.97.11,2.85-.36,3.37-.23.67.17.84,1.06,1.18,1.15.46.13.71-.4,1.02-.48,2.03-.54,3.58.45,4.98.6.92.1,1.57.02,2.75.18,8.54,1.09,15.71-.3,23.99-1.14,1.91-.19,6.66.31,7.92-.73.25-.21.3-.59.55-.8,1.48,1.23,3.27.69,5.03.64.46-.02.94.25,1.27.22.55-.05.71-.79,1.21-.8.44-.01.89.72,1.54.74,1,.04,2.59-.4,3.57-.46,3.48-.23,6.82-.51,10.32-.53,2.32,0,4.9,0,7.12.16,1.08.08,2.16.08,3.24.2l.25-.82c.73.08,1.55-.12,2.26-.06,2.23.19,4.61.73,6.94.55,5.84-.45,12.39.32,18.13-.62,3.45-.56,6.93.2,10.63-.4.27-.04.53-.49,1.06-.51.59-.02,1.04.56,1.6.63.61.08,1.47-.46,1.88-.38.31.06.52.59.79.62.25.03,1.06-.49,1.73-.49,1.67-.02,4.03.58,5.52.61,1.02.02,2.51-.36,3.77-.34,1.16.02,2.06.89,2.74-.32l1.29,1.26.72-1.05c1.18,1.21,2.13.33,3.27.4.63.04.96.53,1.76.53,1.11,0,2.94-1.14,3.44-1.11s1.36,1.05,2.89,1.1c4.18.14,8.58-.05,12.75.06.39,0,.62.41.96.42.55.02.99-.8,1.74-.85.47-.03.24.5.74.55,1.24.13,4.42-.07,5.78-.19.78-.07,1.5-.24,2.21-.58l.54.78c.41-.4,2.16-.65,2.74-.62s.91.47,1.51.53c.94.09,1.82-.46,2.76-.38.52.05.96.51,1.21.46.31-.06.53-.56,1.29-.54.7.02,1.29.8,2.26.51.19-1.77,1.18-.06,2.3.09,1.75.23,9.57.09,11.24-.19.85-.14.95-.84,1.71-.86.9-.04,1.37.81,2.09.96,2.2.46,3.23-.85,5.03-.99,1.9-.15,5.17.25,7.42.2,11.88-.26,24.09-.02,36.04,1.15.94.09,2.62,1.15,3.03-.11,2.35,1.67,5.79.95,8.55,1.08,3.57.16,10.88-1.39,14.44-.62,1.01.22,2.1.96,3.15.87.11-.01,2.01-.92,2.1-1,.26-.21.15-.66.29-.84.27-.36,1.02-.13,1.16-1.02.16-1.02-.41-2.39-.35-3.64.04-.79.69-2.42.61-2.84-.08-.48-1.11-1.41-1.46-1.87-.53-.71.09-1.06-1.32-1.49-.24-.07-1.8-.48-1.91-.49-2.14-.15-8.73,1.01-10.57,1.05-2,.05-2.97.18-5.25-.1-5.83-.72-11.49-1.33-17.36-1.85-.76-.07-2.89.68-2.6-1.03-.66-.08-.95.71-1.55.75-2.41.16-4.45-.65-6.59-.79-1.07-.07-2.17.14-3.25.08-1.42-.08-4.23-.9-5,.14-.78-.81-1.57-.02-2.56-.41-.43-.17-.37-.91-.84-.53-.07.06.2.81-1.12.53-.63-.13-.76-.74-1.53-.77-.88-.03-2.14,1.18-3.21,1.17l-.27-.48c-3.4.24-7.37-.62-10.76,0-.41.08-.7.52-1.25.57-.72.07-1.26-.53-2.26-.51s-1.57.53-2.26.59c-2.99.24-7,.52-9.91.21-.93-.1-2.19-.65-2.86-.66-1.05-.03-1.61.86-2.72.9-.87.03-1.71-.47-2.53-.49s-1.43.38-2.2.32c-.53-.04-1.1-.47-1.57-.47-.57,0-.82.53-1.17.51-2.18-.12-4.91-.71-7.06-.76-1.23-.03-1.4.79-1.49.79-.48,0-.89-.79-1.77-.76-.59.02-1.82.72-2.37.73-1.35.02-2.95-.73-4.44-.72-3.4.03-7.1.2-10.71.23-2.8.02-5.87.2-8.72.14-.86-.02-.97-.87-1.77.15-.87-.07-1.38-.67-2.28-.75s-2.55-.05-3.56-.06c-2-.03-3.84-.04-5.83.31l.24-.52c-.74-.27-1.69.1-2.31.01s-1.32-.67-2.09-.64c-.64.03-1.46.7-1.97.68-.4-.02-1.22-.63-2.04-.62-1.93.01-3.88.43-6,.41-.83,0-2.37.27-2.98.27-.25,0-.64-.59-1.06-.62-.33-.03-1.1.54-1.95.54-1.58.01-3.67-.43-5.26-.42-1.04,0-2.12.46-3.01.37-.6-.06-.94-.51-1.51-.53-2.27-.08-5.31.62-7.75.76-1.74.1-5.68.36-7.23.19-.42-.05-.71-.54-1.26-.5-.61.05-.92.72-1.45.76-1.31.09-2.91-.71-4.07-.59-8.02.88-16.13.65-24.27.98-4.67.19-9.44.79-14.03.99-.55.02-1.81-.51-2.45-.37-.2.04-.03.47-.5.54-2.82.45-6.44.44-9.44.82-.22.03-.45.44-.77.43-.58-.02-1.06-.98-1.57-.97l-.27.55c-.64.17-1.33-.44-1.78-.43-.14,0-2.53.25-2.68.28-4.51.86-8.64-.63-13.31-.9-.7-.04-1.24.57-2.21,0-1.31-.75-2.44-.25-4.08-.4-.73-.07-2.22-.66-3.05-.65-.58,0-1.91.87-2.69.79l.1-.79c-.9.59-1.66-.17-2.09-.15-.46.01-.98.6-1.76.51-1.41-.16-2.46-1.65-3.58-2.01-.7-.22-1.09.1-1.61-.06-.81-.26-1.1-1.29-1.8-1.39v-.5s.49-.17.49-.17l-.56-1.28c.67-.22.88-1.31.85-1.97-.02-.41-.39-.56-.42-.91-.01-.16.46-.11.5-.32.17-.8.25-3.58.33-4.67.03-.4-.27-1.02-.23-1.24.02-.13.86-.6.91-1.16.03-.41-.37-.67-.4-1.01-.15-1.63.27-1.73-.16-3.89-.55-2.74,1.18-3.87,1.33-5.78.06-.76-.38-1.45-.31-2,.02-.16,1.31-2.1,1.49-2.67.37-1.18-.5-3.08.37-3.42l-.56-1.5.97-1.38-.93-1.42c.07-1.19-.73-2.48-.67-3.03.09-.84-.67-1.16-.53-1.99.09-.54.79-1.06.68-1.77l.87-.02c.27-1.05-.1-3.2-.79-4.13-.23-.32-1.11-.03-.97-.68.68-.19.38-.64.51-.9.03-.06,1.02.3,1.17-.48-.08-1.22-.61-3.24-.57-4.36.03-.75.6-1.45.67-2.15.19-1.75-.02-4.35.09-6.25.04-.76.37-1.67.43-2.61.1-1.69-.44-3.41.4-4.95-1.97-1.07.22-1.65.55-3.2.26-1.22-.28-1.01-.41-1.32-.53-1.27-.03-2.22.64-3.34l-.77-.5c1.58-2.03-1.56-4.27-1.11-6.48.15-.72.85-1.06.91-1.65.09-.78-.51-1.37-.46-2.2.08-1.36,1.38-2.43,1.04-3.93l-.23.79c-.6-.14-.67-1.39-.55-1.9.08-.34.82.22,0-1.31,1.12-.94.4-1.34.4-2.11,0-.15.44-.11.5-.34.22-.94.47-2.21.43-3.33-.16-4.59.26-9.2.37-13.84.02-.82-.15-2.75,0-3.4.08-.35.63-.3.63-.51,0-.25-.37-.97-.4-1.43-.14-1.95.27-3.89.25-5.85l-.52-.28c1.41-1.12.25-4.42.42-5.46.06-.36.78-.78.81-1.65.03-.76-.44-2.15-.43-2.88.01-.54,1.05-1.61-.09-1.65l-.03-.37.75-.56c-1.35-1.79.62-2.36.12-4.29l-.74.15c.12-.35.88-1.42.87-1.59s-.38-.39-.38-.72c0-3.23.45-6.64.41-10.22-.01-1.17.32-7.44.57-8.34.21-.78.89-1.18.92-2.16.02-.72-.34-2.03-.27-2.83.01-.16.4-.11.43-.32.25-1.71-.31-3.34-.32-4.89,0-1.72.84-4.42.78-6.54-.04-1.13,1.56-2.84,1.39-4.02l.75-.02c-.4-.64,0-1.38-.11-1.88s-.81-1.01-.74-1.86c.05-.73.87-1.34.62-2.9-.02-.16-.41-.09-.46-.28-.19-.78.7-4.57.58-5.96-.05-.53-.42-.95-.78-1.3l.49-.14v-.39c-1.03-.26-.29-1.49-.3-2.34-.02-1.82-.7-3.41-.81-4.71-.14-1.52.76-3.96-.19-5.71,0-.1,1.18-1.16.92-1.44-1.49.19-1.07-1.99-2.07-2.43v-.51s.49.12.49.12c.1-.67-.56-1.05-.57-1.68,0-.57.51-.95.45-1.26-.04-.24-.44-.5-.5-1.07-.14-1.28.49-4.06-.85-4.3,1.1-1.07-.3-1.55-.46-2.31-.07-.33.27-3.3.21-4.03-.06-.66-.65-2.32-.68-2.82-.05-.78.2-2.7.11-3.42-.02-.18-.46-.11-.52-.33-.09-.35.04-.8-.09-1.2-.16-.49-.99-.9-.99-1.59l.99-.43c-.44-.77-.08-2.03-.79-2.17l.93-2-.99.29c-.48-.95.06-1.78.43-2.7.07-.16.42-.15.47-.36.07-.31-.18-1.45-.03-1.92l-.49.28c.15-1.66-.26-3.1-.63-4.68l-.49.28c0-1.93,3.36-3.41,2.59-5.27-.1-.23-.51-.17-.5-.31.01-.42.46-.52.39-1.18-.06-.55-.44-1.01-.63-1.5-.35-.89.29-.95-1.11-1.45l.49-.14-.52-1.03.5.12c.46-1.54-.58-2.41-.79-3.69-.41-2.41.03-2.73-.83-5.52-.65-2.08.08-4.32-.76-6.34.62-1.12,1.53-.39,2.32-.47,1.1-.11,2.03-.47,3.26-.37.66.06,1.01.44,1.68.42,1.23-.03,2.17-1.19,2.43-2.32,1.25.03,1.61-.21,2.02,1.21.3-.18.93-.27,1.1-.53.27-.42-.22-1.16.46-1.07.61.08.92.85,1.48,1.08.59.24,1.48-.07,2.16.53l1.62-1.21c.47.44,1.28.28,1.7.47s.31.73,1.41.93c1.54.28,1.27-.46,1.47-.5.09-.02,1.36.07,1.46.1.97.31,3.43,3.34,3.39.3.23-.27,3.13.91,3.05,1.75.49.36.63-3.18,1.82-1.87l.59,1.55c1.01.09,1.81.03,2.07-1.1,1.33,1.51,3.1.36,4.64.36.72,0,1.14.48,1.85.37.67-.1,3.68-.46,3.87-.53.34-.14.29-.67.55-.75,1.02-.32,1.1.85,1.43,1.19.94.98,3.43-.09,4.92.07.5.06.98.47,1.51.49.41.01.68-.34.89-.33.29.01.67.6,1.06.62.36.02,1.18-.95,2.08-.27l-.48.79,1.75-.05-.76-.5c.25-.95,1.13-.47,1.54-.62.64-.23,1.75-1.36,2.7-.68.34.25.03.98.5.92l.95-1.85c.44.62-.07,1.65.16,2.08s1.64,1.45,2.19.86l.2-1.18c.92-.25.7.62,1.56.83.21.05,1.63-.1,1.71-.14.03-.02-.23-.3-.04-.65.53-.94,2.08-1.95,1.52-.18.85.38,1.56.19,2.31.26.37.03.91.42,1.09.39.31-.04.39-1.55,1.84-.9.39.18.62.91,1.15.88-.02-.64,1.64-.63,2.2-.57.94.09,2,.82,3.06.31.64-.3.95-1.76,1.69-1.76.19.67.48.27.75.5,1.03.87.42,1.47,2.4.46.57,2.52.98-.15,1.43-.3,1.55-.51,1.47,1.03,2.43.92,1.16-.14.41-1.72,1.97-1.29.23.06.1.69.55.5l.61-1.05h.49c.07.59,2.16,1.53,2.75,1.67.4.09,1.08-.15,1.56.03l-.53-.4.37-.9c.22.83.94.48,1.46.75.32.17.23.64.84.77.93.19.77-.38,1.06-.54.12-.07,2.5-.29,2.63-.28.99.06,1.34,1.43,2.88.72.29-.13.24-.62.83-.72.54-.09.65.25,1.02.26.35.01.8-.32,1.26-.24.28.05.43.96.86,1.02.28.04.52-.49.85-.42.53.1.92.88,1.27,1.03.58.25,1.07,0,1.58.1.2.04.2.63.87.71,1.45.17,2.58-.42,3.78-.69s1.32,1.37,2.14,1.81c.67.36,2.2.23,2.94,0l-.73-.26-.05-1.02c1.41-.3,1.51,1.55,2.98.66l.14-.74,1.55.73-.13.78c1.3-.22,2.74-.13,3.86-.89,1.47,1.34,2.49,1.51,4.4.93,0-.48-.78.01-.48-.85.58-1.69,1.14,0,1.22.06.07.05.9-.92,1.49-.3.36.39-.92.74-.46,1.31,1.18-.61,2.25.24,3.14.2.47-.02.76-.42.98-.44.66-.04,1.52.24,2.25.09.37-.11-.23-.89.49-.82.98.09,1.42,2.79,3.15.31.25-.37-.37-.87.59-.67.88.18.33.69.66,1.13.95,1.28,2.1-.08,3.24-.18l-.22,1.04,1.13.24-.07-.53-.56-.11,1.34-1.21c1.03.19-1.01,1.69.87,2.02.29.05,2.54,0,2.94-.02,1.72-.15,1.24-1.15,2.83.92l2.64-.57c1.29,2.08,2.06,1.65,4.07,1.18,1.43-.33.58-.08,1.77,0,.56.04,1.81-.4,1.87-.33.04.04-.1.49.19.79.11.12,2.83,1.07,2.99,1.08.73.06,2.1-.63,2.68-.65.72-.03,1.79.26,2.58.3.95.05,2.87-.64,2.14.8.29.06.45-.06.68-.2.26-.15,1.22-.92,1.53-1,.92-.23,1.83.19,2.68.26,1.8.14,3.37.31,4.98.27.76-.02,2.09,1.13,3.15.85l-.02-.78c-.82.14-1.02.07-1.27-.75.75-.22,1.82.65,2.35.65,1.59,0,2.73-2.38,4.32.47l.35-.03c.17-1.19,1.47-.66,2.12-1.32.48.92,1.97,1.78,1.62-.07,1.28.05,2,1.11,3.32.41.19-.1.19-.51.33-.52,1.13-.08,2.23,1.89,3.11.32-.44-.59-1.59-.13-1.53-1.13l2.25-.06.03,1.05c1.13.06,1.88-.89,2.99-.34l-.22,1.04c.24-.01.46.13.7.17,2.15.34,1.25-.26,1.85-.96.4-.47,1.18-.12,1.69-.1l-.47,1.05c1.16.17,2.34-.21,3.39-.32.13-.01.12.38.29.48,1.51.85,1.53-1.05,2.21-1.32,1.11-.44,2.43.72,2.71-.38h.36c.09.86.82.09.79,1.15l1.51.07c-.23-1.03.43-.62.75-.96.53-.56.59-2.26,1.92-2.49.05,1.09.29,2.05-.67,2.75l.68.58c1.3-.05,1.05-2.1,2.41-2.13.36-.01,1.75,2.1,2.52.2.68-.05.9.74,1.06.77.76.14,1.86-.34,2.63-.25.93.11.93.79,1.94.64v-.77c.61.5.44-.22.64-.27.25-.05,1.14.29,1.44.2.21-.06.17-.47.45-.6,2.12-.96,2.21,1.1,2.35,1.06.88-.38.65-1.69,1.45-2.37.17-.14,2.67-1.67,2.35-.73-.23.66-1.2,1.44-.46,2.38.89,1.13,1.35-.92,2.62-1.03,1.61-.14.93,1.15,2.04,1.73.49-.05,1.06-1.2,1.24-1.24.26-.06.65.24.98.19.61-.08.88-1.03,1.76-.14,1.23-.95,3.13-.64,4.62-.55l-.4-.77.49-.53,1.14,1.18c.17.5-.45,1.08.19,1.38.92.26.81-.42,1.04-.51,1.14-.44,3.66,0,3.81-.12.71-.64-1.64-2.08.06-2.62,1.33.4.67,2.05.71,3.12l.97-.04.29-1,.97-.06-.24.52.68,2.12-1,2c.08.62.42,1.56,0,2-1.28,1.35.94.01-.11,1.7-.39.62-1.17.98-1.3,1.76-.4,2.31,2.38.95,2.56,2.81.15,1.55-1.39.07-1.69,1.1-.24.82.38,1.29.42,1.77.07.9-1.47,2.96.09,4.3.62.53,1.52-.13,1.26,1.28l.91.23-.18.52-.54.03c.3.93-.38,1.62-.46,2.24-.12.89.38,1.34.44,1.9.04.35-.34.59-.32.93.06.99.37,1.98.29,3l1.48-.56c0,.37-.95.73-.98.99-.1.91.91,1.88.08,2.55l.39.38c.35-.18.91-.4,1.12.11.43,1.03-1.72.64-2.23.97-.18.71.68,1.18.75,1.71s-.53.86-.41,1.4c.28.27,1.72-1.07,2.24-.45-.23.86-1.05,1.08-1.46,1.6-.78.97-.88,2.28-2.69,2.3.23,1.14.83,1.92.33,3.11.4.29,1.61-.2,1.75.38.09.69-.53,1.4-.44,2.06.08.55.65.72.74,1.08.35,1.42.04,3.87.24,4.86.08.39.4.92.58,1.8.05.25.33.43.36.77.07.98-.88,1.24-.89,1.37-.02.3,1.79,2.11,1.08,2.97l.74-.28c.53.97-.14,1.26-.31,1.97-.2.84.3,1.29.31,1.55.01.32-1.05,2.36-.27,3.22.19.21.75-.18.98.68.3,1.12-.61.96-.69,1.33-.17.82.51,3.05,1.77,2.16.3,1.33-.62,1.16-1.33,1.86l-.15-.78-.74.15c1,1.58,1.7,3.41,1.89,5.29,1.67-.18,2.35.72.79,1.69l.54,1.41c.49.45,1.96-2.24,2.43-2.41.17.73-.11,1.57-.08,2.23.02.44.85,1.09.01,1.38-.52.18-1.47-.1-1.85.2-.07.05-.6,1.51-.6,1.6,0,.19.44.51.46,1.03.02.48-.36.78-.38,1.05-.09.91,1.21,2.71,2.2,2.54.81.79-.16,1.29-.37,1.88-.26.75.48,1.26-1.18,1.4l-.09.91c.85.28.41.87.55,1.58.23,1.19,1.44.58,1.49-.43l1.4,1.02,1.35-1.09c.27,1.19.47,2.09-1.05,2.1-.96,0-.83-.92-1.28-.73-.6.84-1.1,1.11-2.11,1.22l-.19.32c-.19,1.56,1.14,2.49,2.06,3.55l-.48.79,1.01.37c-.3.7-1.12.84-1.73.57l1.37,4.39-.76-.24c-.35.62.15,1.45.03,1.91s-.92.43-.97,1.11c-.06.78.81,1.25.85,2.32.05,1.19-.93,2.39-.7,3.4.06.25.51.05.68.19,1.02.85-.05,1.31.13,2.12l.53.27c-1.27,1.7.49,2.36.35,4.03l-1.26-.22.28.62-.5.55c.85.31.5,1.26.57,1.37.13.21,1.24.47,1.24.68-1.33,1.98-1.12,3.28-.34,5.44-1.62.59-.12,2.14-1.7,2.57.17,1.22,1.19.96,1.25,1.03.15.18.66,4.52.65,4.76-.11,1.78-2.06,2.04-2.17,2.95-.11.86.36,1.57.57,2.34l-.48.49c.2.39.4.87.4,1.32.02,1.27-1.36,1.69-1.03,3.17.13.6.52.46.74.82.68,1.1-.58,1.19-.83,1.63-.48.83.38.76.4.94.17,1.05-.57,3.59-.38,5.21.08.71.47,1.11.49,1.48.04.64-.23,2.41-1.13,2.04-.06.43.7.31.77.63.05.23-.36.59-.4,1-.15,1.58.72,4.5.51,6.25-.03.24-.37.51-.39.85-.07,1.26,0,2.52-.16,3.77l.74-.28c-.3.85.8,1.71.82,2.2.01.43-.78.99-.87,1.71-.07.58.38.72.39,1.13.02.53-.55.65-.66.91-.16.39-.26,2.9-.15,3.26.14.45.88.6.73,1.29-.11.51-1.09.81-.95,1.62.04.21,1.64.54.82,1.95l.74.11-.21,1.18h.75s-.22,1.29-.22,1.29l-.75-.24.48,1.94-.84,1.54c.43.62.41,1.32.62,1.99.25.8.45,1.09.71,2.18.08.34.37.6.4.79.09.59-.9.44-.59,1.82.08.35.4.62.44.83.14.84-.74,2.28,1.13,2.01l.24.26c-.82,1.06.37,2.42.31,3.06-.07.77-.97,1.36-.93,1.63.36,1.2,1.84,3.45,1.59,4.65-.09.45-.99.32-.93,1.32.07,1.13,1.03,1.99,1.81,2.61.14.89-1.48.9-1.47,1.06.68.18.56.47.54,1.16l.74-.28c-.55,1.37-.18,1.62.06,2.97l-.72.57c.46.67,1.38,2.45,1.47,3.2.05.39-.6,1.2-.6,2,0,.96.73,1.62.43,2.72-.06.21-.46.42-.53.71-.11.46.41,1.31.26,1.9,1.11-.57,1.54.06.89,1.03-.17.26-.64.03-.75.24-.52.99.98,3.11,2.21,2.84.31.75-1.87,2.14-1.69,2.38l.52.15c-.92,1.64.94,2.84,1.03,3.63.08.69-.93,1.84-.88,2.57s.86,1.4,1.07,2.09l-.73,1.02c.82,1.35-.77,3.01.85,3.68-.06.44-.36.98-.36,1.4,0,.84.27,2.4.35,3.28.12,1.42-.05,2.8,1.47,3.6-2.8,1.31-1.14,2.92-.72,5.11.21,1.1.28,4.1.79,4.89.07.11.56.16.74.39.16.2.35,2.05.3,2.31-.06.33-.93.3-.99,1.13-.01.2.28,1.76.36,2.01.13.38.61.58.67.86.09.41-.37.94-.37,1.33,0,.43,1.11,2.56.02,2.81.85,1.15,1.15,1.91.08,3l1.25-.18c.48.25.44,1,.58,1.12.18.15.95.03,1.46.41.41.3-1.42,4.32-1.01,4.7.45.42,1.27.4,1.74.71.39.26.49.84.83,1.03.83.44,6.53-1.24,7.31-1.71.49-2.47-1.33-5.95.04-8.09l-.04-1.43-.48.27-.31-1.13.64-.44.27.77c.96-1.39-.6-3.01-1.04-4.22-1.64-4.49-1.72-8.38-2.27-13.06-.43-3.75-.22-7.84-.94-11.54-.16-.84-.96-1.45-.97-1.66-.01-1.05,1.12-1.94,1.16-2.69.02-.45-.59-.75-.64-1.23-.05-.51.38-1.37.36-2.1-.05-2.01-1.06-4.62-.19-6.5l-1.26-.5.94-.79c-.17-.79-.47-1.82-.53-2.6-.07-.91.15-2.4.04-3.04-.09-.5-.62-.45-.62-.58.02-.53.61-1.36.61-1.8,0-1.31-.97-3.25-1.04-4.5-.21-3.66-.75-7.24-1.07-10.89-.18-2.07-.38-1.67-.81-3.37-.39-1.54-.13-3.5-.47-5.11-.82-3.83-1.36-7.59-1.82-11.41-.09-.71-.48-1.36-.5-2.15-.03-1.38.23-2.88.11-4.46-.08-1.05-.15-2.99-.59-3.83-.25-.48-.91-.69-1.01-1.3-.11-.69,1.05-.29,1.17-1.11.05-.35-.31-1.34-.26-2.05.34-5.29.1-10.44-.17-15.65-.02-.47.45-.33.5-.56.28-1.33-.54-2.65-.53-3.64,0-.54.61-.87.64-1.54.05-1.31-.66-3.22-.54-4.88.02-.27.4-.56.41-1.09,0-.88-.73-2.55-.65-3.91.01-.19.8-1.09.9-2.17.14-1.49-.08-3,.06-4.5s.6-3.07.74-4.62c.2-2.23-.53-4.95-.16-6.94.04-.22.54-.1.51-.57-.04-.57-.46-.84-.55-1.31-.32-1.65.94-4.2.82-5.5-.05-.56-.7-.78-.7-1,0-.4.84-2.8.88-3.41.05-.85-.43-1.62-.33-2.58.09-.87,1.26-2.97,1.16-3.42-.51-.55-1.4.08-1.72-.76.13-.36.37-.67.4-1.07.11-1.75-.12-4.71-.48-6.42-.42-2.02.16-2.71-.05-4.77-.32-3.12-1.12-6.04-.85-9.1.02-.26-.5-.98-.4-1.54.16-1,1.27-1.86-.54-1.72l-.99-7.5-1.74.31,1.49-.56c-.95-1.18.26-2.7.14-4.17l-.5.14c.04-.15.15-.37.11-.51-.29-.97-.79-2.7-.96-3.64-.21-1.18.13-2.63-.22-3.79-.19-.61-.78-.54-.89-.9-.27-.88.16-3.65-.21-4.86-.15-.47-.84-.7-.92-1.1-.04-.2.15-1.83.19-2.27.14-1.79-.63-3.97-.21-6,.04-.2.47-.17.5-.36.15-1.08-.53-3.16-.36-4.62.14-1.26,1.27-1.62,1.16-2.64-.1-.88-.95-1.24-1.18-1.93-.37-1.12.34-2.96.22-3.99-.11-.98-1-2.05-1.06-3.42-.04-.95.45-2.35.32-3.14-.07-.46-1.05-1.44-1.13-2.09-.07-.61.55-1.68.38-2.85-.07-.49-.44-.35-.61-.69-.45-.88-.7-2.43-.51-3.39.04-.22.5-.1.51-.57.01-1.36-.78-3.78-.57-5.16.35-2.23,1.64-2.47-.02-5.23-.23-.39-.56-1.51-.77-1.84-.52-.83-.21-1.85.04-2.47.13-.32-.18-.74-.16-.76.05-.05-.18-.66.12-.77.4-.15,0-.94.31-1.14.09-.05,1.01-1.59,1.12-1.81.2-.44.49-1.71.72-2.32.33-.86,1.2-1.39.77-2.64l-.73-.12c2.3-1.52-.71-3.34-.56-5.26-1.04-.55-1.82-3.37-3.04-3.13-.13.03-.09.47-.28.53-1.85.58-3.16-.64-4.74-.39-.77.12-1.03.66-1.71.84-.6-.43-6.88-1.19-8.27-.28-.56.37-2.58-.08-3.49.09-.61.11-1.22.7-1.79.74-1.34.1-5.04-.76-6.73-.8-2.08-.06-3.81.49-5.53.6-3.89.24-7.63-.86-11.48,1.15l-.24-.49c-.69.84-.92.15-1.53.07-.85-.11-2.54-.5-3.23-.45-2.25.18-4.64.58-7.01.71-1.51.09-3.32.16-4.72.07-.44-.03-.85-.25-1.3-.23-.47.02-.24.57-.72.6-.73.04-1.1-.44-1.76-.52-1.45-.18-2.36.5-3.3.56-.62.04-2.6-.6-3.94-.52-.79.05-4.12.85-4.5.82-.73-.06-2.63-.87-3.58-.95s-1.45.48-2,.51c-.43.02-.99-.63-1.72-.63-1.21,0-3.54,1.01-3.73,1.01-.13,0-.53-.41-1.01-.44-.67-.04-1.27.33-1.96.32-1.11,0-3.24-.9-4.06-.89-.52,0-1.09.53-1.74.55-.75.02-1.42-.55-2.26-.49-.62.05-1,.5-1.51.58-.75.12-4.95,0-5.67-.15-1.07-.22-2.57-1.5-4.39-1.58-1.91-.09-4.65,2.31-4.87-.47-.61-.14-1.3.57-1.81.49-1.9-.28-3.84-.8-5.82-1.09-.79-.12-1.92-1.15-2.26.07-.77-1.02-4.36-1.61-5.63-1.62-.77,0-.94.69-1.61.7-1.36.03-2.89-1.18-4.59-.99-.6.07-1.41.62-2.23.66-1.18.05-2.62-.54-3.77-.63-2.65-.2-8.44-.68-10.76-.23-.41.08-.64.53-.99.55-.14,0-.11-.43-.33-.51-3.56-1.23-7.42-1.29-10.99-1.26-.26,0-1.67,0-1.75-.03-.19-.05-.4-.87-1.56-.94-.6-.04-1.04.25-1.46.24-.62-.01-4.23-.2-4.39-.36l.24-.52c-1.59.29-3.12-.3-4.65-.4-1.08-.07-2.71-.16-3.76-.15s-2.19.66-2.99.62c-.47-.03-.25-.5-.74-.55-1.19-.13-2.23.35-3.26.39-1.53.06-3.26-.4-4.95.16-.45.15-.7.89-1.02.93-.53.06-2.17-.69-2.51-.64-.36.05-.63.5-1.01.56-1.07.16-4.43-.55-6.01-.38-1.35.14-.41.5-2.32.15s-3.8-.53-5.63-.11c-.54.12-2.36,1-2.49.99-.47-.06-1.65-.83-2.35-.92-1.19-.14-1.82.64-2.46.59-.51-.04-.72-.63-1.02-.66-.32-.04-.93.26-1.5.2-1.57-.15-3-.27-4.52-.4-1.05-.09-3.7-.99-4.04-.97-.49.02-.8.47-.99.48-.71.02-2.7-.43-3.51-.35-1.01.1-1.78,1.45-2.76-.41-1.68,1.53-4.89-.69-6.54-.63-.84.03-1.1.68-1.74.83-1.09.25-2.06-.18-2.97-.15-3.09.12-2.4.03-5.34-.63-1.22-.28-7.54-.79-8.48-.58-.53.12-.91.72-1.28.76s-2.52-1.47-3.64-.79l-.32.93c-.72-.33-2.81-.98-3.54-.95-.92.03-1.66,1.03-2.42,1.04-.82.02-1.58-.74-2.17-.8-.39-.04-.65.34-.88.33-.28-.01-4.04-.75-4.74-.87-.95-.17-2.52-1.56-3.15-1.64-.42-.05-.83.26-1.37.2C15.94,1.19,13.44-.11,12,0c-.61.05-1,.5-1.5.56-1.53.21-2.5.34-3.99.63-.71.14-1.47-.08-2.18.13C2.83,1.79,1.4,4.06.18,5.09.03,5.45,0,5.82,0,6.21c.02,2.57,1.26,9.04,2.97,10.84ZM122.31,10.39l2.5-.07c.11.68-.06,1.3-.71,1.58l-.15-.78-.49.49-1.16-1.23ZM72.27,14.41c-.27-.2-.72-.07-.93-.45l1.47-.68c-.19.56,1.02,1.26.55,1.8s-.94-.56-1.1-.67ZM119.97,16.45c-.23-.38-1.49-3.46-1.35-3.61h1.34s.42.34.42.34c-.7.73-.24,1.68.53,2.06l-.21,1.18c-.24.08-.49.02-.73.04.05.08-.1.36.16.54.39.26,1.14.2,1.61.2-.35.66-.59,1.43-1.46,1.2-.56-.15-1.49-1.14-.57-1.27l-.25-.66c.17-.01.33,0,.5-.01ZM102.93,15.85l-1.39-.21.09-1.58c.45.59,1.43.94,1.3,1.79ZM108.68,15.19c1.06-.17,1.92.39,2.17,1.48l-1.26,1.33-.47-.47-1.64.28,1.19-2.62ZM175.24,14.46c1.02.12,1.98-1.42,2.01.45-.92.35-2.02,1.24-2.01-.45ZM136.26,16.8c.58-.81,1.71.93,1.3,1.66l.74-.15c.1.27-.16.74-.36.79-.21.05-2.16-1.63-1.68-2.29ZM270.01,16.96c.18-.18,1.14-.46,1.18.03.03.34-.83,1.9-1.45,1.73-.02-.48-.07-1.43.27-1.76ZM197.94,19.36l.95-.32c-.04.7.02,1.28.79,1.29l-.74.54.53,1.02-1.5-.23.16-.47-.41-.15.21-1.68ZM256.48,18.81c-.1-.15-.05-.78.22-.92l1.25-.16c.54,1.26-1.1,1.62-1.47,1.08ZM226.72,19.12l.8-.05.95,1.01-2.24.32.49-1.28ZM193.42,19.97c1.33-.26.92,1.57,1.81,2.29l-1.38-.21-.43-2.09ZM223.22,19.46l1.74.2.02.78-.75.02.53,1.02-1,.03-.05-1.03h-.73s.25-1.02.25-1.02ZM215.72,20.68c-.19,1.24-2.74.88-2.77-.06-.01-.44.45-.89.85-.92.12,0,1.11.17,1.15.22.12.12-.43.67.02.91l.75-.15ZM255.53,20.67c1.11.36,3.56-1.03,4.31-.9.08.01,1.19,1.16,1.27,1.21.55.32,1.86-.49,1.71.54-1.38-.1-2.35-.46-3.48.61l-.3-1.28c-.35.31-.85-.02-1.08.02-.18.03-.11.47-.29.51s-2.86-.12-2.12-.71ZM248.35,23.73l1.61-.82c.19-.45-.74-1.15-.19-1.7.4-.4,2.89-1.6,2.98-.61.11,1.17-2.84,1.93-1.16,2.65.52.22,1.09-.38,1.38.07.74,3.08-2.23.37-3.74,1.31l-.89-.91ZM241.08,23.4l2.7-1.9-.35,1.86c-.47.21-.96.25-1.47.28-.28.01-.94.19-.89-.25ZM236.63,23.72c-.28-.64.77-1.37,1.16-1.67.86-.33.39,1.9-.33,2.22l-.83-.55ZM235.08,24.08c-1.51.26-1.48-1.13-.33-.58.33.16,1.8,1.11,1.36,1.59l-1,.03-.04-1.03ZM227.35,24.8l.84-1.32c.36.51.43.92,1.15.75l-.23,1.05c-.66.26-.41-.46-.67-.51-.34-.07-.74.05-1.09.03ZM301.65,41.59c.36-.36,3.41,1.67,2.32,2.81-2.25.11-1.13-1.4-2.55-2.15l.23-.66ZM301.35,48.4c.35-.27,1.36.13,1.46.62l-.8,1.41c-.65-.28-1.25-1.58-.65-2.04ZM303.63,78.55c-1.07-.31-1.9,1.23-2.75.2l.6-.67,2.14.47ZM307.26,92.79c1.14-.12,1.81,1.3.67,1.8-.62.27-.7-1.52-.67-1.8ZM307.76,175.19c.35-.32,1.86-.32,2.33-.15.36.13.43-.09.37.54l-1.26.17-.19,1.52-.74.2.22-1.04c-.89.18-1.34-.66-.72-1.23ZM311.48,185.46c.91.26,1.03,2.82.2,2.86-.59.03-.2-2.49-.2-2.86ZM312.36,200.03l1.75-.05.03,1.04-2,.05.48-.29-.26-.75ZM311.15,211.01c.41-.29,2.45-.36,2.27.59s-2.78.01-2.27-.59ZM312.61,237.82l.11-.79c.47.45,1.03.78.92,1.54-1.75.51-.93.22-1.5-.57-.17-.23-.6-.01-.52-.42l1,.24ZM123.97,308.51l.74-.03c-.59.99.63.88.8,1.8-1.1.33-1.53.43-2.27-.59.48-.37.87-.44.72-1.18ZM105.46,309.51l.27,1.39c-.37,1.49-2.97-1.07-.27-1.39ZM243.87,307.92c-.53.18-2.16-.01-2.02-.85.15-.91,2.19-.03,2.02.85ZM101.8,312.74c.16-.76-.78-1.9.31-2.09l1.18,2.05-1.5.04ZM180.56,308.82c.39.35,2.16.22,2.27.59.24.86-1.08,1.28-1.35,2l-.85-.25.46-1.18c-.66-.2-.55-.47-.53-1.16ZM202.59,309.02l.76.16.25.74,1.51-.18.05,1.82c-1.91-.08-2.27-.64-2.57-2.53ZM192.88,310.84c-.14,1.16-2.11-.05-2.01-.59l.83-.68,1.18,1.27ZM233.44,310.57c.05-.06.8-.38.99-.21l.54,1.96c-.92.71-1.76-1.42-1.53-1.75ZM223.18,311.08c1.43.05,0,1.22-.05,1.37-.16.45.26.89-.26,1.24-1.42-.96.3-1.37.31-2.61ZM271.85,312.86c-.33-.23-.56-1.76.02-2.03l1.33.55,1.37,1.98c-.35.27-2.51-.36-2.71-.5ZM275.78,312.03c.91.38,2.28.45,2.3,1.76l-2.03-.32-.27-1.44Z"/></svg>