<?xml version="1.0" encoding="UTF-8"?><svg xmlns="http://www.w3.org/2000/svg" viewBox="0 0 201.59 196.91"><style>path{fill:#E54A5C;}</style><path d="M32.75,1.58c.69.48,1.02,1.38,1.19,1.62,0,0,1.07.52.81,1.38.07.09.16.86-.1,1.37-.99.24.31.59-.17.91-.31.2,1.16-.25,1.27-.27.68-.16,1.57,1.98,2.35,1.71.39.29.12,1.12.35,1.58.21.43.92.41,1.2.71s.25.84.51,1.18c.95,1.26,2.53,2.56,3.54,3.63,1.31,1.38,2.14,2.05,3.65,3.06.39.26,1.87.98,1.94,1.06.21.22.24,1.12.62,1.54.09.1,1.61,1.22,1.86,1.38,1.67,1.11,3.63,2.04,5.35,3.04,2.07,1.21.7,1.03,3.58,1.69.69.16,1.23,1.04,2.09.91l-.24.72c.28.18,1.04-.03,1.14.05.66.47,1.76,1.52,2.48,1.97.92.57,3.42,1.6,4.01,2.11.13.11.03.63.27.8.34.24,1.21.05,1.92.72.8.75.39,1.86,1.81.89.29.02,1.12,1.25,1.57,1.48.57.29,1.41.2,1.83.45.68.4,2.4,2.3,3.05,2.59.59.27,1.16.13,1.58.34.49.24.54,1.43,1.68,1.08l-.24,1.2,1.79-.24.16.7.67.04.02.95c1.69-.49,1.42,0,2.41.59.26.16.72.05.89.17.19.13.13.68.34.86.35.3,2.01.39,2.29.58.44.31.24,1.7,2.21,1.15l-.48,1.44c.63.19.8-.92,1.07-.95.16-.01,2.18,1.73,2.54,2.02.47.38,1.72,1.68,2.14,1.94.32.2.77-.28,1.19-.03s.58,1.29.8,1.5c.81.8,3.64,1.36,4.37,2.22s-.27,1.49,1.79,1.21l-.24,1.2.59-.71c1.29.95,2.88,1.13,2.28,3.11l1.08-.66c.64,1.09,3.15,1.21,2.51,2.58.39-.48,2.14.5,2.28.71.23.35-.04,1.04.35,1.33.18.14.65.11.94.26.62.32,1.22.9,1.72,1.16.26.14.61-.04,1,.12.99.41.16,1.49.9,1.82.34.15.69-.17,1.03-.09.27.06.43.43.67.54.34.16.83.15,1.08.36.46.38.28,1.15.35,1.21.09.09.72-.05,1.02.02.98.22,1.95,1.78,2.47,2.38.2.24,1.41.79,1.71,1.03.56.46.32,1.28,1.74.65l.02.94c1.62-.21,2.02,1.46,2.72,1.96.41.29.91.15,1.32.36,1.35.69,2.17,2.42,3.01,3.22.24.22.67.17.79.3.14.15,0,.59.06.64.21.21,1.1-.33,1.43-.12.22.14.32.64.59.86.8.62,2.26.89,2.05,2.39l.6-.48c.4.18,1.17,1.8,1.82,2.25,2.36,1.65,4.04,2.27,6.11,4.44.74.77,1.7,1.37,2.16,1.92.43.52.83,1.65,1.39,2.09.36.28,1.26.4,1.61.91.26.37.2,1.06.45,1.23.34.24,1.05-.06,1.59.32.33.24.94,1.35,1.53,1.82,4.43,3.51,9.3,8.78,14.03,11.88.88.58,4.12-1.01,4.12-1.01l2,2c.76.72.13.22,1.14.39,1-.86,2.02-1.18,1.69-2.76l2.05,1.19c.44,1.34,1.34.9,1.12,2.18.45-.05,1.84,1.01,2,1.34.32.7.65,2.45,1.19,3.29.3.48,1.42,1,1.66,1.57s.06,1.06.18,1.45c.07.23.65.26.86,1.12.26,1.06-.39,2.41,1.03,2.45.09.59,0,1.23.23,1.79.17.44.58.4.71.73.18.44.07,1.05.34,1.59.33.64,1.17.74,1.35,1.29.27.88-.3,1.73-.19,2.57.08.62.72,1.27.48,2.06l.47-.24c.43,1.16-.55,2.15-.23,3.43.04.17.37.13.46.34.12.31-.06.7.23,1.16.46.73,1.24.28,1.17,2.09,0,.06-.18,1.15-.2,1.21-.06.23-.54.04-.45.48.14.65.86.83,1.15,1.26,1.02,1.49,1.05,3.5,1,5.23l1.42,4.07-1.17,1.03c-.08.57.22,1.07.23,1.63,0,.78-.49,3.19-.85,3.72-.2.29-1.05.05-1.28,1.37-.17.96.42,1.22.39,1.58-.02.31-.68,1.04-.87,1.53-.86,2.23-1.73,4.34-2.38,6.73-.33,1.23-.56,2.98-1.5,4.01-.23.25-.88.26-1.08.6-.18.31-.08.82-.26,1.18-.72,1.48-1.85,1.66-2.73,2.55-.33.33-.37.76-.63,1.05-.65.73-1.52.52-1.16,1.9.17.63.76.48.57,1.23-1.57-.66-1.48.64-2.64.72.58-.8-.19-1.5-.96-1.44.3.99-.83.75-1.1,1.19-.18.3.2.73.12,1.04-.16.62-1.4.51-1.93.7-.75.26-1.93,1.12-2.51,1.13-.82.02-1.4-1.32-2.71-.45l-.02.94,1.8-.48c.22.02.18.31,0,.49-.51.53-3.01.91-3.95,1.57-.74.52-.46,1.49-1.58,1.53-1.05.03-2.11.12-3.15.68-.77.41-1.21,1.22-1.9,1.72l-1.39-.72c-.79.34-1.16,1.06-2.05,1.34-.26.08-.54-.08-.79-.04-.77.12-.75.62-1.95-.11-.37,1.59-1.92.92-2.03,1-.06.04-.16.51-.37.71-1.42,1.38-1.58.17-2.64.23-.57.03-2.02.94-2.66,1.2l-.12-.72c-.59.3-1.13-.04-1.76.02-1.28.11-2.63.56-4.07.22-.18-.04-.15-.45-.31-.48-.91-.2-1.04.59-1.54.83-1.38.68-2.59-.05-3.94-.12-.86-.04-1.61.21-2.34.18-.95-.03-2.03-.66-2.71-.68-.93-.03-1.82.61-3.31.26-.19-.04-.16-.49-.28-.49-.34,0-.75.45-1.21.49-.57.06-1.1-.3-1.66-.27-.53.03-.82.46-1.18.48-.34.01-.66-.28-1.15-.18-.65.14-1.5,1.41-1.98,1.41-.44,0-.66-.65-1.21-.74-.66-.11-1.28.29-1.9.26-.54-.02-.88-.39-1.23-.43-2.35-.25-4.91.54-7.16.7-.41.03-.79.2-1.21.21l-1.67-1.22-.67.69c-.29-.07-.59-.31-.88-.34-3.1-.36-13.46-2.01-15.48-3.7-.25-.21-.31-.65-.38-.7-.12-.08-.75.32-1.34.07-.37-.16-.44-.74-.65-.77-.16-.02-.69.35-1.03.39-1.51.16-1.97-.26-3.19-.98-.12-.07-.4.06-.43.03-.25-.27-.06-1.11-.57-1.23-.73-.08-1.46.21-2.21.07-.94-.18-1.96-.41-2.9-.47-.52-.03-.86.34-1.55.14-.79-.23-.9-1.1-1.44-1.45-.78-.5-1.93.02-1.67-1.09-.78-.2-.21.61-.84.48-.15-.14-.83-1.1-.9-1.13-1.7-.56-1.22-.41-2.68-1.29-.78-.47-1.35-.7-2.13-1.21-1.49-.97-3.04-1.94-4.44-2.98l.2-.82c-.05-.06-.35.2-.59.19-.72-.03-2.36-.04-2.09-.86l-1.11-.09c-.52-2.18-2.18-.7-3.24-.91-.2-.04-.36-.64-.63-.87-1.62-1.4-3.04-1.08-4.9-1.34-1.11-.15-3.07-.82-4.01-1.27-.51-.24-2.67-1.47-2.99-1.81-.3-.32-.29-.83-.39-.92-.42-.36-1.79.27-1.39-1.25l-.59.48c-1.35-1.71-3.4-2.68-5.14-3.97-2.44-1.82-3.35-2.69-5.41-4.9-.44-.47-1.33-.59-1.67-.97-.82-.91-2.8-3.67-3.6-4.31-1.46-1.15-3.52-2.16-4.93-3.7-.56-.61-.64-1.27-1.02-1.74-.26-.32-1.03-.62-1.37-1.14-.25-.38-.2-1.03-.46-1.22-.23-.16-.69-.02-.91-.16-.25-.16-.38-1.25-.61-1.55-.44-.59-1.99-1.52-2.56-2.35-.53-.77-.76-1.8-1.43-2.65-.22-.27-.7-.35-.85-.59-.27-.45-.07-1.42-.37-1.97-.19-.35-.86-.48-1.18-.8-.82-.83-1.72-5.64-1.95-5.84-.11-.1-1.1.26-1.29-.73-.07-.35.43-1.21.83-1.32-1.2-1.11-2.3-2.36-1.92-4.2h-.96c-.24-.9.62-1.82.39-2.64s-1.77-1.59-1.94-2.36c-.04-.19.08-1.11.17-1.2.17-.18,1.19.15.67-1.23l-.96.24c.6-1.44-.84-1.96-.94-2.31-.11-.37.36-.96.18-1.59-.08-.27-.74-.93-.97-1.44-.21-.44-.11-1-.31-1.38-.18-.34-.66-.34-.84-.67-.23-.43-.15-2.34-.54-3.23-.24-.54-.85-.86-1.12-1.53s0-1.08-.23-1.65-.82-.85-.94-1.24c-.2-.65.03-1.59-.07-2.33-.12-.88-.71-1.71-.88-2.47-.86-3.84.65-6.23.88-9.8.19-3,.18-6.31.51-9.3.09-.85.7-2.01.82-3.23.26-2.68-.56-5.42.2-8.25.32-1.19,1.52-3.44,1.81-4.42.18-.61-.06-1.32.15-2,.15-.46.74-.79.8-1.09.15-.79-.35-2.41.11-3.75.18-.53.85-.76,1.02-1.14.26-.6.5-2.15.6-2.88.56.24,1.62-.08,2.03-.48.12-.11,1.41-2.67,1.46-2.87.24-.92-.23-1.38-.14-2.03.07-.5.58-.67.69-1.02.17-.59-.15-1.04-.1-1.4.03-.27.86-.84.78-1.43-.04-.31-.72-.53-.63-.92.05-.21.51-.43.65-.81.3-.84.64-3.28,1.13-3.9.2-.25.56-.23.84-.24l-.46-.25.21-.55c-.7-.25-.36-.96-.82-1.38-.39-.35-2.84.7-1.67-1.86.3-.65,1.13-1.26,1.25-1.88.16-.79-.37-1.43-.15-2.28.18-.7,1.39-2.62,2.02-3.05.39-.26.77.1,1.15-.25,1.02-.94-.04-1.43.14-1.68,1.57-.31.99-1.48,1.25-2.47.86-3.22,2.26-5.68,2.82-8.91.32-1.88.83-4.38,2.4-5.53l-.5-.26c.07-.65.38-1.58.99-1.89.28-.14.77-.06.9-.17s1.14-2.32,1.72-2.95c.53-.56,1.67-1.05,1.93-1.42.35-.5.08-1.17.58-1.57l.24.72c1.29-1.93,1.15-.36,2.99-.87l1.86,1.45ZM23.94,7.23c-1.02-.27-1.07,2.53-.96,2.64,2.06.09,1-1.38.96-2.64ZM30.39,14.93l-1.65.45c.44.99.72,1.29-.18,2.17l-1.14-.26c-1.41.44-.06,1.44.08,2.1.33,1.52-.87,1.8-1.15,2.41-.18.41-.15,1.25-.32,1.78-.16.5-.75.89-.65,1.51l.48-.12c.43,1.27-1.31,2.19-1.4,2.56-.17.69.92,2.93-.77,3.08.26,1.41.25,3.04-.09,4.44-.22.9-.97,1.61-1.05,2.57-.05.61.27,1.13.2,1.57-.03.18-.42.18-.49.33-.53,1.12-1.31,3.99-1.63,5.28-.13.52.06,1.16-.08,1.6-.12.39-.64.33-.69.39-.66.79.67-.04.47.59-.29.45-1.17,2.49-1.2,2.9-.05.56.6.89.5,1.64-.08.57-1.12,1.2-1.34,2.05s-.71,3.38-.8,4.23c-.11,1.01.27,1.98.21,2.6-.05.45-.6,1.38-.69,2.21-.07.67.18,1.31.03,1.91-.19.76-.81.84-1.12,1.77-.58,1.71-.37,4.05-.9,5.81-.24.78-1.07,1.11-.91,1.94.03.18.48.05.51.5.04.48-.02,2.33-.05,2.9-.01.26-.82,1.63-.83,2.14,0,.47.44,1.01.39,1.68-.12,1.82-.56,4.38-.74,6.47-.12,1.35-.09,2.15-1.43,2.64,1.37,1.08.41,2.62.46,3.83.05,1.1.62,3.18.72,4.58.06.89-.59,2.64,1.22,2.49.03.52-.39.81-.47,1.33-.11.76,1.5,4.98,1.94,5.95.22.48.83,1,.9,1.28.13.51-.25,1.04-.21,1.6.07.77.84,1.13.9,1.49s-.29.91-.14,1.6c.19.89,1.71,2.56,1.77,3.04.04.32-.31.49-.31.8.01,2.13,1.93,6.24,3.07,8.14.11.19.45.22.55.47.31.82-.2,1.34.03,1.85.42.94,2.18,2.73,2.63,3.62,1.38,2.74,2.3,5.51,4.11,8.11,1.01,1.45,3.5,3.2,4.43,4.74.25.41.14,1.21.56,1.54s.99.09,1.29.27c.13.07,1.26,2.04,1.75,2.45.39.32.98.38,1.25.61.98.82,1.17,1.78,1.84,2.54s1.94,1.25,2.57,1.87c.42.41.83,1.56,1.05,1.71.24.17.72.12,1.08.36.65.44,1.51,1.67,1.8,1.8.47.21,1.16.02,1.45.22.24.17.17.88.57,1.34.55.62,1.78,1.02,2.37,1.46.37.28,2.47,2.27,2.65,2.29.27.04.85-.24,1.43-.16,1.75.24,3.75,1.23,5.56,1.43.89.1,1.57-.67,2.39-.71.56-.02,1.22.35,1.85.22l.42.96c.52.05,1.01-.32,1.54-.25.69.1.42.43,1.93.5,2.09.11,3.8.37,5.82.87.33.08.7.45.89.46.31.01,1.7-.62,2.4-.59.48.02.85.35,1.24.39,3.37.33,8.02.58,11.38,0,1.96-.34,2.39-1.08,4.66-.93,3.82.25,6.57.31,10.48-.01,2.38-.2,4.86-.29,7.17-.49.78-.07,1.83-.8,2.93-.9s2.62.33,3.34.22c1-.15,4.01-1.23,5.12-1.59,1.9-.62,3.45-1.63,5.55-1.03-.21-1.3,1.72-.84,2.63-1.34.53-.29.64-.95.99-1.17,2.19-1.39,6.22-2.52,8.61-3.62.92-.42,3.05-3.32,3.78-3.42.28-.04.63.18.75.14.16-.06.97-1.41,1.15-1.6.73-.75,1.55-.86,1.87-1.97,1.46.07.54-.23.91-.87.04-.07.86-.53,1.02-.54l.36.48c.28-.39-.03-1.2.11-1.43.31-.48,1.71-1.21,2.06-1.54.77-.74,1.58-2.28,2.63-2.65.65-.23,1.85-.37,2.44-.66.4-.2.66-.62,1.14-.67l-.72-.24c.04-.71.45-1.35,1.2-1.2l-.24.96c.6.17.55-.52.78-.66.24-.14.7-.02.91-.17.19-.14.62-2.43,1.31-2.77.17-.08.04.33.3.46,1.2.63.99-.2,1.16-.22.43-.04.86.3,1.53-.25-.42-.73-1.66.03-2.4-.48l1.2-.34.21-.29-.46-2.73c.78-.08,1.32-.03,1.92.48-.26-.56.48-.8.48-.86.02-.36-.48-1.02-.19-1.49.06-.11.5-.17.68-.39.17-.21.96-1.4,1.16-1.72.54-.84.58-2.3,1.28-3.17l1.75-.03c.45-.56.26-1.3.49-1.92.37-.98,2.2-2.4.52-3.19-.35-.16-.84-.1-1.07-.24s-.31-.76-.53-.97c-.19-.18-1.26-.6-1.37-.71-.25-.25-.22-.67-.58-1s-2.66-1.81-2.98-1.82c-.13,0-.07.53-.77.67-1.48.3-2.02-.33-2.79-.36-.66-.02-2.48,1.68-3.52,1.25l.24.49c-1.34,1.11-2.82,2.49-4.38,3.29-.41.21-1.35.24-1.56.48-.15.18-.15.75-.42,1.13-.69.96-1.65,1.36-2.63,1.93l-.23-.48c-.55.4-.08,1.12-.43,1.6-.3.41-1.51.74-1.73,1.51-.58.06-.18-.72-1.08-.48.65,1.44-.84,1.54-1.74,2.15s-1.79,1.65-2.56,2.3c-1.08.9-1.49.71-2.51.88-.3.05-.56.56-.88.77-.59.37-1.18-.03-1.41,1.24l-1.67-.18-.02-.69h-1.19c.07.56-.02.65-.49.84,0,.18.78-.08.44.91-.29.82-2.97,1.53-3.83,1.69s-1.83-.52-1.88,1.12c-1-.61-.6.16-1.05.5-.34.26-.79.13-1.04.28-.22.14-.17.61-.88.92-.27.12-3.14.61-3.37.61-.15,0-.35-.32-.66-.32-1.69-.01-1.35.62-2.09,1.73l.48.36c-.55.11-1.54.25-1.99.53-.41.25-.44.7-.99.94-.72.32-1.62-.09-2.59.24-.24.08-.97.4-1.4.56-.38.15-.64.53-1.07.62-.75.15.19-.75-.48-.96l-.78.83.42.84c-.46.32-1.62.25-1.92.39-.38.18-.81,1.26-.88,1.29-.4.17-1.27.14-1.81.31-.73.23-2.99,1.23-3.43,1.26-.59.04-1.88-.8-2.6-.6-.48.23-.35.55-.15.94-2.13.05-4.82,1.29-6.83,1.22-.47-.02-.85-.19-1.21-.49-.49,1.31-1.32.35-2.4.36-1.44,0-2.56.62-4.26.06-.45-.15-.49-.6-1.25-.68-1.07-.11-1.94.48-2.86.47-1.45-.01-4.77-.64-6.2-.97-.77-.18-1.61-1.26-2.03-1.37-.35-.09-1.3.43-2.51.13-1.03-.25-5.92-1.86-6.55-2.32-.23-.17-.41-.4-.6-.6l.72-.36-.48-1.44c-.75.57-.63,1.47-1.79,1.58-.53-.49-1.26-.27-1.8-.51-.33-.14-.58-.73-.98-.94-.46-.24-1.08-.18-1.47-.4-.58-.31-1.54-1.39-2.05-1.6-.78-.32-1.45.02-2.07-.07-.19-.03-1.73-.43-1.8-.5-.1-.1.03-.71-.24-1.07-.19-.25-1.28-.64-1.84-1.28-.27-.31-.3-.84-.39-.92-.16-.14-3.31-.98-4.03-1.37-1.72-.91-1.85-1.69-2.86-2.88-.87-1.02-2.11-.94-1.45-3-.44.07-.63.31-.96-.11-.41-.52-2.83-4.5-2.98-4.94-.38-1.06-.18-1.42-.79-2.81-1.65-3.74-3.94-8.29-4.74-12.29-.08-.37.18-.87.13-.94-.06-.09-.99-.1-1.16-.65-.14-.46.03-1.07-.09-1.59-.66-2.9-1.55-6.11-1.82-9.15-.13-1.45,1.33-2.97-.77-3.25,1.14-.94-.23-1.7.02-2.47l1.19-.8c.33-1.37-.38-1.17-.61-1.52-.39-.59,1.05-5.61,1.22-6.71.33-2.19.31-4.3.12-6.38s-.38-3.88,1.9-4.66c.37.34-.13,1.92.72,1.68-.03-.93,1.44-1.43.36-2.4-.81.5-.97.56-1.79,0,.01.44-.1,1.06-.72.96.11-.55-.26-1.19-.14-1.69.26-1.08,1.92-1.03,1.57-2.47-.05-.19-.47-.07-.5-.51-.09-1.25.35-3.4.39-4.68.01-.36.08-1.63.04-1.84-.16-.84-1.08-1.68-1.13-2.13-.09-.81.81-2.39.29-3.85-.69-1.94-.38-1.72-.53-3.56-.06-.77-1.76-3.33-1.69-4.3,0-.13.41-.1.53-.47.29-.87.31-1.95.5-2.85.72-3.32,1.63-6.51,2.32-9.91.27-1.36-.04-3.06.74-4.42.44-.03.16.6.35.96s.57.05.6-.13c.07-.37-1.55-1.74,0-2.04l-.49-.59c.09-.6,1.02-1.52,1.31-2.05.21-.37.07-.89.35-1.32.56-.87,1.29-.32,1.24-2.4,0-.12-.75-1.64-.81-1.72-.19-.24-1.01-.53-1.38-.9-1.53-1.53-2.71-3.17-4.2-4.68-.19-.19-.28-.45-.38-.69ZM20.09,17.79l-1.18.35c-.07.38,1.42,1.54,1.44.95l-.26-1.3ZM38.96,26.48c-.22-.31-1.23-1.27-1.6-1.03.59.83-.37.26-.48.6-.37,1.07.61.82.97,1.2.25.26.16.82.36.85,1.22.23,1.31-.8.75-1.62ZM136.86,121.6c.58-.39,1.8-.71,1.87-.78.38-.41-.06-.22.88-.89.46-.33,2.53-2.09,2.69-2.13.38-.1.9.26,1.03.58.17.4-.82.37-.48,1.08.8-.68,1.77-.46,1.43-1.75-.05-.21-.78-.28-.58-.89.59-1.02,1.77-1.74,2.96-1.7-.08-1.41.62-1.3,1.47-2.25.71-.8,1.05-1.69,2.23-2.33.93-.51,2.33-.61,3.26-1.06,1-.47.83-1.48,2.18-.81l-.48-1.68c.78-.16.18.61,1.08.48.67-.1-.23-.78-.26-.82-.25-.37-1.17-1.4-1.56-1.69-.21-.15-.64-.09-.69-.14-.1-.11.36-1.28-.04-1.64-1.15.13-1.51-.24-2.22-1.02-.16-.18-.09-.56-.31-.71-.3-.22-.85.02-1.17-.19-.53-.36-.45-.92-.66-1.15-.18-.2-1.25-.65-1.66-1.03-.84-.76-1.47-2.38-1.87-2.76-.46-.44-2.61-.94-3.83-2.16-.29-.29-.92-1.48-1-1.53-.3-.17-.82.32-1.16.11-.27-.17-.29-.69-.47-.93s-.53-.28-.6-.4c-.14-.25.35-.9-.25-1.21l-.72.71c-.21-1.04-1.04-1.01-1.2-1.18-.82-.87-1.05-2.03-2.41-2.17l.14-.97c-.56.18-1.94-.08-2.41-.36-.21-.13-.05-.51-.22-.72-.63-.77-2.28-2.24-3.15-2.61-1.32-.56-.46-.32-1.18-.97-.45-.41-1.84-.98-2.07-1.16-1.57-1.23-2.48-3.53-4.83-3.08l-.3-.79.5-.25-.24-.6c-1.16.61-1.54-.93-3.01-.93-.06,0-.18.75-.82.46.49-2.21-1.93-2.07-3.34-2.91l.46-3.09c-.34.49-2.46.55-2.87.37-.07-.03-1.14-.79-1.2-.85-.28-.24.85-.16.48-.71-.92.09-1.07-.64-1.57-1.2-.25-.05-.93.85-1.07.12-.11-.58.75-.4.72-.83l-1.89-.03-.03-1.17-2.38.23-.41-1.69h-1.97s-.27-1.42-.27-1.42c-1.18.76-1.25-.93-2.41-.59l-.23-1.09h-2.15c.57-.98-.51-1.07-.9-1.52-.12-.14-.01-.55-.08-.61-.15-.13-.7.03-1.01-.04-.18-.04-.16-.39-.5-.51-.53-.19-1.6-.12-1.8-.24-.12-.08-.15-.67-.4-.92-.22-.22-1.58-.92-1.75-1.25l.19-.43-.96.24-.22-.86c-1.65-.1-3.31-.85-4.59-1.89-.28-.23-.41-.81-.63-.85-.67-.15-1.72.26-2.12-.72-.2-.48.45-1.02-.23-1.43l-.33.84-.99.11.11-.49c-.91-.3-.89-1,.13-.47l-.24-1.68c-.93.18-.74.9-.96,1.68l-.72-1.2c-1.64.72-1.16.02-1.58-.45-1.19-1.35-1.91-1.59-3.63-2.13-.38-.12-.92.05-1.21-.11-.11-.06-.17-.48-.43-.64-.43-.27-1.06-.16-1.42-.5-.25-.24-.29-.91-.6-1.1-.24-.15-.94.28-1.51-.33-.22-.24-.18-.57-.3-.72-.68-.77-2.49-1-3.76-1.93s-.99-.43-2.28-.9c-.85-.32-2.9-1.52-3.22-2.42l-1.62.19c-.15-.28-.14-.96-.31-1.13-.2-.19-2.92-.93-3.03-1.05-.12-.15.02-.68-.14-.93-.18-.28-.78-.17-1.08-.36-.43-.27-.34-1.14-1.54-.83-.21.05-.05.8-.7.25-.38-.32-.36-.88-.76-1.21-.33-.27-.84-.27-1.17-.51-.48-.34-1.82-1.51-2.25-1.59-.19-.04-1.55.17-1.69.25-.29.17-1.01,1.53-1.99,1.52-.14.89.56,1.48.49,2.34-.12,1.45-1.15,3.79-1.46,5.3.03.99.23,1.46.98,2.04-1.32.07-.77.64-1.09,1.42-.21.51-1.05,1.48-1.05,1.58,0,.11.49.39.6.61.33.72-.48,2.36-.58,3.25-.16,1.33.46,2.95-.74,3.81l.48.11c.43,1.59.09,3.2.95,4.63.15.24.59.24.7.56.18.52-.37,2.29-.2,3.31.15.87.91,2.36,1.03,3.29.19,1.42-.43,1.26.4,2.77.27.48-.42,4.11-.48,4.98-.3,4.25-.26,8.35-.94,12.48-.09.58.02,1.2-.02,1.78l-.48-.24c-.03.92-.19,1.83-.24,2.75-.04.64-.24,2.56-.23,2.89,0,.38.52.63.47,1.4-.04.66-.73,1.65-.72,2.21s.79.45.91,1.23c.14.89-.39,1.69-.32,2.35.08.71.94,2.28,1.06,3.38.32,2.96.23,5.17,1.33,8.02.65,1.67,1.36,2.82,2.09,4.38.62,1.33,1.4,4.67,2.7,5.45.54.33,1.17.07,1.58.59-1.49,2.74.52,1.66.97,1.9.84.46.15,3.16.74,3.67.04.04.34-.13.44-.05.26.21.26.6.65.77.44.19,1.22.04,1.68.36.41.28.94,1.71,1.52,1.97.36.16.71-.09.96,0,.41.16.81,1.11,1.6,1.27.66.13,1.38-.32,2.03.04.3.16.35.6.68.82.9.62,1.72.67,2.49,1.12.28.16.32.64.55.69.33.08,2,.47,2.11.47.38,0,.78-.66,1.32-.48.26,3.21,5.47,1.68,6.36,4.55l.71-.72.6.24-.24.72,1.68-.24-.48-.71c.96-.28.93.94,1.61,1.15.27.08,2.32.33,2.58.29l2.41-1.92c.52.82,1.27,1.55,2.28.95l.1,1.22,1.07.26.03.67c.57.22,1.04-.37,1.45-.36.62.01,1.15.57,1.78.63.88.08,1.69-.44,2.63-.51,1.37-.11,2.63.46,3.66.42.41-.02,1.18-.54,1.89-.62s1.77.12,2.32-.03c.1-.03.64-.85,1.33-1.13,1.02-.41,2.03-.09,3.1-.5.78-.3,1.38-1.13,1.99-1.36.48-.18,3.88-1.23,4.03-1.38.13-.13-.14-.53.32-.75.17-.08,3.43-.81,3.61-.81.49,0,1.14.25,1.61.41-.35-.6.74-1.59,1.2-1.79.36-.15.67.46,1.09-.61l.83.48c-.14-1.15,1.38-1.31,2.31-1.42.36-.04.82.29,1.01.19.06-.03.13-.39.3-.54,1.05-.88,2.11-1.51,3.22-2.31l.6.72-.24-1.2.93.27c.03.87-.26,1.22-.93,1.77,1.13.46.26.93-.48.12-.15.86-1.27.79-.96,1.92l1.46-.1.22-.86.71.72.84-3.36c.73-.2.78-1,.9-1.12.35-.37,1.71-.16,2.05-.36.1-.06,1.11-1.58,1.38-1.85.26-.25.65-.27.93-.51.63-.56.65-1.53,2.05-1.18.09.38-.34.11-.47.41-.16.38-.4,1.61-.02,1.88l1.69.1-.48-1.19c.15-.03.36.04.48,0,.24.31.9.8,1.29.74.7-1.16,1.26-3.24-.81-2.9ZM35.48,35.98c.18-.88-.23-2.77-1.32-1.92-.93.72.61,2.06.33,2.42l-.71-.48c-.64.91,3.32,2.75,2.42.14l-.71-.16ZM34.25,41.75c-.61-.22-.41.42-.63.47s-.93-.25-1.23.06c-.99,1.02.58,1.96,1.64,1.27.43-.3-.32-.81.48-.98l-.26-.82ZM31.38,47.99c-.28-.39.66-1.68-.24-1.92l-.24,3.59c.43.32,1.59-1.62,1.92-1.91l-1.44.24ZM80.22,46.61c-.06-.05-1.4-.55-1.48-.53-.61.47-.27,1.33-1.09,1.55.29.72,2.12-.47,2.87.12.1-.1-.11-.97-.3-1.14ZM115.99,67.91l-.34-.02c-.65.55-.65,1.36-.6,2.16,1.41.31,1.37-.55,1.91-1.56-.29-.45-.49-.27-.91-.18l-.05-.39ZM120.32,70.29c-.33-.28-1.04.15-.96.82.05.37.44.61.48.98.03.34-.3.74-.13,1.07.19.38,1.01.35.98,1.19,1.5-1.16-.08-1.61-.13-1.84-.08-.35.23-1.83-.23-2.23ZM34.45,78.4c.24-.35.46-1.25-.08-1.4-.35-.1-3,1.25-1.67,1.92l1.75-.52ZM33.43,97.39c-1.09.33.74,3.17,1.27.63l-1.27-.63ZM145.73,121.59l-.84-2.16c-.44.38-.64.95-.62,1.52l1.46.63ZM149.67,125.34c-.16-.14-.02-.42-.22-.38-.7.28-2.01,2.4-.96,2.39.43,0,.81-1.8,1.56-1.68.08-.35-.2-.17-.38-.33ZM186.97,128.31c.45-.46-1.42-1.65-.96-2.4-.23.4-1.32.7-1.38.77-.13.16-.4,1.93-.83,2.29l-2.58,1.02c.76.83.24,1.88-.96,1.68l.48.83c-.37.52-1.14.48-1.57.83-.53.43-.44,1.15-.71,1.45-.29.33-.4.27-.89.88-.22.27-1.12.45-1.62,1.15-.6.86-.72,2.21-1.23,3.08-.75,1.27-3.82,3.7-4.4,4.72-.22.38-.04.9-.34,1.33-.26.38-.86.38-1.07.56-.24.21-.04.6-.31.74-.41.22-1.32.16-1.76.59-.33.32-1.29,2.18-1.79,2.77-1.03,1.21-2.39,1.94-3.4,2.95s-2.06,3.25-2.98,3.85c-.36.23-.87.2-1.36.56-1.16.86-2.88,2.74-4.14,3.31-.46.21-.76-.09-1.19-.13l-.25.61.48.12-.46.82c.25,1.13,1.56,1.07,1.63,1.14.61.63.46,2.27.15,3.07-.17.46-1.66,2.76-1.55,2.88.57-.4.86-.89,1.68-.72-.61,1.08.25,1.43.42,2.09.44,1.65-.05,4.52-.79,6.05-.24.49-.88.58-1.09.9-.17.27-.27,1.8-.57,2.48-.19.44-.52.47-.59.65-.5,1.19-1.25,2.9.11,3.65.66-1.49,2.12-.99,3.3-1.25,1.85-.41,3.18-1.07,5.31-.45,1.3-.72,4.09-.03,4.59-1.66.14-.46-.14-1.07.13-1.51.29-.46.75-.36,1.05-.65.26-.26.3-.9.6-1.09.52-.33,1.34.26,1.99.14.17-.03.22-.42.46-.56,2.26-1.37,2.11-2.16,3.58-4.09.2-.27.63-.38.65-.42.05-.09-.36-.76-.19-1.26s2.69-.74,0-2.69c.4-.55.31-1.39.48-1.84.1-.26.53-.17.65-.82.27-1.45-.02-3.01-.43-4.39l-.47.24-.23-2.74c-1.35-.27-1.43-1.79-1.05-2.98.3-.94.89-.82,1.23-1.4.18-.31.45-1.7.53-1.75l.71.24c.06-.5.14-.94.7-1l-.22-.68c1.06.07,1.29-.81,1.45-1.68l.24.72.97-.12c.13-.91.85-1.17.71-2.04,1.17.14,1.79-.91,2.98-.26l.37-.35c-.26-.69-.6-1.04-.23-1.79.87-.24.75.55,1.31.95.15,0,1.23-1.13.72-1.43l-.84.72c-.47-.67,1.19-1.79,1.61-1.89.49-.13.76.45,1.11.42.3-.03.6-.42.9-.55.24-.1.63.07.71,0,.32-.27.16-.92.36-1.31.75-1.46,2.97-1.74.61-2.79.76-1.17-.38-1.75-.45-2.17-.04-.23-.27-1.75-.25-1.84.04-.2.42-.42.43-.76.04-.76-1.32-2.34-1.46-3.21l-1.17.21c.94-1.82-.04-2.29-.32-3.65-.25-1.19,1.42-1.22,1.28-2.34.53-.05.79,1.85,1.43,1.2ZM172.59,128.79c.18-1.03-.48-1.46-1.44-1.44v1.43c-.09.14-1.18.06-.96.61.42,1.04,2.33,1.2,1.44-.59h.96ZM119.75,132.25c-.24-.14-.51-.22-.77-.32-.81-.16.2,1.31.39,1.53,1.29,1.57,1.55-.53.39-1.22ZM132.79,132.15c-.39-.44-.49.38-.59.43-.53.21-1.72.28-2.28.65.49,1.02,3.27-.64,2.87-1.08ZM114.05,140.5c.75-1.14.38-1.84-.68-2.6-.35,1.19.94,1.77,0,2.63l.69-.03ZM107.13,140.54l-1.68.11v1.57c.55.17.42-.18.53-.27.19-.17,1.37-1.23,1.15-1.41ZM193.15,141.69c.16-.33-.16-1.45-.76-.41-.21.37-1.7,3.37-1.73,3.56-.09.56.42.89.15,1.45l.52-.68.68-.04c-.05-.18-.16-.34-.15-.54.09-1.28.89-2.52,1.29-3.34ZM27.3,148.69c-.91-.2-1.01,1.94-.72,2.16l.97-.4-.25-1.75ZM188.38,150.4c-.09-.14-.66-.26-.91-.16-.22.09-2.02,1.41-2.4,1.7-1.34.99-1.89,1.68-2.78,2.96-.48.69-1.46,1.3-1.31,2.28.06.41.5.67.5,1.21,0,.4-.32.88-.27,1.18.03.18.5.23.69.55.39.65.95,3.54.77,4.25-.07.28-.59,0-.48.39.91-.06,1.04.38.96,1.2.72.12,1.13-.18,1.56-.72.2.64.47.51,1.08.48l-1.67-2.39c1.12-.46,1.45-2.32,3.11-1.68l-.24,1.43,1.66-.49c.28-1.3-.38-.76-.85-1.16-.41-.35-.13-1.14-1.2-1.21l-.58.47c.92-2.37,2.22-5.26,2.39-7.79.03-.42.08-2.3-.03-2.48ZM150.05,151.09h-.96s.24,1.92.24,1.92c.59.56.63-1.72.71-1.92ZM195.05,151.41c-.39-.18-.9-.31-.89.28,0,1.21.24,1.18,1.21,1.68l-.72.12.36.71,1.55-.83c-.86-.31-.67-1.48-.74-1.53-.06-.05-.38.01-.59-.11-.1-.05-.11-.28-.17-.31ZM188.41,159.48l-.47.36c.49.56,1.15,1.07,1.91.72.47-.22,1.07-1.01.36-1.32-.2-.09-1,.95-1.46.72l-.33-.48ZM191.05,163.54c1.48.81,2.19-1.36.83-1.66-.57-.13-.87,1.25-.83,1.66ZM185.99,166.93c-.22-.16-1.03-.04-1.16.37l.58,1.53c.32-.44,1.19-1.45.58-1.9ZM142.43,167.56c-.12-.07.05-.45-.17-.41-.44,1.09-1.02,1.28-2.02,1.77-.22.11-.71-.05-.93.19-.23.25-.1.71-.47.92-.5.28-2.63.43-3.48.73-.67.24-2.38,1.42-3.13,1.71-2.14.83-4.87,1.37-7.02,2.36l-.44-.47c-.51.35-1.18.11-1.68.23-.64.15-1.64.92-1.89.9-.38-.03-.87-.6-1.23-.58-.34.02-1.6.78-2.19.86-.52.07-1.16-.32-1.78,0l.24-.47-.96-.24.24.71c-1.05,0-2.61.65-3.5.71-.66.05-1.51-.02-2.15.04-1.8.17-4.76.98-6.47.94-.74-.02-1.72-.75-2.6-.65-.14.01-2.54.57-2.67.62-.39.15-.71.61-.94.65-.83.13-1.45-.27-1.8-.99l-.49-.11c-.07.78-.82,1.03-1.44,1.33-1.06.13-4.07-.3-4.86.15-.31.18-.5.27-.42.68.67-.2,1.32.47,1.82.49.55.03.75-.51,1.31-.4.5.1.5.7.86.82.49.17,1.3.01,1.82.29.34.18.35.79.83.92.66.19,1.44-.42,2.11.51l.47-.48c.93,1.45,1.71,1,2.94,1.27,1.39.3,3.61.67,4.84,1.26.33.16.56.71.88.77.45.08,1.12-.35,2.03-.08.56.17.56.76.83.83.5.12,1.24-.69,1.66-.69.2,0,1.6.72,2.27.84.47.08,1.09-.17,1.65.08.13-1.41,3.1.18,3.39.02l.13-.72c1.12.85,2.46-.11,3.83-.01.92.06,1.76.51,2.63.5,1.34-.01,7.57-.81,8.41-1.43.36-.27.45-1.01.99-1.17.58-.17,1.37.03,2.05-.11,1.02-.2,3.57-1.08,4.49-1.51.1-.05,1.72-1.24,1.79-1.33.62-.72.79-2.29,1.57-2.99l-.49-.49.86-1.77c.29,1.22,1.34-.33,1.08-.96l-.36.48c-.56-.34-.12-.78-.19-1.25-.12-.87-.3-1.75-.53-2.6h-.84c.09-.84.7-1.63.26-2.48-.26-.33-.81.01-1.18-.21ZM90.32,177.18c.88-1.98-.99-1.5-1.16.03l1.16-.03ZM145.82,177.39c-.34-.74.08-1.31-1.29-1.13l.24,2.4c.69.12,1.03-.4,1.43-.85.15-.41-.34-.32-.39-.43ZM110.24,191.38c-.31-.03-2.12.33-1.9.83.33.73,1.59-.06,2.15.12l-.25-.95Z"/><path d="M136.86,121.6l.72,1.56c-.15.28-.87.49-1.2.6-.39-.51-.56-1.37-.11-1.92.22-.27.49-.18.59-.24Z"/><path d="M75.01,64.53l-.19,1.53.91.74c-.55.41-1.1,1.56-1.15,2.21-.12,1.53.64,1.17-.62,2.86-.7.94-1.89,2.14-2.56,3.14-.55.81-.46,2.28-1.92,2.22l.24.72-1.1.22-.1,1.46c-.81.29-1.15-.53-1.61-.67s-.95.01-1.5-.18c-.27-.09-3.09-2.09-3.29-2.34-1.17-1.45,1.17-2.82,1.15-4.13-.44-.74-.57-1.5-.87-2.26s-1.32-1.35.01-2.41c.38.32.19.89.84.71-.25-.38.65-2.92.77-3.06.1-.12.57-.09.78-.29.88-.78,1.48-2.04,2.6-2.47.46-.18.81.55,1.43-.16.24-.28.08-.69.29-.75.73-.2,3.51.65,4.17,1.11.75.52.56,2.22,1.69,1.79Z"/><path d="M66.6,95.96l.02.94c.64.11.56-.59,1.02-.8,1.25-.56.89.4,1.21.73.2.21.8.13,1.24.79.37.56.25,1.29.75,1.66s2.2.07,2.73-.23c.15.11.28,1.83.49,2.21.16.31.72.35.84.87.04.19.16,3.26.13,3.52-.05.4-1.96,3.46-2.17,3.58-1.25.73-3.65.3-5.09.56-1.02-.85-5.84-2.19-5.95-3.45-.04-.41.2-.7.49-.95-.58-.97-1.47.19-1.79.12-.18-.7-1.02-1.67-1.2-2.17-.06-.17-.15-2.24-.12-2.48.2-1.73,1.26-3.07,3.11-2.41.84-.98,1.66-1.69,2.16-2.91l2.14.39Z"/><path d="M101.33,81.88s.07.29.24.37c.38.19.72.15,1.14.5,1.23,1.01,1.15,3.88.68,5.28-.4,1.2-1.39,2.3-1.96,3.28-1.68,2.88-1.81,6.41-6.49,5.34l-.06-.91-2.24-.51c-.04-1.9-1.56-2.47-1.79-4.07.97.17,1.62-1.64.76-1.72l-.04-.32c.41-.48,1.36-1.24,1.56-1.81.11-.32-.58-.6-.25-.96.49-.4,1.2-.31,1.7-.7.62-.5,1.62-2,2.28-2.52.23-.18,2.09-1,2.34-1.05.62-.12.69.51,1.25.44v-.6s.86-.05.9-.03Z"/><path d="M109.7,113.31s.22.43.68.36l.12.37-.72,1.93c.82.95.67-1.2,1.43-1.32l.67,1.84c0,.65-.66,1.09-.88,1.47-.14.24-.05.73-.29,1.1-.31.5-2.17,1.32-2.77,1.34s-.37-.84-.92-.71c-1.79,1.77-2.98,2.74-5.65,2.28-.28-.05-.51-.43-.73-.49-.6-.18-1,.39-1.82-.44-.57-.58-.79-1.56-.44-2.31.2-.44,1.07-.66.83-1.44l-.74-.45c-.67-.38-.92,1.49-.94,1.89l-.95-.84.47-.11c.22-.39-.59-.81-.47-.96.01-.02.32.05.4-.07.2-.31.02-.73.42-1.15.26-.27,2.35-1.45,2.75-1.53.37-.07.76.18,1.05.12.22-.04.27-.52.55-.7,1.95-1.23,5.81-.89,7.93-.17Z"/><path d="M132.97,96.71l.33,1.83,1.64.52-.02.46-.43.12c.27.88-.29,1.8-.28,2.76l-1.66-.22c-.07,1.44-.91.85-1.46,1.1-.63.3-.8,1.22-2.02,1.25-.22,0-1.48-.18-1.64-.24-.55-.21-.43-1.27-1.35-.68-.11-.77-.64-1.11-.26-1.91l-1.19.96c.04-.55-.65-1.18-.68-1.6s.57-.57.44-1.04l-.71.48c-.09-2.89.45-2.74,2.48-3.87.36-.2.57-.64.88-.79,1.58-.78,2.06.28,3.34.49.79.13,1.66-.14,2.59.39Z"/><path d="M75.05,135.46c.06.1.91.32.91.75h-1.42s-.26-1.68-.26-1.68c1.32-.19.7.81.76.92Z"/></svg>